<svg width="500" height="500" viewBox="0 0 500 500" fill="none" xmlns="http://www.w3.org/2000/svg">
<path d="M250 488.56C381.45 488.56 488.01 425.168 488.01 346.97C488.01 268.772 381.45 205.38 250 205.38C118.551 205.38 11.9902 268.772 11.9902 346.97C11.9902 425.168 118.551 488.56 250 488.56Z" fill="#F5F5F5"/>
<path d="M378.46 339.15L456.92 293.89C460.02 292.11 460.02 289.21 456.92 287.42L343.7 221.92C341.962 221.037 340.04 220.577 338.09 220.577C336.141 220.577 334.219 221.037 332.48 221.92L254 267.18C250.9 268.97 250.9 271.87 254 273.65L367.22 339.15C368.961 340.036 370.887 340.498 372.84 340.498C374.794 340.498 376.719 340.036 378.46 339.15Z" fill="#E0E0E0"/>
<path d="M178.79 449.6L61.2203 381.82C57.9103 379.91 57.9103 376.82 61.2203 374.9L224.79 280.45C226.65 279.506 228.705 279.015 230.79 279.015C232.875 279.015 234.931 279.506 236.79 280.45L354.36 348.23C357.67 350.14 357.67 353.23 354.36 355.15L190.78 449.6C188.922 450.542 186.868 451.032 184.785 451.032C182.702 451.032 180.648 450.542 178.79 449.6Z" fill="#E0E0E0"/>
<path d="M90.4202 445.9C108.745 445.9 123.6 437.322 123.6 426.74C123.6 416.158 108.745 407.58 90.4202 407.58C72.0954 407.58 57.2402 416.158 57.2402 426.74C57.2402 437.322 72.0954 445.9 90.4202 445.9Z" fill="#E0E0E0"/>
<path d="M242.54 438.81L242.65 438.68L248.57 432.18V432.13C248.602 432.088 248.639 432.051 248.68 432.02L248.74 431.95C249.59 431.14 250.93 431.07 252.44 431.95C253.788 432.825 254.91 434.006 255.716 435.396C256.522 436.786 256.99 438.346 257.08 439.95C257.08 441.67 256.38 442.79 255.29 443.14H255.22L254.89 443.21H254.81L246.24 445.08C245.718 445.167 245.182 445.053 244.74 444.76C243.97 444.256 243.328 443.578 242.868 442.781C242.408 441.984 242.141 441.089 242.09 440.17C242.086 439.679 242.244 439.201 242.54 438.81Z" fill="#E0E0E0"/>
<path d="M381.1 378.94L256.33 451.05L239.05 454.57C238.952 454.589 238.85 454.58 238.756 454.544C238.663 454.508 238.581 454.446 238.522 454.365C238.462 454.285 238.426 454.189 238.419 454.089C238.412 453.988 238.433 453.888 238.48 453.8L243.89 443.87L368.67 371.75C372.08 369.78 383.77 377.4 381.1 378.94Z" fill="#E0E0E0"/>
<path d="M310.1 437.84C311.35 441.24 314.98 443.36 321.04 444.15L429.12 381.21L440.34 369.84C440.478 369.702 440.566 369.52 440.588 369.326C440.611 369.131 440.567 368.935 440.464 368.769C440.361 368.602 440.205 368.475 440.021 368.408C439.837 368.341 439.636 368.339 439.45 368.4L418.79 375.24L310.1 437.84Z" fill="#E0E0E0"/>
<path d="M440.75 290.74L371.16 330.04L264.29 268.71L333.87 229.41L440.75 290.74Z" fill="#2AC38D"/>
<path opacity="0.6" d="M440.75 290.74L371.16 330.04L264.29 268.71L333.87 229.41L440.75 290.74Z" fill="black"/>
<path d="M370.4 327.17L437.65 289C435.98 284.26 436.1 282.82 438 276.51L371.16 314.33C371.16 314.33 369.94 314.2 370.4 327.17Z" fill="#F5F5F5"/>
<path d="M374.42 309.11C372.635 310.264 371.147 311.824 370.08 313.663C369.013 315.501 368.396 317.567 368.28 319.69V328C368.28 331.89 371.03 333.47 374.42 331.53L440.74 293.85V290.79L375.26 327.79C373.26 328.95 371.57 328.01 371.58 325.67L371.63 318.31C371.704 317.035 372.078 315.796 372.721 314.692C373.364 313.589 374.258 312.653 375.33 311.96L440.73 274.96V271.49L374.42 309.11Z" fill="#2AC38D"/>
<path opacity="0.5" d="M374.42 309.11C372.635 310.264 371.147 311.824 370.08 313.663C369.013 315.501 368.396 317.567 368.28 319.69V328C368.28 331.89 371.03 333.47 374.42 331.53L440.74 293.85V290.79L375.26 327.79C373.26 328.95 371.57 328.01 371.58 325.67L371.63 318.31C371.704 317.035 372.078 315.796 372.721 314.692C373.364 313.589 374.258 312.653 375.33 311.96L440.73 274.96V271.49L374.42 309.11Z" fill="black"/>
<path d="M440.74 271.44L333.87 210.11L267.56 247.78C265.774 248.934 264.285 250.494 263.216 252.332C262.148 254.171 261.529 256.236 261.41 258.36V266.63C261.41 268.57 262.09 269.94 263.21 270.58L370.08 331.9C368.96 331.26 368.28 329.9 368.28 327.96V319.68C368.398 317.557 369.016 315.493 370.083 313.655C371.15 311.816 372.636 310.255 374.42 309.1L440.74 271.44Z" fill="#2AC38D"/>
<path opacity="0.35" d="M440.74 271.44L333.87 210.11L267.56 247.78C265.774 248.934 264.285 250.494 263.216 252.332C262.148 254.171 261.529 256.236 261.41 258.36V266.63C261.41 268.57 262.09 269.94 263.21 270.58L370.08 331.9C368.96 331.26 368.28 329.9 368.28 327.96V319.68C368.398 317.557 369.016 315.493 370.083 313.655C371.15 311.816 372.636 310.255 374.42 309.1L440.74 271.44Z" fill="black"/>
<path d="M370.07 313.66C368.97 315.474 368.351 317.539 368.27 319.66V328C368.27 329.94 368.95 331.3 370.07 331.94L263.21 270.58C262.09 269.94 261.41 268.58 261.41 266.63V258.36C261.491 256.239 262.11 254.174 263.21 252.36L370.07 313.66Z" fill="#2AC38D"/>
<path opacity="0.45" d="M370.07 313.66C368.97 315.474 368.351 317.539 368.27 319.66V328C368.27 329.94 368.95 331.3 370.07 331.94L263.21 270.58C262.09 269.94 261.41 268.58 261.41 266.63V258.36C261.491 256.239 262.11 254.174 263.21 252.36L370.07 313.66Z" fill="black"/>
<path d="M277.65 260.54C275.65 269.19 275.65 272.54 277.65 278.91L282.73 281.85C280.73 275.51 280.73 272.13 282.73 263.48L277.65 260.54Z" fill="#2AC38D"/>
<path d="M347.74 300.82C345.74 309.47 345.74 312.74 347.74 319.08L352.83 322.02C350.83 315.67 350.83 312.4 352.83 303.76L347.74 300.82Z" fill="#2AC38D"/>
<path d="M454.79 270.41L385.2 309.71L278.33 248.38L347.91 209.08L454.79 270.41Z" fill="#2AC38D"/>
<path opacity="0.4" d="M454.79 270.41L385.2 309.71L278.33 248.38L347.91 209.08L454.79 270.41Z" fill="black"/>
<path d="M384.44 306.83L451.69 268.63C450.02 263.89 450.14 261.77 452.03 255.46L385.2 293.27C385.2 293.27 384 293.86 384.44 306.83Z" fill="#F5F5F5"/>
<path d="M388.46 288.09C386.674 289.244 385.186 290.805 384.117 292.643C383.049 294.482 382.429 296.547 382.31 298.67V307.62C382.31 311.51 385.06 313.09 388.46 311.14L454.78 273.47V270.41L389.3 307.41C387.3 308.58 385.61 307.63 385.61 305.3L385.67 297.3C385.742 296.026 386.114 294.787 386.755 293.683C387.396 292.58 388.289 291.643 389.36 290.95L454.77 253.95V250.48L388.46 288.09Z" fill="#2AC38D"/>
<path opacity="0.25" d="M388.46 288.09C386.674 289.244 385.186 290.805 384.117 292.643C383.049 294.482 382.429 296.547 382.31 298.67V307.62C382.31 311.51 385.06 313.09 388.46 311.14L454.78 273.47V270.41L389.3 307.41C387.3 308.58 385.61 307.63 385.61 305.3L385.67 297.3C385.742 296.026 386.114 294.787 386.755 293.683C387.396 292.58 388.289 291.643 389.36 290.95L454.77 253.95V250.48L388.46 288.09Z" fill="black"/>
<path d="M454.78 250.43L347.91 189.1L281.59 226.77C279.804 227.924 278.317 229.484 277.25 231.323C276.183 233.162 275.566 235.227 275.45 237.35V246.35C275.45 248.29 276.13 249.65 277.25 250.29L384.12 311.62C383 310.98 382.32 309.62 382.32 307.67V298.72C382.436 296.597 383.053 294.532 384.12 292.693C385.187 290.854 386.674 289.294 388.46 288.14L454.78 250.43Z" fill="#2AC38D"/>
<path d="M384.11 292.65C383.008 294.464 382.388 296.529 382.31 298.65V307.6C382.31 309.54 382.99 310.91 384.11 311.55L277.25 250.24C276.13 249.6 275.45 248.24 275.45 246.3V237.3C275.528 235.179 276.148 233.114 277.25 231.3L384.11 292.65Z" fill="#2AC38D"/>
<path opacity="0.15" d="M384.11 292.65C383.008 294.464 382.388 296.529 382.31 298.65V307.6C382.31 309.54 382.99 310.91 384.11 311.55L277.25 250.24C276.13 249.6 275.45 248.24 275.45 246.3V237.3C275.528 235.179 276.148 233.114 277.25 231.3L384.11 292.65Z" fill="black"/>
<path d="M291.68 239.52C289.68 248.17 289.68 252.24 291.68 258.58L296.77 261.52C294.77 255.17 294.77 251.11 296.77 242.46L291.68 239.52Z" fill="#2AC38D"/>
<path d="M361.78 279.85C359.78 288.5 359.78 292.42 361.78 298.76L366.87 301.7C364.87 295.36 364.87 291.41 366.87 282.76L361.78 279.85Z" fill="#2AC38D"/>
<g opacity="0.4">
<path d="M291.68 239.52C289.68 248.17 289.68 252.24 291.68 258.58L296.77 261.52C294.77 255.17 294.77 251.11 296.77 242.46L291.68 239.52Z" fill="white"/>
<path d="M361.78 279.85C359.78 288.5 359.78 292.42 361.78 298.76L366.87 301.7C364.87 295.36 364.87 291.41 366.87 282.76L361.78 279.85Z" fill="white"/>
</g>
<path d="M78.5 378.41L186.59 439.82L343.37 349.82L235.29 288.41L78.5 378.41Z" fill="#2AC38D"/>
<path opacity="0.4" d="M78.5 378.41L186.59 439.82L343.37 349.82L235.29 288.41L78.5 378.41Z" fill="black"/>
<path d="M187.4 436.75L81.8099 376.51C83.5999 371.44 83.4599 369.17 81.4399 362.43L186.59 422.26C186.59 422.26 187.89 422.89 187.4 436.75Z" fill="#F5F5F5"/>
<path d="M183.1 416.72C185.009 417.952 186.599 419.617 187.741 421.581C188.883 423.545 189.544 425.752 189.67 428.02V437.58C189.67 441.75 186.73 443.43 183.1 441.35L78.5098 381.68V378.41L182.21 437.32C184.38 438.57 186.14 437.56 186.14 435.06L186.08 426.47C186.004 425.109 185.607 423.786 184.922 422.608C184.237 421.429 183.284 420.43 182.14 419.69L78.5098 360.75V357.05L183.1 416.72Z" fill="#2AC38D"/>
<path opacity="0.3" d="M183.1 416.72C185.009 417.952 186.599 419.617 187.741 421.581C188.883 423.545 189.544 425.752 189.67 428.02V437.58C189.67 441.75 186.73 443.43 183.1 441.35L78.5098 381.68V378.41L182.21 437.32C184.38 438.57 186.14 437.56 186.14 435.06L186.08 426.47C186.004 425.109 185.607 423.786 184.922 422.608C184.237 421.429 183.284 420.43 182.14 419.69L78.5098 360.75V357.05L183.1 416.72Z" fill="black"/>
<path d="M78.5098 357.05L235.29 267.05L339.88 326.72C341.789 327.952 343.379 329.617 344.521 331.581C345.663 333.545 346.324 335.752 346.45 338.02V347.58C346.45 349.66 345.72 351.12 344.53 351.8L187.74 441.8C188.93 441.12 189.66 439.65 189.66 437.58V428C189.534 425.733 188.874 423.527 187.734 421.564C186.594 419.6 185.006 417.933 183.1 416.7L78.5098 357.05Z" fill="#2AC38D"/>
<path opacity="0.2" d="M78.5098 357.05L235.29 267.05L339.88 326.72C341.789 327.952 343.379 329.617 344.521 331.581C345.663 333.545 346.324 335.752 346.45 338.02V347.58C346.45 349.66 345.72 351.12 344.53 351.8L187.74 441.8C188.93 441.12 189.66 439.65 189.66 437.58V428C189.534 425.733 188.874 423.527 187.734 421.564C186.594 419.6 185.006 417.933 183.1 416.7L78.5098 357.05Z" fill="black"/>
<path d="M187.75 421.59C188.93 423.533 189.591 425.747 189.67 428.02V437.59C189.67 439.66 188.94 441.13 187.75 441.81L344.54 351.81C345.73 351.13 346.46 349.67 346.46 347.59V338C346.377 335.728 345.716 333.515 344.54 331.57L187.75 421.59Z" fill="#2AC38D"/>
<path d="M187.75 421.59C188.932 423.533 189.593 425.747 189.67 428.02V437.59C189.67 439.66 188.94 441.12 187.75 441.81L344.53 351.81C345.73 351.13 346.45 349.66 346.46 347.59V338C346.383 335.727 345.722 333.513 344.54 331.57L187.75 421.59Z" fill="#2AC38D"/>
<path d="M329.1 340.36C331.23 349.6 331.2 353.94 329.1 360.72L323.66 363.86C325.76 357.08 325.79 352.74 323.66 343.5L329.1 340.36Z" fill="#2AC38D"/>
<path d="M211.61 407.89C213.74 417.13 213.71 421.34 211.61 428.12L206.18 431.23C208.27 424.45 208.3 420.23 206.18 411.01L211.61 407.89Z" fill="#2AC38D"/>
<g opacity="0.4">
<path d="M329.1 340.36C331.23 349.6 331.2 353.94 329.1 360.72L323.66 363.86C325.76 357.08 325.79 352.74 323.66 343.5L329.1 340.36Z" fill="white"/>
<path d="M211.61 407.89C213.74 417.13 213.71 421.34 211.61 428.12L206.18 431.23C208.27 424.45 208.3 420.23 206.18 411.01L211.61 407.89Z" fill="white"/>
</g>
<path d="M64.6499 357.64L172.74 419.05L329.52 329.05L221.44 267.64L64.6499 357.64Z" fill="#2AC38D"/>
<path opacity="0.2" d="M64.6499 357.64L172.74 419.05L329.52 329.05L221.44 267.64L64.6499 357.64Z" fill="white"/>
<path d="M173.55 416L67.9999 355.74C69.7899 350.67 69.6499 349.13 67.6299 342.39L172.78 402.21C172.78 402.21 174 402.12 173.55 416Z" fill="#F5F5F5"/>
<path d="M169.25 396.68C171.158 397.912 172.749 399.578 173.891 401.542C175.033 403.506 175.694 405.712 175.82 407.98V416.81C175.82 420.98 172.88 422.66 169.25 420.58L64.6597 360.91V357.64L168.36 416.55C170.53 417.8 172.29 416.79 172.29 414.29L172.23 406.43C172.153 405.068 171.757 403.743 171.072 402.564C170.388 401.384 169.434 400.382 168.29 399.64L64.6597 340.71V337L169.25 396.68Z" fill="#2AC38D"/>
<path opacity="0.4" d="M169.25 396.68C171.158 397.912 172.749 399.578 173.891 401.542C175.033 403.506 175.694 405.712 175.82 407.98V416.81C175.82 420.98 172.88 422.66 169.25 420.58L64.6597 360.91V357.64L168.36 416.55C170.53 417.8 172.29 416.79 172.29 414.29L172.23 406.43C172.153 405.068 171.757 403.743 171.072 402.564C170.388 401.384 169.434 400.382 168.29 399.64L64.6597 340.71V337L169.25 396.68Z" fill="white"/>
<path d="M64.6499 337L221.44 247L326 306.68C327.916 307.912 329.513 309.579 330.66 311.547C331.807 313.515 332.472 315.726 332.6 318V326.83C332.6 328.91 331.87 330.37 330.67 331.05L173.89 421C175.08 420.31 175.81 418.85 175.81 416.78V408C175.684 405.731 175.024 403.525 173.884 401.559C172.744 399.594 171.157 397.926 169.25 396.69L64.6499 337Z" fill="#2AC38D"/>
<path opacity="0.85" d="M64.6499 337L221.44 247L326 306.68C327.916 307.912 329.513 309.579 330.66 311.547C331.807 313.515 332.472 315.726 332.6 318V326.83C332.6 328.91 331.87 330.37 330.67 331.05L173.89 421C175.08 420.31 175.81 418.85 175.81 416.78V408C175.684 405.731 175.024 403.525 173.884 401.559C172.744 399.594 171.157 397.926 169.25 396.69L64.6499 337Z" fill="white"/>
<path d="M173.9 401.55C175.082 403.493 175.743 405.707 175.82 407.98V416.82C175.82 418.89 175.09 420.35 173.9 421.04L330.68 331.04C331.88 330.36 332.61 328.9 332.61 326.82V318C332.529 315.726 331.865 313.512 330.68 311.57L173.9 401.55Z" fill="#2AC38D"/>
<path opacity="0.6" d="M173.9 401.55C175.082 403.493 175.743 405.707 175.82 407.98V416.82C175.82 418.89 175.09 420.35 173.9 421.04L330.68 331.04C331.88 330.36 332.61 328.9 332.61 326.82V318C332.529 315.726 331.865 313.512 330.68 311.57L173.9 401.55Z" fill="white"/>
<path d="M315.25 320.32C317.38 329.56 317.35 333.17 315.25 339.95L309.81 343.09C311.91 336.31 311.94 332.7 309.81 323.45L315.25 320.32Z" fill="white"/>
<path d="M197.76 387.82C199.89 397.06 199.86 400.56 197.76 407.34L192.32 410.47C194.42 403.7 194.45 400.2 192.32 390.96L197.76 387.82Z" fill="white"/>
<path d="M307.85 195.93V236.63C307.85 242.49 313 248.35 323.22 252.82C343.7 261.82 376.91 261.82 397.39 252.82C407.64 248.33 412.75 242.46 412.75 236.58V195.93C412.87 189.93 407.75 184.03 397.4 179.49C376.92 170.49 343.71 170.49 323.23 179.49C312.85 184 307.74 190 307.86 195.93H307.85Z" fill="#37474F"/>
<path d="M307.86 195.93C307.74 189.93 312.86 184.03 323.22 179.49C343.7 170.49 376.91 170.49 397.39 179.49C407.75 184.03 412.86 189.98 412.74 195.93V214.52C412.74 209.91 408.65 206.61 396.54 211.07C376.69 218.38 365.54 230.45 345.3 236.42C328.56 241.35 313.73 239.42 307.84 233.29V195.93H307.86Z" fill="#263238"/>
<path d="M307.85 217.47V222.09C307.85 227.94 313 233.81 323.22 238.27C343.7 247.27 376.91 247.27 397.39 238.27C407.71 233.76 412.82 227.82 412.75 221.9V217.43C412.75 223.3 407.64 229.17 397.39 233.67C376.91 242.67 343.7 242.67 323.22 233.67C313 229.19 307.88 223.34 307.85 217.47Z" fill="#2AC38D"/>
<path d="M442.71 182.95L360.3 144.02L277.88 182.95V189.44L360.3 224.05L442.71 189.44V182.95Z" fill="#37474F"/>
<path opacity="0.2" d="M360.3 224.05V217.56L442.71 182.95V189.44L360.3 224.05Z" fill="#2AC38D"/>
<path opacity="0.2" d="M360.3 217.56L441.53 184.88L442.71 189.44V182.95L360.3 217.56Z" fill="#DE002F"/>
<path d="M360.3 144.02L277.88 182.95L360.3 217.56L442.71 182.95L360.3 144.02Z" fill="#455A64"/>
<path d="M316.11 214.83C316.11 214.29 315.85 201.64 317.11 198.04C318.37 194.44 323.05 190.79 332.82 185.83C339.805 182.304 347.169 179.587 354.77 177.73L355.17 179.53C347.718 181.348 340.498 184.012 333.65 187.47C324.47 192.13 319.91 195.58 318.86 198.64C317.92 201.37 317.91 211.22 317.99 214.79L316.11 214.83Z" fill="#2AC38D"/>
<path opacity="0.8" d="M316.11 214.83C316.11 214.29 315.85 201.64 317.11 198.04C318.37 194.44 323.05 190.79 332.82 185.83C339.805 182.304 347.169 179.587 354.77 177.73L355.17 179.53C347.718 181.348 340.498 184.012 333.65 187.47C324.47 192.13 319.91 195.58 318.86 198.64C317.92 201.37 317.91 211.22 317.99 214.79L316.11 214.83Z" fill="white"/>
<path d="M326.82 253.52C326.82 244.05 325.25 227.09 320.28 222.16H313.73C308.73 227.09 307.2 244.05 307.2 253.52C307.2 254.97 308.15 256.42 310.07 257.52C312.219 258.611 314.595 259.18 317.005 259.18C319.415 259.18 321.791 258.611 323.94 257.52C325.86 256.41 326.82 254.96 326.82 253.52Z" fill="#2AC38D"/>
<path opacity="0.5" d="M326.82 253.52C326.82 244.05 325.25 227.09 320.28 222.16H313.73C308.73 227.09 307.2 244.05 307.2 253.52C307.2 254.97 308.15 256.42 310.07 257.52C312.219 258.611 314.595 259.18 317.005 259.18C319.415 259.18 321.791 258.611 323.94 257.52C325.86 256.41 326.82 254.96 326.82 253.52Z" fill="white"/>
<path opacity="0.6" d="M313.73 222.16C313.336 222.566 312.982 223.008 312.67 223.48C313.92 224.8 315.84 225.14 317.75 225.29C319.66 225.44 321.65 226.99 322.5 234.76C323.35 242.53 325 252.45 321.92 255.46C318.84 258.47 311.97 258.46 308.36 256.2C308.863 256.723 309.439 257.171 310.07 257.53C312.219 258.621 314.595 259.19 317.005 259.19C319.415 259.19 321.791 258.621 323.94 257.53C325.86 256.42 326.82 254.97 326.82 253.53C326.82 244.06 325.25 227.1 320.28 222.17L313.73 222.16Z" fill="#2AC38D"/>
<path d="M321.92 218.71C321.92 219.684 321.631 220.635 321.09 221.444C320.549 222.254 319.78 222.884 318.881 223.256C317.981 223.629 316.991 223.725 316.037 223.535C315.082 223.344 314.205 222.875 313.518 222.185C312.83 221.496 312.362 220.619 312.173 219.664C311.985 218.709 312.084 217.719 312.457 216.82C312.831 215.921 313.464 215.154 314.274 214.614C315.084 214.075 316.037 213.788 317.01 213.79C317.656 213.79 318.295 213.917 318.891 214.165C319.488 214.412 320.029 214.775 320.486 215.232C320.942 215.689 321.303 216.231 321.549 216.828C321.795 217.425 321.921 218.064 321.92 218.71Z" fill="#2AC38D"/>
<path opacity="0.5" d="M321.92 218.71C321.92 219.684 321.631 220.635 321.09 221.444C320.549 222.254 319.78 222.884 318.881 223.256C317.981 223.629 316.991 223.725 316.037 223.535C315.082 223.344 314.205 222.875 313.518 222.185C312.83 221.496 312.362 220.619 312.173 219.664C311.985 218.709 312.084 217.719 312.457 216.82C312.831 215.921 313.464 215.154 314.274 214.614C315.084 214.075 316.037 213.788 317.01 213.79C317.656 213.79 318.295 213.917 318.891 214.165C319.488 214.412 320.029 214.775 320.486 215.232C320.942 215.689 321.303 216.231 321.549 216.828C321.795 217.425 321.921 218.064 321.92 218.71Z" fill="white"/>
<path opacity="0.4" d="M319.86 214.72C320.22 215.211 320.475 215.771 320.611 216.365C320.746 216.959 320.758 217.574 320.647 218.173C320.535 218.771 320.302 219.341 319.962 219.846C319.622 220.351 319.182 220.781 318.67 221.11C317.683 221.757 316.493 222.019 315.326 221.846C314.159 221.672 313.096 221.076 312.34 220.17C312.571 220.913 312.976 221.589 313.521 222.144C314.066 222.699 314.735 223.117 315.473 223.362C316.211 223.607 316.997 223.673 317.766 223.554C318.534 223.436 319.263 223.136 319.893 222.679C320.523 222.223 321.035 221.623 321.387 220.93C321.739 220.236 321.921 219.469 321.918 218.691C321.914 217.914 321.726 217.148 321.368 216.457C321.01 215.767 320.493 215.171 319.86 214.72Z" fill="#2AC38D"/>
<path d="M353.67 175.38C353.726 174.799 353.936 174.243 354.276 173.769C354.617 173.294 355.077 172.919 355.61 172.68C357.062 171.945 358.667 171.562 360.295 171.562C361.923 171.562 363.527 171.945 364.98 172.68C365.513 172.919 365.973 173.294 366.314 173.769C366.654 174.243 366.863 174.799 366.92 175.38V177.55C366.864 178.131 366.656 178.688 366.315 179.162C365.974 179.636 365.513 180.012 364.98 180.25C363.527 180.985 361.923 181.367 360.295 181.367C358.667 181.367 357.062 180.985 355.61 180.25C355.077 180.012 354.616 179.636 354.275 179.162C353.934 178.688 353.725 178.131 353.67 177.55V175.38Z" fill="#263238"/>
<path d="M365 178.09C367.59 176.59 367.59 174.17 365 172.68C363.547 171.945 361.943 171.563 360.315 171.562C358.687 171.563 357.082 171.945 355.63 172.68C353.05 174.17 353.05 176.59 355.63 178.09C357.082 178.825 358.687 179.207 360.315 179.207C361.943 179.207 363.547 178.825 365 178.09Z" fill="#37474F"/>
<path d="M369.1 364.59C369.192 366.194 369.66 367.753 370.466 369.143C371.272 370.533 372.394 371.713 373.74 372.59C374.523 373.108 375.474 373.308 376.4 373.15C376.252 373.305 376.084 373.44 375.9 373.55L377.01 372.91H377.08L377.24 372.8C377.314 372.745 377.385 372.685 377.45 372.62L377.57 372.5L377.68 372.37C377.838 372.159 377.966 371.926 378.06 371.68C378.091 371.605 378.118 371.528 378.14 371.45C378.149 371.414 378.149 371.376 378.14 371.34C378.165 371.275 378.181 371.208 378.19 371.14C378.281 370.76 378.325 370.37 378.32 369.98C378.229 368.377 377.762 366.818 376.958 365.428C376.154 364.039 375.034 362.858 373.69 361.98C373.066 361.585 372.348 361.364 371.61 361.34H371.32L371.05 361.39H370.89H370.8L370.61 361.47L370.43 361.56L369.43 362.11C369.588 362.029 369.756 361.969 369.93 361.93C369.317 362.674 369.019 363.629 369.1 364.59Z" fill="#2AC38D"/>
<path d="M249.23 431.6L255.76 443L256.87 442.36L375.87 373.61C376.054 373.5 376.222 373.365 376.37 373.21C376.981 372.487 377.29 371.555 377.23 370.61C377.138 369.006 376.669 367.447 375.864 366.057C375.058 364.667 373.936 363.487 372.59 362.61C371.967 362.222 371.253 362.005 370.52 361.98C370.322 361.979 370.124 361.999 369.93 362.04C369.756 362.079 369.588 362.139 369.43 362.22H369.35L249.23 431.6Z" fill="#F0F0F0"/>
<path d="M252.5 431.93C249.94 430.45 247.87 431.65 247.87 434.6C247.96 436.203 248.426 437.762 249.231 439.152C250.035 440.542 251.155 441.723 252.5 442.6C255.06 444.08 257.14 442.88 257.14 439.92C257.047 438.318 256.579 436.759 255.773 435.371C254.967 433.983 253.846 432.804 252.5 431.93Z" fill="#2AC38D"/>
<path d="M318.3 396.61L318.45 396.52C318.63 396.461 318.821 396.445 319.009 396.473C319.196 396.501 319.374 396.572 319.53 396.68C320.009 396.993 320.407 397.414 320.694 397.909C320.98 398.404 321.147 398.959 321.18 399.53C321.195 399.715 321.167 399.901 321.1 400.074C321.032 400.248 320.926 400.403 320.79 400.53L320.59 400.65L250.15 441.31L245.52 438.63L318.3 396.61Z" fill="#455A64"/>
<path d="M256.72 437.51L250.18 441.29L245.55 438.61L254.41 433.5C255.451 434.661 256.238 436.027 256.72 437.51Z" fill="#37474F"/>
<path d="M240.21 441.9L245.58 436L245.72 435.84C246.094 435.535 246.562 435.369 247.045 435.369C247.527 435.369 247.995 435.535 248.37 435.84C249.322 436.462 250.114 437.299 250.682 438.284C251.25 439.269 251.578 440.374 251.64 441.51C251.703 441.971 251.615 442.44 251.39 442.847C251.165 443.255 250.814 443.578 250.39 443.77L250.18 443.82L242.31 445.53C242.014 445.575 241.712 445.511 241.46 445.35C241.026 445.065 240.665 444.683 240.406 444.233C240.147 443.783 239.998 443.278 239.97 442.76C239.934 442.453 240.02 442.144 240.21 441.9Z" fill="#2AC38D"/>
<path opacity="0.1" d="M240.21 441.9L245.58 436L245.72 435.84C246.094 435.535 246.562 435.369 247.045 435.369C247.527 435.369 247.995 435.535 248.37 435.84C249.322 436.462 250.114 437.299 250.682 438.284C251.25 439.269 251.578 440.374 251.64 441.51C251.703 441.971 251.615 442.44 251.39 442.847C251.165 443.255 250.814 443.578 250.39 443.77L250.18 443.82L242.31 445.53C242.014 445.575 241.712 445.511 241.46 445.35C241.026 445.065 240.665 444.683 240.406 444.233C240.147 443.783 239.998 443.278 239.97 442.76C239.934 442.453 240.02 442.144 240.21 441.9Z" fill="black"/>
<path d="M239.91 442.76C239.939 443.278 240.09 443.781 240.35 444.23C240.611 444.678 240.974 445.059 241.41 445.34C241.658 445.502 241.957 445.566 242.25 445.52L246.25 444.66C246.87 444.52 247.25 443.93 247.25 442.99C247.206 442.161 246.968 441.355 246.555 440.635C246.141 439.916 245.564 439.304 244.87 438.85C244.598 438.635 244.261 438.518 243.915 438.518C243.568 438.518 243.232 438.635 242.96 438.85L242.85 438.97L240.19 441.89C240.086 442.008 240.008 442.146 239.96 442.296C239.911 442.446 239.894 442.603 239.91 442.76Z" fill="#2AC38D"/>
<path opacity="0.1" d="M241.4 441.89C240.58 441.42 239.91 441.8 239.91 442.75C239.938 443.268 240.087 443.773 240.346 444.222C240.605 444.672 240.966 445.055 241.4 445.34C242.23 445.81 242.89 445.43 242.89 444.48C242.863 443.961 242.713 443.456 242.455 443.006C242.196 442.556 241.834 442.174 241.4 441.89Z" fill="black"/>
<path d="M359.45 372.82C359.635 372.731 359.841 372.695 360.045 372.714C360.25 372.733 360.445 372.808 360.61 372.93C361.088 373.24 361.486 373.659 361.771 374.153C362.056 374.647 362.22 375.201 362.25 375.77C362.273 375.976 362.24 376.185 362.154 376.373C362.067 376.562 361.931 376.723 361.76 376.84L320.82 400.51C320.956 400.384 321.062 400.228 321.13 400.055C321.197 399.882 321.225 399.695 321.21 399.51C321.177 398.939 321.01 398.384 320.724 397.889C320.437 397.394 320.039 396.973 319.56 396.66C319.404 396.552 319.226 396.481 319.039 396.454C318.851 396.426 318.66 396.442 318.48 396.5L359.45 372.82Z" fill="#FAFAFA"/>
<path d="M359 373.88C359.034 374.448 359.199 375.001 359.484 375.494C359.769 375.987 360.165 376.407 360.64 376.72C360.804 376.839 360.998 376.912 361.2 376.931C361.402 376.951 361.606 376.916 361.79 376.83C361.96 376.715 362.096 376.555 362.182 376.368C362.269 376.181 362.303 375.974 362.28 375.77C362.25 375.201 362.086 374.646 361.801 374.153C361.516 373.659 361.118 373.24 360.64 372.93C360.483 372.792 360.286 372.706 360.078 372.686C359.869 372.665 359.66 372.711 359.479 372.816C359.298 372.921 359.154 373.08 359.068 373.271C358.982 373.462 358.958 373.675 359 373.88Z" fill="#F5F5F5"/>
<path d="M362.64 366.86H362.7H362.77L369.61 362.86L369.77 362.77C370.232 362.591 370.732 362.529 371.224 362.59C371.716 362.651 372.185 362.833 372.59 363.12C373.805 363.911 374.816 364.979 375.541 366.235C376.265 367.492 376.683 368.901 376.76 370.35C376.815 370.869 376.729 371.393 376.513 371.868C376.297 372.343 375.957 372.751 375.53 373.05L368.61 377.05C368.14 377.246 367.629 377.319 367.123 377.263C366.618 377.207 366.135 377.024 365.72 376.73C364.506 375.936 363.496 374.868 362.772 373.612C362.047 372.356 361.629 370.948 361.55 369.5C361.498 369.004 361.57 368.503 361.76 368.042C361.951 367.581 362.253 367.175 362.64 366.86Z" fill="#2AC38D"/>
<path opacity="0.05" d="M362.64 366.86H362.7H362.77L369.61 362.86L369.77 362.77C370.232 362.591 370.732 362.529 371.224 362.59C371.716 362.651 372.185 362.833 372.59 363.12C373.805 363.911 374.816 364.979 375.541 366.235C376.265 367.492 376.683 368.901 376.76 370.35C376.815 370.869 376.729 371.393 376.513 371.868C376.297 372.343 375.957 372.751 375.53 373.05L368.61 377.05C368.14 377.246 367.629 377.319 367.123 377.263C366.618 377.207 366.135 377.024 365.72 376.73C364.506 375.936 363.496 374.868 362.772 373.612C362.047 372.356 361.629 370.948 361.55 369.5C361.498 369.004 361.57 368.503 361.76 368.042C361.951 367.581 362.253 367.175 362.64 366.86Z" fill="black"/>
<path opacity="0.1" d="M365.67 367.1C363.37 365.77 361.5 366.84 361.5 369.5C361.579 370.947 361.998 372.356 362.722 373.612C363.447 374.868 364.456 375.936 365.67 376.73C367.97 378.06 369.84 376.98 369.84 374.32C369.761 372.873 369.342 371.466 368.618 370.211C367.893 368.957 366.883 367.891 365.67 367.1Z" fill="black"/>
<path d="M238 444.39L240.83 442.69C240.913 442.639 241.008 442.613 241.105 442.613C241.202 442.613 241.297 442.639 241.38 442.69C241.603 442.837 241.788 443.033 241.922 443.264C242.055 443.495 242.133 443.754 242.15 444.02C242.159 444.115 242.143 444.21 242.102 444.296C242.062 444.383 241.999 444.456 241.92 444.51L239.1 446.22C238.94 446.305 238.761 446.35 238.58 446.35C238.343 446.353 238.112 446.278 237.922 446.138C237.733 445.997 237.594 445.798 237.528 445.571C237.462 445.344 237.473 445.101 237.558 444.881C237.643 444.66 237.798 444.474 238 444.35V444.39Z" fill="#455A64"/>
<path d="M237.85 444.52L238 444.4C238.082 444.373 238.169 444.366 238.254 444.38C238.34 444.394 238.42 444.428 238.49 444.48C238.714 444.625 238.9 444.822 239.034 445.053C239.167 445.284 239.245 445.543 239.26 445.81C239.269 445.902 239.254 445.995 239.215 446.08C239.177 446.164 239.116 446.237 239.04 446.29H238.98H238.93C238.819 446.335 238.699 446.355 238.58 446.35C238.291 446.35 238.013 446.235 237.809 446.03C237.605 445.826 237.49 445.549 237.49 445.26C237.494 445.118 237.528 444.979 237.59 444.851C237.652 444.723 237.741 444.61 237.85 444.52Z" fill="#263238"/>
<path d="M419.59 367.56L438 364C438.118 363.975 438.24 363.988 438.35 364.038C438.46 364.087 438.551 364.17 438.611 364.274C438.671 364.378 438.696 364.499 438.684 364.618C438.671 364.738 438.621 364.851 438.54 364.94L426 379L419.59 367.56Z" fill="#FFA8A7"/>
<path d="M438.51 364.89C438.571 364.801 438.605 364.698 438.609 364.591C438.613 364.484 438.587 364.378 438.534 364.285C438.481 364.192 438.402 364.116 438.308 364.066C438.214 364.015 438.107 363.993 438 364L434.41 364.71C434.905 365.013 435.305 365.447 435.567 365.965C435.828 366.482 435.94 367.062 435.89 367.64V367.96L438.51 364.89Z" fill="#263238"/>
<path d="M335.69 430.75L337.19 429.89L339.01 428.89L426 379C426.609 376.976 426.427 374.795 425.49 372.9C424.19 369.98 421.66 367.68 419.56 367.54L332.56 417.36L329.09 419.36C331.46 418.21 338 429.55 335.69 430.75Z" fill="#455A64"/>
<path d="M341.42 427.48L344.78 425.55C345.78 425.02 345.2 422.55 344.04 420.07C342.51 416.73 339.49 413.49 338.18 414.18L335.7 415.6L334.83 416.13C336.14 415.43 339.16 418.67 340.69 422.02C341.8 424.43 342.36 426.78 341.52 427.41C341.509 427.428 341.495 427.444 341.478 427.456C341.46 427.468 341.441 427.476 341.42 427.48Z" fill="#EBEBEB"/>
<path d="M342.26 427C344.56 425.78 337.96 414.42 335.66 415.64L332.3 417.57C334.6 416.35 341.2 427.71 338.89 428.93L342.26 427Z" fill="#2AC38D"/>
<path d="M335.69 430.75L339.01 428.85C341.28 427.67 335.01 416.65 332.61 417.38L332.47 417.43L329.14 419.37C331.46 418.21 338 429.55 335.69 430.75Z" fill="#EBEBEB"/>
<path opacity="0.15" d="M438.59 364.27L438 364L424.66 371.3L333.89 423.3C333.76 423.1 333.65 423.08 333.57 423.22C335.57 426.28 337.01 430.13 335.72 430.8L337.22 429.94L339.04 428.94L426 379L438.47 364.88C438.547 364.801 438.599 364.701 438.62 364.593C438.642 364.485 438.631 364.372 438.59 364.27Z" fill="black"/>
<path d="M321.6 438.81L335.69 430.75C336.69 430.24 336.13 427.83 334.99 425.32C333.47 421.97 330.46 418.7 329.14 419.37L315 427.47C312.19 429.09 314.77 435.19 317.9 437.91C319.06 438.94 320.36 439.39 321.6 438.81Z" fill="#F28F8F"/>
<path opacity="0.1" d="M322.44 434.44C321.63 431.27 319.06 428.15 316.69 427.49C316.342 427.361 315.968 427.319 315.6 427.367C315.232 427.416 314.882 427.554 314.58 427.77C312.46 429.77 314.93 435.33 317.89 437.91C318.335 438.407 318.918 438.761 319.564 438.926C320.21 439.092 320.891 439.062 321.52 438.84C322.58 438.22 323 436.6 322.44 434.44Z" fill="black"/>
<path d="M262.64 94.69L277.79 86.77C277.79 86.77 287.4 89.23 303.46 88.28C327.21 86.87 341.07 76.84 337.54 62.76C333.92 48.33 318.04 42.66 289.73 43.76C254.32 45.14 245.73 69.15 266.87 83.34L262.64 94.69Z" fill="#2AC38D"/>
<path opacity="0.7" d="M262.64 94.69L277.79 86.77C277.79 86.77 287.4 89.23 303.46 88.28C327.21 86.87 341.07 76.84 337.54 62.76C333.92 48.33 318.04 42.66 289.73 43.76C254.32 45.14 245.73 69.15 266.87 83.34L262.64 94.69Z" fill="white"/>
<path d="M278.88 70.3198C280.968 70.3198 282.66 68.6274 282.66 66.5398C282.66 64.4521 280.968 62.7598 278.88 62.7598C276.792 62.7598 275.1 64.4521 275.1 66.5398C275.1 68.6274 276.792 70.3198 278.88 70.3198Z" fill="white"/>
<path d="M296.64 70.3198C298.728 70.3198 300.42 68.6274 300.42 66.5398C300.42 64.4521 298.728 62.7598 296.64 62.7598C294.553 62.7598 292.86 64.4521 292.86 66.5398C292.86 68.6274 294.553 70.3198 296.64 70.3198Z" fill="white"/>
<path d="M314.4 70.3198C316.488 70.3198 318.18 68.6274 318.18 66.5398C318.18 64.4521 316.488 62.7598 314.4 62.7598C312.312 62.7598 310.62 64.4521 310.62 66.5398C310.62 68.6274 312.312 70.3198 314.4 70.3198Z" fill="white"/>
<path d="M72.27 323.28C72.27 325.86 74.21 327.52 76.6 328.9L174.45 385.4C175.79 386.081 177.272 386.436 178.775 386.436C180.278 386.436 181.76 386.081 183.1 385.4L341 294.26C343.39 292.88 345.33 291.1 345.33 288.52C345.33 285.94 343.39 284.33 341.01 282.95L243.1 226.46C241.762 225.78 240.281 225.425 238.78 225.425C237.279 225.425 235.798 225.78 234.46 226.46L76.6 317.6C74.21 319 72.27 320.69 72.27 323.28Z" fill="#37474F"/>
<path d="M76.6001 322.59L174.45 379.08C175.79 379.761 177.272 380.116 178.775 380.116C180.278 380.116 181.76 379.761 183.1 379.08L341 287.94C343.38 286.57 343.38 284.33 341 282.94L243.1 226.46C241.762 225.78 240.282 225.425 238.78 225.425C237.279 225.425 235.798 225.78 234.46 226.46L76.6001 317.6C74.2101 319 74.2101 321.21 76.6001 322.59Z" fill="#455A64"/>
<path d="M178.78 380.131V386.431C177.275 386.472 175.784 386.128 174.45 385.431L76.6 328.901C74.21 327.521 72.27 325.901 72.27 323.281C72.27 320.851 74.01 319.161 76.27 317.791C74.41 319.101 74.38 321.301 76.61 322.591L174.46 379.091C175.788 379.8 177.275 380.158 178.78 380.131Z" fill="#263238"/>
<path d="M70.4004 318.27C68.5004 317.39 67.9904 315.89 67.8004 313.27L59.3204 189.17C59.3147 187.715 59.6787 186.281 60.3783 185.004C61.0779 183.727 62.0902 182.649 63.3204 181.87L221.18 90.6904C223.56 89.3104 225.31 88.5604 227.52 90.0704C229.73 91.5804 229.77 92.4104 229.95 95.0704L238.43 219.18C238.437 220.637 238.073 222.07 237.374 223.347C236.674 224.624 235.661 225.702 234.43 226.48L76.5804 317.61C74.1904 319 72.8404 319.39 70.4004 318.27Z" fill="#37474F"/>
<path d="M230 95.0604C229.82 92.4104 227.74 91.3804 225.35 92.7504L67.4404 183.9C66.1714 184.665 65.1344 185.761 64.4404 187.07L60.3604 185C61.0616 183.696 62.097 182.602 63.3604 181.83L221.17 90.6904C223.56 89.3104 225.32 88.5504 227.52 90.0704C229.72 91.5904 229.77 92.4104 230 95.0604Z" fill="#455A64"/>
<path d="M76.2602 317.79C74.0802 319.07 72.7102 319.23 70.4002 318.26C68.6302 317.52 67.9902 315.89 67.8102 313.26L59.3202 189.13C59.2598 187.69 59.6064 186.262 60.3202 185.01L64.4402 187.06C63.7339 188.315 63.3878 189.741 63.4402 191.18L71.9302 315.3C72.0902 317.76 74.2202 319 76.2602 317.79Z" fill="#263238"/>
<path d="M70.1803 188.64L222.1 101C223.53 100.17 224.78 100.79 224.89 102.38L232.8 218.16C232.805 219.033 232.588 219.892 232.17 220.658C231.752 221.424 231.147 222.072 230.41 222.54L78.4903 310.18C77.0603 311.01 75.8103 310.39 75.7003 308.8L67.7803 193C67.783 192.131 68.0042 191.276 68.4236 190.514C68.8429 189.752 69.447 189.108 70.1803 188.64Z" fill="black"/>
<path d="M70.1803 188.64C69.4441 189.11 68.8383 189.757 68.4188 190.523C67.9993 191.288 67.7797 192.147 67.7803 193.02L75.5703 306.87L225.75 220.19C226.487 219.722 227.092 219.075 227.51 218.309C227.928 217.543 228.145 216.683 228.14 215.81L220.36 102L70.1803 188.64Z" fill="#2AC38D"/>
<path opacity="0.8" d="M70.1803 188.64C69.4441 189.11 68.8383 189.757 68.4188 190.523C67.9993 191.288 67.7797 192.147 67.7803 193.02L75.5703 306.87L225.75 220.19C226.487 219.722 227.092 219.075 227.51 218.309C227.928 217.543 228.145 216.683 228.14 215.81L220.36 102L70.1803 188.64Z" fill="white"/>
<path d="M90.0002 318.331L235 234.581C235.632 234.26 236.331 234.093 237.04 234.093C237.749 234.093 238.448 234.26 239.08 234.581L244.37 237.581C244.615 237.666 244.827 237.826 244.977 238.037C245.127 238.248 245.208 238.501 245.208 238.761C245.208 239.02 245.127 239.273 244.977 239.484C244.827 239.695 244.615 239.855 244.37 239.941L99.2902 323.641C98.6579 323.961 97.959 324.128 97.2502 324.128C96.5413 324.128 95.8424 323.961 95.2102 323.641L89.9502 320.641C89.7196 320.545 89.5232 320.382 89.3869 320.173C89.2505 319.963 89.1804 319.718 89.1858 319.468C89.1912 319.219 89.2719 318.977 89.4172 318.774C89.5624 318.571 89.7656 318.416 90.0002 318.331Z" fill="#263238"/>
<path d="M104.19 326.73L249.26 243C249.821 242.679 250.45 242.493 251.096 242.458C251.742 242.423 252.388 242.541 252.98 242.8L290.74 264.6C291.67 265.14 291.52 266.1 290.39 266.75L145.49 350.39C144.929 350.711 144.301 350.897 143.655 350.934C143.009 350.97 142.364 350.856 141.77 350.6L103.85 328.9C102.91 328.34 103.07 327.38 104.19 326.73Z" fill="#263238"/>
<path d="M229.9 278.16L234.44 275.54C234.63 275.42 234.65 275.25 234.44 275.15L230.09 272.65C229.988 272.598 229.875 272.571 229.76 272.571C229.645 272.571 229.532 272.598 229.43 272.65L224.89 275.27C224.7 275.38 224.68 275.55 224.89 275.65L229.24 278.16C229.342 278.212 229.455 278.239 229.57 278.239C229.685 278.239 229.798 278.212 229.9 278.16ZM223.26 269.08L218.72 271.71C218.53 271.82 218.51 271.99 218.72 272.09L223 274.6C223.102 274.654 223.215 274.682 223.33 274.682C223.445 274.682 223.558 274.654 223.66 274.6L228.2 271.98C228.39 271.87 228.41 271.7 228.2 271.6L223.85 269.09C223.758 269.048 223.658 269.025 223.556 269.023C223.455 269.021 223.354 269.041 223.26 269.08ZM208.59 277.56L200.9 282C200.71 282.12 200.69 282.29 200.9 282.39L205.25 284.89C205.352 284.942 205.465 284.969 205.58 284.969C205.695 284.969 205.808 284.942 205.91 284.89L213.6 280.45C213.79 280.34 213.81 280.17 213.6 280.07L209.26 277.56C209.156 277.51 209.041 277.484 208.925 277.484C208.809 277.484 208.694 277.51 208.59 277.56ZM216.59 272.92L212.04 275.54C211.85 275.65 211.83 275.82 212.04 275.92L216.39 278.43C216.492 278.482 216.605 278.509 216.72 278.509C216.835 278.509 216.948 278.482 217.05 278.43L221.59 275.8C221.78 275.69 221.8 275.52 221.59 275.42L217.24 272.91C217.143 272.869 217.039 272.849 216.934 272.85C216.829 272.852 216.725 272.876 216.63 272.92H216.59ZM198.81 283.2L194.26 285.83C194.07 285.94 194.05 286.11 194.26 286.21L198.6 288.72C198.702 288.774 198.815 288.802 198.93 288.802C199.045 288.802 199.158 288.774 199.26 288.72L203.8 286.1C204 285.99 204.01 285.82 203.8 285.72L199.46 283.21C199.36 283.158 199.249 283.131 199.136 283.129C199.023 283.127 198.912 283.152 198.81 283.2ZM192.17 287L187.63 289.62C187.43 289.73 187.42 289.9 187.63 290L191.97 292.51C192.072 292.562 192.185 292.589 192.3 292.589C192.415 292.589 192.528 292.562 192.63 292.51L197.17 289.88C197.37 289.77 197.38 289.6 197.17 289.5L192.83 287C192.728 286.948 192.615 286.921 192.5 286.921C192.385 286.921 192.272 286.948 192.17 287ZM209.17 297.23L213.71 294.61C213.91 294.5 213.92 294.33 213.71 294.23L209.37 291.72C209.268 291.668 209.155 291.641 209.04 291.641C208.925 291.641 208.812 291.668 208.71 291.72L204.16 294.35C203.97 294.46 203.95 294.63 204.16 294.73L208.5 297.24C208.604 297.305 208.723 297.342 208.846 297.348C208.969 297.353 209.091 297.326 209.2 297.27L209.17 297.23ZM202.53 301.07L207.07 298.44C207.27 298.33 207.28 298.16 207.07 298.06L202.73 295.56C202.628 295.508 202.515 295.481 202.4 295.481C202.285 295.481 202.172 295.508 202.07 295.56L197.53 298.18C197.33 298.29 197.32 298.46 197.53 298.56L201.87 301.07C201.973 301.133 202.09 301.17 202.21 301.177C202.33 301.184 202.451 301.161 202.56 301.11L202.53 301.07ZM195.89 304.9L200.44 302.28C200.63 302.17 200.65 302 200.44 301.9L196.1 299.39C195.998 299.338 195.885 299.311 195.77 299.311C195.655 299.311 195.542 299.338 195.44 299.39L191 302.07C190.8 302.18 190.79 302.35 191 302.45L195.34 304.96C195.433 304.997 195.532 305.014 195.632 305.01C195.732 305.007 195.83 304.983 195.92 304.94L195.89 304.9ZM189.26 308.73L193.8 306.11C193.99 306 194.01 305.83 193.8 305.73L189.45 303.22C189.348 303.168 189.235 303.141 189.12 303.141C189.005 303.141 188.892 303.168 188.79 303.22L184.25 305.85C184.06 305.96 184.04 306.13 184.25 306.23L188.6 308.73C188.703 308.793 188.82 308.83 188.94 308.837C189.06 308.844 189.181 308.821 189.29 308.77L189.26 308.73ZM223.26 281.95L227.8 279.33C227.99 279.22 228.01 279.05 227.8 278.95L223.45 276.44C223.348 276.388 223.235 276.361 223.12 276.361C223.005 276.361 222.892 276.388 222.79 276.44L218.25 279.06C218.06 279.17 218.04 279.35 218.25 279.44L222.6 282C222.702 282.052 222.815 282.079 222.93 282.079C223.045 282.079 223.158 282.052 223.26 282V281.95ZM215.84 293.4L226 287.59C226.19 287.48 226.21 287.31 226 287.21L215.45 281.12C215.348 281.068 215.235 281.041 215.12 281.041C215.005 281.041 214.892 281.068 214.79 281.12L209.55 284.12C209.35 284.23 209.34 284.4 209.55 284.5L215.13 287.72C215.31 287.82 215.29 287.99 215.13 288.1L210.93 290.52C210.74 290.64 210.72 290.81 210.93 290.91L215.28 293.41C215.367 293.452 215.461 293.476 215.557 293.481C215.653 293.486 215.749 293.472 215.84 293.44V293.4ZM185.53 290.83L181 293.49C180.8 293.6 180.79 293.77 181 293.87L185.34 296.38C185.442 296.432 185.555 296.459 185.67 296.459C185.785 296.459 185.898 296.432 186 296.38L190.55 293.76C190.74 293.65 190.76 293.48 190.55 293.38L186.21 290.87C186.105 290.815 185.989 290.786 185.87 290.786C185.752 290.786 185.635 290.815 185.53 290.87V290.83ZM178.89 294.66L174.35 297.28C174.16 297.4 174.14 297.57 174.35 297.67L178.7 300.17C178.802 300.222 178.915 300.249 179.03 300.249C179.145 300.249 179.258 300.222 179.36 300.17L183.9 297.55C184.09 297.44 184.11 297.27 183.9 297.17L179.55 294.66C179.445 294.615 179.33 294.594 179.215 294.601C179.101 294.608 178.989 294.642 178.89 294.7V294.66ZM142.16 335.58C142.262 335.632 142.375 335.659 142.49 335.659C142.605 335.659 142.718 335.632 142.82 335.58L147.36 332.96C147.55 332.85 147.57 332.68 147.36 332.58L143.01 330.07C142.908 330.018 142.795 329.991 142.68 329.991C142.565 329.991 142.452 330.018 142.35 330.07L137.81 332.69C137.62 332.81 137.6 332.98 137.81 333.07L142.16 335.58ZM125.78 325.32L121.24 328C121.05 328.11 121.03 328.28 121.24 328.38L125.59 330.89C125.693 330.939 125.806 330.965 125.92 330.965C126.034 330.965 126.147 330.939 126.25 330.89L130.79 328.27C130.98 328.16 131 327.99 130.79 327.89L126.44 325.38C126.339 325.325 126.227 325.295 126.112 325.291C125.998 325.288 125.884 325.311 125.78 325.36V325.32ZM134.2 333.01C134.302 333.062 134.415 333.089 134.53 333.089C134.645 333.089 134.758 333.062 134.86 333.01L139.4 330.38C139.6 330.27 139.61 330.1 139.4 330L135.06 327.49C134.958 327.437 134.845 327.409 134.73 327.409C134.615 327.409 134.502 327.437 134.4 327.49L129.86 330.11C129.66 330.22 129.65 330.39 129.86 330.49L134.2 333.01ZM152.52 337.13L157.06 334.51C157.25 334.39 157.27 334.22 157.06 334.12L152.71 331.62C152.608 331.568 152.495 331.541 152.38 331.541C152.265 331.541 152.152 331.568 152.05 331.62L147.51 334.24C147.32 334.35 147.3 334.52 147.51 334.62L151.86 337.13C151.959 337.188 152.071 337.222 152.185 337.229C152.3 337.236 152.415 337.216 152.52 337.17V337.13ZM145.22 340.98C145.322 341.032 145.435 341.059 145.55 341.059C145.665 341.059 145.778 341.032 145.88 340.98L150.42 338.36C150.61 338.25 150.63 338.08 150.42 337.98L146.08 335.47C145.978 335.418 145.865 335.391 145.75 335.391C145.635 335.391 145.522 335.418 145.42 335.47L140.87 338.09C140.68 338.2 140.66 338.37 140.87 338.47L145.22 340.98ZM132.42 321.49L127.88 324.11C127.69 324.23 127.67 324.4 127.88 324.49L132.23 327C132.332 327.052 132.445 327.079 132.56 327.079C132.675 327.079 132.788 327.052 132.89 327L137.43 324.38C137.62 324.27 137.64 324.1 137.43 324L133.08 321.49C132.975 321.444 132.86 321.424 132.745 321.431C132.631 321.438 132.519 321.472 132.42 321.53V321.49ZM165.61 302.33L161.07 305C160.88 305.11 160.86 305.28 161.07 305.38L165.42 307.89C165.522 307.942 165.635 307.969 165.75 307.969C165.865 307.969 165.978 307.942 166.08 307.89L170.62 305.27C170.81 305.15 170.83 304.98 170.62 304.88L166.27 302.38C166.169 302.327 166.056 302.298 165.941 302.296C165.827 302.295 165.713 302.32 165.61 302.37V302.33ZM139.06 317.7L134.52 320.32C134.33 320.43 134.31 320.6 134.52 320.7L138.87 323.21C138.972 323.262 139.085 323.289 139.2 323.289C139.315 323.289 139.428 323.262 139.53 323.21L144.07 320.59C144.26 320.47 144.28 320.3 144.07 320.2L139.72 317.7C139.618 317.648 139.505 317.621 139.39 317.621C139.275 317.621 139.162 317.648 139.06 317.7ZM172.25 298.54L167.71 301.16C167.52 301.27 167.5 301.44 167.71 301.54L172.06 304.05C172.162 304.104 172.275 304.132 172.39 304.132C172.505 304.132 172.618 304.104 172.72 304.05L177.26 301.43C177.45 301.32 177.47 301.15 177.26 301.05L172.91 298.54C172.808 298.487 172.695 298.459 172.58 298.459C172.465 298.459 172.352 298.487 172.25 298.54ZM159 306.2L154.45 308.82C154.26 308.93 154.24 309.1 154.45 309.2L158.79 311.71C158.892 311.762 159.005 311.789 159.12 311.789C159.235 311.789 159.348 311.762 159.45 311.71L163.99 309.09C164.19 308.98 164.2 308.81 163.99 308.71L159.65 306.2C159.549 306.15 159.438 306.124 159.325 306.124C159.212 306.124 159.101 306.15 159 306.2ZM152.34 310L147.8 312.63C147.6 312.74 147.59 312.91 147.8 313.01L152.14 315.52C152.243 315.569 152.356 315.595 152.47 315.595C152.584 315.595 152.697 315.569 152.8 315.52L157.34 312.9C157.54 312.79 157.55 312.62 157.34 312.52L153 310C152.898 309.948 152.785 309.921 152.67 309.921C152.555 309.921 152.442 309.948 152.34 310ZM145.7 313.84L141.16 316.46C140.96 316.57 140.95 316.74 141.16 316.84L145.5 319.35C145.602 319.402 145.715 319.429 145.83 319.429C145.945 319.429 146.058 319.402 146.16 319.35L150.71 316.72C150.9 316.61 150.92 316.44 150.71 316.34L146.37 313.83C146.264 313.781 146.147 313.759 146.03 313.766C145.913 313.773 145.8 313.809 145.7 313.87V313.84ZM176 316.44L180.54 313.82C180.73 313.7 180.75 313.53 180.54 313.43L176.19 310.93C176.088 310.878 175.975 310.851 175.86 310.851C175.745 310.851 175.632 310.878 175.53 310.93L171 313.57C170.81 313.68 170.79 313.85 171 313.95L175.35 316.46C175.453 316.507 175.565 316.53 175.677 316.527C175.79 316.523 175.901 316.494 176 316.44ZM237.93 260.61L233.39 263.23C233.19 263.35 233.18 263.52 233.39 263.62L237.73 266.12C237.832 266.172 237.945 266.199 238.06 266.199C238.175 266.199 238.288 266.172 238.39 266.12L242.93 263.5C243.13 263.39 243.14 263.22 242.93 263.12L238.59 260.61C238.489 260.56 238.378 260.534 238.265 260.534C238.152 260.534 238.041 260.56 237.94 260.61H237.93ZM229.93 265.25L225.39 267.87C225.2 267.99 225.18 268.16 225.39 268.25L229.74 270.76C229.842 270.812 229.955 270.839 230.07 270.839C230.185 270.839 230.298 270.812 230.4 270.76L234.94 268.14C235.13 268.03 235.15 267.86 234.94 267.76L230.59 265.25C230.484 265.193 230.365 265.164 230.245 265.164C230.125 265.164 230.006 265.193 229.9 265.25H229.93ZM244.61 256.78L240 259.4C239.81 259.51 239.79 259.68 240 259.78L244.34 262.29C244.442 262.342 244.555 262.369 244.67 262.369C244.785 262.369 244.898 262.342 245 262.29L249.54 259.67C249.74 259.56 249.75 259.38 249.54 259.29L245.2 256.78C245.103 256.735 244.997 256.711 244.89 256.711C244.783 256.711 244.677 256.735 244.58 256.78H244.61ZM207.91 290.87L212.46 288.24C212.65 288.13 212.67 287.96 212.46 287.86L208.11 285.35C208.007 285.301 207.894 285.276 207.78 285.276C207.666 285.276 207.553 285.301 207.45 285.35L202.92 288C202.73 288.11 202.71 288.28 202.92 288.38L207.26 290.89C207.359 290.933 207.465 290.953 207.572 290.949C207.679 290.946 207.785 290.919 207.88 290.87H207.91ZM251.91 252.87C251.807 252.821 251.694 252.796 251.58 252.796C251.466 252.796 251.353 252.821 251.25 252.87L246.71 255.49C246.52 255.6 246.5 255.77 246.71 255.87L251.06 258.38C251.162 258.432 251.275 258.459 251.39 258.459C251.505 258.459 251.618 258.432 251.72 258.38L256.26 255.75C256.45 255.64 256.47 255.47 256.26 255.37L251.91 252.87ZM182.65 312.6L187.19 309.98C187.38 309.87 187.4 309.7 187.19 309.6L182.84 307.09C182.738 307.037 182.625 307.009 182.51 307.009C182.395 307.009 182.282 307.037 182.18 307.09L177.64 309.71C177.45 309.82 177.43 309.99 177.64 310.09L181.99 312.6C182.092 312.654 182.205 312.682 182.32 312.682C182.435 312.682 182.548 312.654 182.65 312.6ZM264.05 265.6L268.6 263C268.79 262.89 268.81 262.72 268.6 262.62L264.25 260.11C264.148 260.057 264.035 260.029 263.92 260.029C263.805 260.029 263.692 260.057 263.59 260.11L259.05 262.73C258.86 262.84 258.84 263.01 259.05 263.11L263.39 265.62C263.493 265.671 263.607 265.696 263.723 265.693C263.838 265.689 263.95 265.658 264.05 265.6ZM251.21 265.85L255.75 263.23C255.94 263.12 255.96 262.95 255.75 262.85L251.4 260.34C251.298 260.288 251.185 260.261 251.07 260.261C250.955 260.261 250.842 260.288 250.74 260.34L246.24 263C246.05 263.11 246.03 263.28 246.24 263.38L250.59 265.89C250.69 265.927 250.798 265.942 250.904 265.936C251.011 265.929 251.115 265.9 251.21 265.85ZM258.08 256.51C257.978 256.458 257.865 256.431 257.75 256.431C257.635 256.431 257.522 256.458 257.42 256.51L252.88 259.13C252.69 259.24 252.67 259.42 252.88 259.51L257.23 262.02C257.332 262.072 257.445 262.099 257.56 262.099C257.675 262.099 257.788 262.072 257.89 262.02L262.43 259.4C262.62 259.29 262.64 259.12 262.43 259.02L258.08 256.51ZM259.48 255.7L270 261.79C270.102 261.842 270.215 261.869 270.33 261.869C270.445 261.869 270.558 261.842 270.66 261.79L275.2 259.17C275.4 259.06 275.41 258.89 275.2 258.79L264.65 252.7C264.548 252.648 264.435 252.621 264.32 252.621C264.205 252.621 264.092 252.648 263.99 252.7L259.45 255.32C259.33 255.43 259.31 255.6 259.48 255.7ZM244.15 264.2L239.6 266.82C239.41 266.93 239.39 267.1 239.6 267.2L243.95 269.71C244.052 269.762 244.165 269.789 244.28 269.789C244.395 269.789 244.508 269.762 244.61 269.71L249.15 267.08C249.34 266.97 249.36 266.8 249.15 266.7L244.81 264.19C244.708 264.138 244.594 264.111 244.479 264.113C244.364 264.114 244.251 264.144 244.15 264.2ZM194.15 293.04L189.61 295.66C189.42 295.78 189.4 295.95 189.61 296.05L193.96 298.55C194.062 298.602 194.175 298.629 194.29 298.629C194.405 298.629 194.518 298.602 194.62 298.55L199.16 295.93C199.35 295.82 199.37 295.65 199.16 295.55L194.84 293C194.738 292.948 194.625 292.921 194.51 292.921C194.395 292.921 194.282 292.948 194.18 293L194.15 293.04ZM256.73 269.46C256.832 269.512 256.945 269.539 257.06 269.539C257.175 269.539 257.288 269.512 257.39 269.46L261.93 266.83C262.12 266.72 262.14 266.55 261.93 266.45L257.58 263.94C257.477 263.891 257.364 263.866 257.25 263.866C257.136 263.866 257.023 263.891 256.92 263.94L252.38 266.56C252.19 266.67 252.17 266.84 252.38 266.94L256.73 269.46ZM200.79 289.21L196.25 291.83C196.06 291.94 196.04 292.11 196.25 292.21L200.6 294.72C200.702 294.772 200.815 294.799 200.93 294.799C201.045 294.799 201.158 294.772 201.26 294.72L205.8 292.1C205.99 291.99 206.01 291.81 205.8 291.72L201.45 289.21C201.352 289.163 201.244 289.139 201.135 289.139C201.026 289.139 200.918 289.163 200.82 289.21H200.79ZM148.79 331.79C148.892 331.842 149.005 331.869 149.12 331.869C149.235 331.869 149.348 331.842 149.45 331.79L153.99 329.17C154.18 329.05 154.2 328.88 153.99 328.78L149.64 326.28C149.538 326.228 149.425 326.201 149.31 326.201C149.195 326.201 149.082 326.228 148.98 326.28L144.44 328.9C144.25 329.01 144.23 329.18 144.44 329.28L148.79 331.79ZM141.07 323.7L136.52 326.33C136.33 326.44 136.31 326.61 136.52 326.71L140.86 329.22C140.963 329.269 141.076 329.295 141.19 329.295C141.304 329.295 141.417 329.269 141.52 329.22L146.06 326.6C146.26 326.49 146.27 326.32 146.06 326.22L141.72 323.71C141.621 323.66 141.512 323.633 141.401 323.631C141.29 323.63 141.18 323.653 141.08 323.7H141.07ZM156.07 327.94L160.62 325.31C160.81 325.2 160.83 325.03 160.62 324.93L156.28 322.42C156.178 322.367 156.065 322.339 155.95 322.339C155.835 322.339 155.722 322.367 155.62 322.42L151.08 325.04C150.88 325.15 150.87 325.32 151.08 325.42L155.42 327.93C155.523 327.985 155.637 328.015 155.754 328.017C155.87 328.018 155.986 327.992 156.09 327.94H156.07ZM162.71 324.1L167.25 321.48C167.45 321.37 167.46 321.2 167.25 321.1L163 318.59C162.898 318.538 162.785 318.511 162.67 318.511C162.555 318.511 162.442 318.538 162.34 318.59L157.8 321.22C157.6 321.33 157.59 321.5 157.8 321.6L162.14 324.11C162.234 324.147 162.335 324.166 162.436 324.164C162.537 324.162 162.637 324.141 162.73 324.1H162.71ZM169.35 320.27L173.89 317.65C174.09 317.54 174.1 317.37 173.89 317.27L169.55 314.76C169.448 314.708 169.335 314.681 169.22 314.681C169.105 314.681 168.992 314.708 168.89 314.76L164.34 317.38C164.15 317.49 164.13 317.67 164.34 317.76L168.68 320.27C168.786 320.327 168.905 320.357 169.025 320.357C169.145 320.357 169.264 320.327 169.37 320.27H169.35ZM147.69 319.87L143.15 322.49C142.96 322.6 142.94 322.77 143.15 322.87L147.5 325.38C147.602 325.432 147.715 325.459 147.83 325.459C147.945 325.459 148.058 325.432 148.16 325.38L152.7 322.76C152.89 322.65 152.91 322.48 152.7 322.38L148.35 319.87C148.25 319.822 148.141 319.796 148.03 319.796C147.919 319.796 147.81 319.822 147.71 319.87H147.69ZM154.33 316.04L149.79 318.66C149.6 318.77 149.58 318.94 149.79 319.04L154.14 321.55C154.242 321.602 154.355 321.629 154.47 321.629C154.585 321.629 154.698 321.602 154.8 321.55L159.34 318.92C159.53 318.81 159.55 318.64 159.34 318.54L155 316C154.899 315.95 154.788 315.924 154.675 315.924C154.562 315.924 154.451 315.95 154.35 316L154.33 316.04ZM180.89 300.71L176.34 303.33C176.15 303.44 176.13 303.61 176.34 303.71L180.68 306.22C180.782 306.272 180.895 306.299 181.01 306.299C181.125 306.299 181.238 306.272 181.34 306.22L185.88 303.59C186.08 303.48 186.09 303.31 185.88 303.21L181.54 300.7C181.44 300.657 181.333 300.636 181.224 300.638C181.115 300.64 181.008 300.664 180.91 300.71H180.89ZM174.25 304.54L169.71 307.16C169.51 307.27 169.5 307.44 169.71 307.54L174.05 310.05C174.152 310.102 174.265 310.129 174.38 310.129C174.495 310.129 174.608 310.102 174.71 310.05L179.25 307.43C179.45 307.32 179.46 307.15 179.25 307.05L174.91 304.54C174.81 304.492 174.701 304.466 174.59 304.466C174.479 304.466 174.37 304.492 174.27 304.54H174.25ZM187.52 296.87L183 299.5C182.81 299.61 182.79 299.78 183 299.88L187.35 302.39C187.452 302.444 187.565 302.472 187.68 302.472C187.795 302.472 187.908 302.444 188.01 302.39L192.55 299.77C192.74 299.66 192.76 299.49 192.55 299.39L188.2 296.88C188.099 296.827 187.986 296.798 187.871 296.796C187.757 296.795 187.643 296.82 187.54 296.87H187.52ZM161 312.21L156.46 314.83C156.27 314.94 156.25 315.11 156.46 315.21L160.81 317.72C160.912 317.774 161.025 317.802 161.14 317.802C161.255 317.802 161.368 317.774 161.47 317.72L166.01 315.1C166.2 314.99 166.22 314.82 166.01 314.72L161.66 312.21C161.558 312.157 161.445 312.129 161.33 312.129C161.215 312.129 161.102 312.157 161 312.21ZM167.64 308.37L163.09 311C162.89 311.12 162.88 311.29 163.09 311.39L167.43 313.89C167.532 313.942 167.645 313.969 167.76 313.969C167.875 313.969 167.988 313.942 168.09 313.89L172.64 311.27C172.83 311.16 172.85 310.99 172.64 310.89L168.29 308.38C168.189 308.327 168.076 308.298 167.961 308.296C167.847 308.295 167.733 308.32 167.63 308.37H167.64ZM159.17 333.37L163.71 330.75C163.9 330.64 163.92 330.47 163.71 330.37L159.36 327.86C159.258 327.807 159.145 327.779 159.03 327.779C158.915 327.779 158.802 327.807 158.7 327.86L154.16 330.48C153.97 330.59 153.95 330.76 154.16 330.86L158.51 333.37C158.614 333.416 158.727 333.436 158.84 333.429C158.953 333.422 159.063 333.388 159.16 333.33L159.17 333.37ZM124.17 331.72L119.83 329.21C119.727 329.161 119.614 329.136 119.5 329.136C119.386 329.136 119.273 329.161 119.17 329.21L114.62 331.83C114.43 331.94 114.41 332.11 114.62 332.21L118.96 334.72C119.062 334.772 119.175 334.799 119.29 334.799C119.405 334.799 119.518 334.772 119.62 334.72L124.16 332.09C124.31 332 124.32 331.78 124.15 331.68L124.17 331.72ZM132.82 333.89L128.48 331.39C128.378 331.338 128.265 331.311 128.15 331.311C128.035 331.311 127.922 331.338 127.82 331.39L120.82 335.39C120.63 335.5 120.61 335.67 120.82 335.77L125.17 338.28C125.272 338.332 125.385 338.359 125.5 338.359C125.615 338.359 125.728 338.332 125.83 338.28L132.83 334.28C133 334.12 133 334 132.8 333.85L132.82 333.89ZM117.69 326.77L113.34 324.26C113.238 324.208 113.125 324.181 113.01 324.181C112.895 324.181 112.782 324.208 112.68 324.26L107.09 327.49C106.9 327.6 106.88 327.77 107.09 327.87L111.44 330.38C111.542 330.432 111.655 330.459 111.77 330.459C111.885 330.459 111.998 330.432 112.1 330.38L117.69 327.15C117.82 327 117.84 326.83 117.67 326.73L117.69 326.77ZM121.97 324.29C122.072 324.342 122.185 324.369 122.3 324.369C122.415 324.369 122.528 324.342 122.63 324.29L127.17 321.67C127.37 321.56 127.38 321.39 127.17 321.29L122.83 318.78C122.728 318.728 122.615 318.701 122.5 318.701C122.385 318.701 122.272 318.728 122.17 318.78L117.63 321.4C117.43 321.52 117.41 321.69 117.63 321.78L121.97 324.29ZM140.78 336.47L136.43 333.96C136.328 333.908 136.215 333.881 136.1 333.881C135.985 333.881 135.872 333.908 135.77 333.96L127 339C126.81 339.11 126.79 339.28 127 339.38L131.35 341.89C131.452 341.944 131.565 341.972 131.68 341.972C131.795 341.972 131.908 341.944 132.01 341.89L140.74 336.89C140.91 336.7 140.93 336.53 140.76 336.43L140.78 336.47ZM143.84 341.87L139.5 339.36C139.398 339.308 139.285 339.281 139.17 339.281C139.055 339.281 138.942 339.308 138.84 339.36L133.25 342.59C133.05 342.7 133.04 342.87 133.25 342.97L137.59 345.48C137.692 345.532 137.805 345.559 137.92 345.559C138.035 345.559 138.148 345.532 138.25 345.48L143.84 342.25C144 342.1 144 341.93 143.82 341.83L143.84 341.87ZM171.33 295.8C171.432 295.852 171.545 295.879 171.66 295.879C171.775 295.879 171.888 295.852 171.99 295.8L176.53 293.17C176.72 293.06 176.74 292.89 176.53 292.79L172.18 290.28C172.078 290.227 171.965 290.199 171.85 290.199C171.735 290.199 171.622 290.227 171.52 290.28L167 292.87C166.81 292.98 166.79 293.15 167 293.25L171.33 295.8ZM158 303.42C158.102 303.472 158.215 303.499 158.33 303.499C158.445 303.499 158.558 303.472 158.66 303.42L163.2 300.8C163.4 300.69 163.41 300.52 163.2 300.42L158.86 297.91C158.758 297.858 158.645 297.831 158.53 297.831C158.415 297.831 158.302 297.858 158.2 297.91L153.66 300.53C153.46 300.64 153.44 300.81 153.66 300.91L158 303.42ZM128.56 320.42C128.662 320.472 128.775 320.499 128.89 320.499C129.005 320.499 129.118 320.472 129.22 320.42L133.76 317.8C133.95 317.68 133.97 317.51 133.76 317.42L129.42 314.91C129.318 314.858 129.205 314.831 129.09 314.831C128.975 314.831 128.862 314.858 128.76 314.91L124.21 317.53C124.02 317.64 124 317.81 124.21 317.91L128.56 320.42ZM164.64 299.59C164.742 299.642 164.855 299.669 164.97 299.669C165.085 299.669 165.198 299.642 165.3 299.59L169.84 296.97C170.03 296.85 170.05 296.68 169.84 296.58L165.5 294.08C165.398 294.028 165.285 294.001 165.17 294.001C165.055 294.001 164.942 294.028 164.84 294.08L160.29 296.7C160.1 296.81 160.08 296.98 160.29 297.08L164.64 299.59ZM151.36 307.26C151.463 307.309 151.576 307.335 151.69 307.335C151.804 307.335 151.917 307.309 152.02 307.26L156.56 304.64C156.76 304.53 156.78 304.36 156.56 304.26L152.22 301.75C152.118 301.698 152.005 301.671 151.89 301.671C151.775 301.671 151.662 301.698 151.56 301.75L147.02 304.38C146.82 304.49 146.81 304.66 147.02 304.76L151.36 307.26ZM147.05 342.1C146.948 342.048 146.835 342.021 146.72 342.021C146.605 342.021 146.492 342.048 146.39 342.1L139.39 346.1C139.2 346.22 139.18 346.39 139.39 346.49L143.73 348.99C143.832 349.042 143.945 349.069 144.06 349.069C144.175 349.069 144.288 349.042 144.39 348.99L151.39 344.99C151.58 344.88 151.6 344.71 151.39 344.61L147.05 342.1ZM141.84 312.76C141.943 312.809 142.056 312.835 142.17 312.835C142.284 312.835 142.397 312.809 142.5 312.76L147.04 310.14C147.23 310.03 147.25 309.86 147.04 309.76L142.69 307.25C142.588 307.198 142.475 307.171 142.36 307.171C142.245 307.171 142.132 307.198 142.03 307.25L137.49 309.88C137.3 309.99 137.28 310.16 137.49 310.26L141.84 312.76ZM135.2 316.59C135.302 316.642 135.415 316.669 135.53 316.669C135.645 316.669 135.758 316.642 135.86 316.59L140.4 313.96C140.59 313.85 140.61 313.68 140.4 313.58L136.05 311.07C135.948 311.019 135.835 310.993 135.72 310.993C135.606 310.993 135.493 311.019 135.39 311.07L130.85 313.69C130.66 313.8 130.64 313.97 130.85 314.07L135.2 316.59ZM270.04 271.09C269.938 271.037 269.825 271.009 269.71 271.009C269.595 271.009 269.482 271.037 269.38 271.09L258.2 277.54C258 277.65 257.99 277.82 258.2 277.92L262.54 280.43C262.642 280.482 262.755 280.509 262.87 280.509C262.985 280.509 263.098 280.482 263.2 280.43L274.37 274C274.57 273.89 274.58 273.72 274.37 273.62L270.04 271.09ZM255.36 279.57C255.258 279.518 255.145 279.491 255.03 279.491C254.915 279.491 254.802 279.518 254.7 279.57L250.16 282.19C249.97 282.3 249.95 282.47 250.16 282.57L254.51 285.08C254.612 285.132 254.725 285.159 254.84 285.159C254.955 285.159 255.068 285.132 255.17 285.08L259.71 282.45C259.9 282.34 259.92 282.17 259.71 282.07L255.36 279.57ZM165.76 329.5L170.31 326.88C170.5 326.77 170.52 326.6 170.31 326.5L166 324C165.898 323.948 165.785 323.921 165.67 323.921C165.555 323.921 165.442 323.948 165.34 324L160.8 326.63C160.61 326.74 160.59 326.91 160.8 327.01L165.15 329.51C165.25 329.559 165.36 329.583 165.471 329.581C165.582 329.58 165.692 329.552 165.79 329.5H165.76ZM242.09 287.23C241.988 287.178 241.875 287.151 241.76 287.151C241.645 287.151 241.532 287.178 241.43 287.23L236.88 289.86C236.69 289.97 236.67 290.14 236.88 290.24L241.22 292.75C241.323 292.799 241.436 292.825 241.55 292.825C241.664 292.825 241.777 292.799 241.88 292.75L246.42 290.13C246.62 290.02 246.63 289.85 246.42 289.75L242.09 287.23ZM276.68 267.23C276.578 267.178 276.465 267.151 276.35 267.151C276.235 267.151 276.122 267.178 276.02 267.23L271.47 269.86C271.28 269.97 271.26 270.14 271.47 270.24L275.82 272.74C275.922 272.792 276.035 272.819 276.15 272.819C276.265 272.819 276.378 272.792 276.48 272.74L281.02 270.12C281.21 270.01 281.23 269.84 281.02 269.74L276.68 267.23ZM287.68 265.91L277.13 259.81C277.029 259.756 276.915 259.728 276.8 259.728C276.685 259.728 276.572 259.756 276.47 259.81L271.92 262.43C271.73 262.54 271.71 262.71 271.92 262.81L282.45 269C282.552 269.052 282.665 269.079 282.78 269.079C282.895 269.079 283.008 269.052 283.11 269L287.65 266.38C287.84 266.21 287.86 266 287.69 265.94L287.68 265.91ZM217.3 301.52C217.198 301.467 217.085 301.439 216.97 301.439C216.855 301.439 216.742 301.467 216.64 301.52L211.05 304.74C210.86 304.85 210.84 305.02 211.05 305.12L215.4 307.63C215.502 307.682 215.615 307.709 215.73 307.709C215.845 307.709 215.958 307.682 216.06 307.63L221.65 304.4C221.84 304.29 221.86 304.12 221.65 304.02L217.3 301.52ZM234.07 291.84C233.968 291.788 233.855 291.761 233.74 291.761C233.625 291.761 233.512 291.788 233.41 291.84L226.41 295.84C226.22 295.95 226.2 296.12 226.41 296.22L230.76 298.73C230.862 298.784 230.975 298.812 231.09 298.812C231.205 298.812 231.318 298.784 231.42 298.73L238.42 294.73C238.61 294.62 238.63 294.45 238.42 294.35L234.07 291.84ZM201.93 310.4C201.828 310.348 201.715 310.321 201.6 310.321C201.485 310.321 201.372 310.348 201.27 310.4L163.89 332C163.7 332.12 163.68 332.29 163.89 332.39L168.24 334.89C168.342 334.942 168.455 334.969 168.57 334.969C168.685 334.969 168.798 334.942 168.9 334.89L206.28 313.31C206.48 313.2 206.49 313.03 206.28 312.93L201.93 310.4ZM162.45 333.19C162.348 333.138 162.235 333.111 162.12 333.111C162.005 333.111 161.892 333.138 161.79 333.19L156.2 336.42C156 336.53 155.98 336.7 156.2 336.8L160.54 339.31C160.642 339.362 160.755 339.389 160.87 339.389C160.985 339.389 161.098 339.362 161.2 339.31L166.79 336.08C166.98 335.97 167 335.8 166.79 335.7L162.45 333.19ZM209.62 306C209.518 305.948 209.405 305.921 209.29 305.921C209.175 305.921 209.062 305.948 208.96 306L203.37 309.23C203.18 309.34 203.16 309.51 203.37 309.61L207.72 312.12C207.822 312.172 207.935 312.199 208.05 312.199C208.165 312.199 208.278 312.172 208.38 312.12L213.97 308.89C214.16 308.78 214.18 308.61 213.97 308.51L209.62 306ZM154.77 337.67C154.668 337.618 154.555 337.591 154.44 337.591C154.325 337.591 154.212 337.618 154.11 337.67L148.52 340.9C148.33 341.01 148.31 341.18 148.52 341.28L152.87 343.79C152.972 343.842 153.085 343.869 153.2 343.869C153.315 343.869 153.428 343.842 153.53 343.79L159.12 340.56C159.31 340.45 159.33 340.28 159.12 340.18L154.77 337.67ZM225 297.11C224.897 297.061 224.784 297.036 224.67 297.036C224.556 297.036 224.443 297.061 224.34 297.11L218.75 300.33C218.55 300.45 218.54 300.62 218.75 300.72L223.09 303.22C223.192 303.272 223.305 303.299 223.42 303.299C223.535 303.299 223.648 303.272 223.75 303.22L229.3 300C229.5 299.89 229.51 299.72 229.3 299.62L225 297.11ZM248.75 283.4C248.648 283.348 248.535 283.321 248.42 283.321C248.305 283.321 248.192 283.348 248.09 283.4L243.55 286C243.36 286.11 243.34 286.28 243.55 286.38L247.9 288.89C248.002 288.942 248.115 288.969 248.23 288.969C248.345 288.969 248.458 288.942 248.56 288.89L253.1 286.27C253.29 286.16 253.31 285.99 253.1 285.89L248.75 283.4ZM263.62 273L268.17 270.38C268.36 270.27 268.38 270.1 268.17 270L263.83 267.49C263.728 267.438 263.615 267.411 263.5 267.411C263.385 267.411 263.272 267.438 263.17 267.49L258.63 270.11C258.43 270.23 258.42 270.4 258.63 270.49L263 273C263.097 273.046 263.203 273.069 263.31 273.069C263.417 273.069 263.523 273.046 263.62 273ZM236.53 274.31L241.08 271.68C241.27 271.57 241.29 271.4 241.08 271.3L236.73 268.79C236.628 268.737 236.515 268.709 236.4 268.709C236.285 268.709 236.172 268.737 236.07 268.79L231.53 271.41C231.33 271.52 231.32 271.69 231.53 271.79L235.87 274.3C235.97 274.357 236.082 274.389 236.196 274.394C236.311 274.399 236.425 274.377 236.53 274.33V274.31ZM218.9 298.84L232.18 291.18C232.37 291.06 232.39 290.89 232.18 290.79L227.83 288.29C227.728 288.238 227.615 288.211 227.5 288.211C227.385 288.211 227.272 288.238 227.17 288.29L213.94 296C213.74 296.12 213.73 296.29 213.94 296.38L218.28 298.89C218.381 298.928 218.488 298.943 218.596 298.935C218.703 298.926 218.807 298.894 218.9 298.84ZM256.33 276.84C256.431 276.892 256.542 276.919 256.655 276.919C256.768 276.919 256.88 276.892 256.98 276.84L261.53 274.22C261.72 274.11 261.74 273.94 261.53 273.84L257.18 271.33C257.078 271.278 256.965 271.251 256.85 271.251C256.735 271.251 256.622 271.278 256.52 271.33L252 274C251.81 274.11 251.79 274.28 252 274.38L256.33 276.84ZM250.78 273.23L255.32 270.61C255.51 270.5 255.53 270.33 255.32 270.23L251 267.76C250.898 267.708 250.785 267.681 250.67 267.681C250.555 267.681 250.442 267.708 250.34 267.76L245.8 270.38C245.61 270.49 245.59 270.66 245.8 270.76L250.15 273.27C250.248 273.317 250.356 273.342 250.465 273.342C250.574 273.342 250.682 273.317 250.78 273.27V273.23ZM212.26 302.63L216.81 300.01C217 299.9 217.02 299.73 216.81 299.63L212.47 297.12C212.368 297.068 212.255 297.041 212.14 297.041C212.025 297.041 211.912 297.068 211.81 297.12L207.27 299.75C207.07 299.86 207.06 300.03 207.27 300.13L211.61 302.64C211.708 302.698 211.818 302.73 211.931 302.735C212.045 302.741 212.157 302.718 212.26 302.67V302.63ZM241.65 285.31C241.752 285.362 241.865 285.389 241.98 285.389C242.095 285.389 242.208 285.362 242.31 285.31L246.85 282.68C247.05 282.57 247.06 282.4 246.85 282.3L242.51 279.79C242.409 279.736 242.295 279.708 242.18 279.708C242.065 279.708 241.952 279.736 241.85 279.79L237.3 282.41C237.11 282.52 237.09 282.69 237.3 282.79L241.65 285.31ZM179.07 321.8L183.61 319.17C183.81 319.06 183.82 318.89 183.61 318.79L179.27 316.28C179.167 316.231 179.054 316.206 178.94 316.206C178.826 316.206 178.713 316.231 178.61 316.28L174.11 319C173.91 319.11 173.9 319.28 174.11 319.38L178.45 321.89C178.551 321.928 178.658 321.943 178.766 321.935C178.873 321.926 178.977 321.894 179.07 321.84V321.8ZM185.71 317.96L190.25 315.34C190.45 315.23 190.46 315.06 190.25 314.96L186 312.49C185.898 312.438 185.785 312.411 185.67 312.411C185.555 312.411 185.442 312.438 185.34 312.49L180.79 315.12C180.6 315.23 180.58 315.4 180.79 315.5L185.14 318.01C185.231 318.048 185.328 318.067 185.426 318.065C185.524 318.063 185.621 318.041 185.71 318V317.96ZM172.43 325.63L176.98 323.01C177.17 322.9 177.19 322.73 176.98 322.63L172.64 320.12C172.538 320.068 172.425 320.041 172.31 320.041C172.195 320.041 172.082 320.068 171.98 320.12L167.44 322.74C167.24 322.85 167.23 323.02 167.44 323.12L171.78 325.63C171.878 325.687 171.988 325.72 172.1 325.727C172.213 325.734 172.326 325.714 172.43 325.67V325.63ZM199 310.34L203.54 307.72C203.73 307.61 203.75 307.43 203.54 307.34L199.19 304.83C199.088 304.778 198.975 304.751 198.86 304.751C198.745 304.751 198.632 304.778 198.53 304.83L194 307.47C193.81 307.58 193.79 307.75 194 307.85L198.35 310.36C198.453 310.407 198.565 310.43 198.677 310.427C198.79 310.423 198.901 310.394 199 310.34ZM192.36 314.17L196.9 311.55C197.09 311.44 197.11 311.27 196.9 311.17L192.55 308.66C192.448 308.608 192.335 308.581 192.22 308.581C192.105 308.581 191.992 308.608 191.89 308.66L187.35 311.28C187.16 311.4 187.14 311.57 187.35 311.67L191.7 314.17C191.801 314.22 191.912 314.247 192.025 314.247C192.138 314.247 192.249 314.22 192.35 314.17H192.36ZM205.63 306.51L210.18 303.88C210.37 303.77 210.39 303.6 210.18 303.5L205.86 301C205.757 300.951 205.644 300.926 205.53 300.926C205.416 300.926 205.303 300.951 205.2 301L200.66 303.62C200.47 303.73 200.45 303.9 200.66 304L205.01 306.51C205.105 306.556 205.21 306.579 205.315 306.579C205.421 306.579 205.525 306.556 205.62 306.51H205.63ZM241.86 253.19C241.962 253.242 242.075 253.269 242.19 253.269C242.305 253.269 242.418 253.242 242.52 253.19L247.06 250.56C247.26 250.45 247.27 250.28 247.06 250.18L245.91 249.51C245.807 249.461 245.694 249.436 245.58 249.436C245.466 249.436 245.353 249.461 245.25 249.51L240.7 252.13C240.51 252.24 240.49 252.41 240.7 252.51L241.86 253.19ZM208.86 274.08C208.962 274.132 209.075 274.159 209.19 274.159C209.305 274.159 209.418 274.132 209.52 274.08L214.06 271.45C214.25 271.34 214.27 271.17 214.06 271.07L209.71 268.57C209.608 268.518 209.495 268.491 209.38 268.491C209.265 268.491 209.152 268.518 209.05 268.57L204.51 271.19C204.32 271.3 204.3 271.47 204.51 271.57L208.86 274.08ZM222.13 266.41C222.232 266.462 222.345 266.489 222.46 266.489C222.575 266.489 222.688 266.462 222.79 266.41L227.33 263.79C227.53 263.68 227.54 263.51 227.33 263.41L223 260.88C222.898 260.828 222.785 260.801 222.67 260.801C222.555 260.801 222.442 260.828 222.34 260.88L217.8 263.5C217.6 263.62 217.59 263.79 217.8 263.89L222.13 266.41ZM200.75 278.76C200.852 278.812 200.965 278.839 201.08 278.839C201.195 278.839 201.308 278.812 201.41 278.76L205.95 276.13C206.14 276.02 206.16 275.85 205.95 275.75L201.61 273.24C201.507 273.191 201.394 273.166 201.28 273.166C201.166 273.166 201.053 273.191 200.95 273.24L196.4 275.86C196.21 275.97 196.19 276.14 196.4 276.24L200.75 278.76ZM215.49 270.25C215.592 270.305 215.705 270.333 215.82 270.333C215.935 270.333 216.049 270.305 216.15 270.25L220.7 267.63C220.89 267.52 220.91 267.35 220.7 267.25L216.36 264.74C216.258 264.688 216.145 264.661 216.03 264.661C215.915 264.661 215.802 264.688 215.7 264.74L211.16 267.37C210.96 267.48 210.95 267.65 211.16 267.75L215.49 270.25ZM187.49 286.42C187.592 286.472 187.705 286.499 187.82 286.499C187.935 286.499 188.048 286.472 188.15 286.42L192.69 283.8C192.89 283.69 192.91 283.52 192.69 283.42L188.35 280.91C188.248 280.858 188.135 280.831 188.02 280.831C187.905 280.831 187.792 280.858 187.69 280.91L183.15 283.53C182.95 283.65 182.94 283.82 183.15 283.92L187.49 286.42ZM194.13 282.59C194.232 282.642 194.345 282.669 194.46 282.669C194.575 282.669 194.688 282.642 194.79 282.59L199.33 279.97C199.53 279.86 199.54 279.69 199.33 279.59L195 277.06C194.898 277.008 194.785 276.981 194.67 276.981C194.555 276.981 194.442 277.008 194.34 277.06L189.8 279.68C189.6 279.79 189.58 279.96 189.8 280.06L194.13 282.59ZM228.59 260.85C228.692 260.902 228.805 260.929 228.92 260.929C229.035 260.929 229.148 260.902 229.25 260.85L233.8 258.23C233.99 258.12 234.01 257.95 233.8 257.85L232.64 257.18C232.538 257.128 232.425 257.101 232.31 257.101C232.195 257.101 232.082 257.128 231.98 257.18L227.44 259.81C227.24 259.92 227.23 260.09 227.44 260.19L228.59 260.85ZM248.51 249.36C248.613 249.411 248.726 249.438 248.84 249.438C248.955 249.438 249.068 249.411 249.17 249.36L253.71 246.74C253.9 246.63 253.92 246.46 253.71 246.36L252.55 245.69C252.448 245.637 252.335 245.609 252.22 245.609C252.105 245.609 251.992 245.637 251.89 245.69L247.35 248.31C247.16 248.42 247.14 248.59 247.35 248.69L248.51 249.36ZM257.64 254.63C257.742 254.684 257.855 254.712 257.97 254.712C258.085 254.712 258.198 254.684 258.3 254.63L262.84 252.01C263.03 251.9 263.05 251.73 262.84 251.63L258.49 249.12C258.388 249.068 258.275 249.041 258.16 249.041C258.045 249.041 257.932 249.068 257.83 249.12L253.29 251.75C253.1 251.86 253.08 252.03 253.29 252.13L257.64 254.63ZM270.28 269.19L274.82 266.57C275.02 266.45 275.03 266.28 274.82 266.19L270.48 263.68C270.378 263.628 270.265 263.601 270.15 263.601C270.035 263.601 269.922 263.628 269.82 263.68L265.28 266.3C265.08 266.41 265.07 266.58 265.28 266.68L269.62 269.19C269.72 269.239 269.829 269.264 269.94 269.264C270.051 269.264 270.16 269.239 270.26 269.19H270.28ZM235.28 257.02C235.382 257.072 235.495 257.099 235.61 257.099C235.725 257.099 235.838 257.072 235.94 257.02L240.48 254.4C240.68 254.29 240.69 254.11 240.48 254.02L239.33 253.35C239.228 253.298 239.115 253.271 239 253.271C238.885 253.271 238.772 253.298 238.67 253.35L234.09 256C233.9 256.11 233.88 256.28 234.09 256.38L235.28 257.02ZM180.9 290.26C181.002 290.315 181.115 290.343 181.23 290.343C181.345 290.343 181.459 290.315 181.56 290.26L186.11 287.64C186.3 287.53 186.32 287.36 186.11 287.26L181.76 284.75C181.658 284.697 181.545 284.669 181.43 284.669C181.315 284.669 181.202 284.697 181.1 284.75L176.56 287.37C176.37 287.48 176.35 287.65 176.56 287.75L180.9 290.26Z" fill="#455A64"/>
<path d="M199.85 328.03L200.84 328.6L227.07 343.75L273.72 316.81L274.69 316.26L247.47 300.55L199.85 328.03Z" fill="#263238"/>
<path d="M273.12 317.16L247.47 302.36L201.43 328.95L227.07 343.75L273.12 317.16Z" fill="#37474F"/>
<path d="M139.75 56.8002C131.55 51.4302 120.98 52.3902 115.26 56.7202C107.26 62.8002 104.44 69.4902 103 82.7202C101 101.36 98.9002 106.72 96.6902 110.95C95.748 112.809 94.446 114.461 92.8598 115.812C91.2736 117.163 89.4348 118.186 87.4502 118.82C89.0327 119.788 90.836 120.335 92.6894 120.41C94.5427 120.486 96.3845 120.086 98.0402 119.25C96.1602 128.25 93.5402 135.8 95.8702 145.31C97.4402 151.71 100.78 158.96 105.71 163.55C109.91 167.46 115.92 168.65 120.97 170.86C117.56 163.55 115.73 156.65 118.09 148.43C120.69 139.36 126.77 131.64 129.46 122.5C133.2 109.86 137.46 96.7602 138.53 83.5702C139.42 72.4502 139.84 64.4402 139.75 56.8002Z" fill="#263238"/>
<path d="M135.66 58.4702C134.35 57.2402 128.56 58.0402 125.06 62.2102C121.56 66.3802 119.48 72.4402 123.73 75.6902C127.71 78.7402 143.18 62.5102 135.66 58.4702Z" fill="#2AC38D"/>
<path d="M183.15 76.7702C186.03 75.7102 187.26 72.0002 186.4 69.0502C185.54 66.1002 183.13 63.8602 180.56 62.1702C174.677 58.372 167.656 56.7387 160.7 57.5502C154.249 55.497 147.375 55.1525 140.75 56.5502C136.44 57.5476 132.562 59.8978 129.683 63.257C126.804 66.6162 125.076 70.8082 124.75 75.2202C114.48 77.6402 109.99 90.2202 116.33 103.72C120.94 113.48 131.33 120.23 132.62 125.09L171.56 94.8302C173.08 97.2002 177.78 97.3102 179.7 96.3702C181.62 95.4302 182.82 91.9502 181.54 90.2302C183.326 90.4424 185.124 89.9363 186.537 88.8233C187.95 87.7102 188.863 86.0814 189.075 84.2952C189.287 82.509 188.781 80.7116 187.668 79.2985C186.555 77.8855 184.926 76.9724 183.14 76.7602L183.15 76.7702Z" fill="#263238"/>
<path d="M140.75 56.5601C136.51 57.6829 132.725 60.098 129.92 63.4701C128.521 65.1216 127.4 66.9892 126.6 69.0001C125.818 71.006 125.353 73.1212 125.22 75.2701V75.6001L124.9 75.6801C122.485 76.2451 120.277 77.4788 118.53 79.2401C116.803 81.0202 115.534 83.1922 114.83 85.5701C113.52 90.4239 113.754 95.5654 115.5 100.28C117.206 105.043 119.859 109.411 123.3 113.12C124.97 115.04 126.73 116.88 128.42 118.79C129.27 119.79 130.12 120.7 130.88 121.79C131.681 122.791 132.285 123.934 132.66 125.16C132.215 123.969 131.554 122.871 130.71 121.92C129.904 120.938 129.05 119.997 128.15 119.1C126.36 117.28 124.54 115.49 122.82 113.6C121.071 111.724 119.466 109.718 118.02 107.6C116.584 105.445 115.434 103.112 114.6 100.66C113.701 98.197 113.162 95.6171 113 93.0001C112.787 90.3915 113.065 87.7661 113.82 85.2601C114.589 82.7321 115.962 80.4292 117.82 78.5501C119.707 76.6831 122.08 75.3838 124.67 74.8001L124.32 75.2101C124.67 70.7179 126.482 66.4642 129.48 63.1001C130.961 61.4441 132.692 60.0303 134.61 58.9101C136.507 57.7817 138.584 56.9869 140.75 56.5601Z" fill="black"/>
<path d="M283.45 140.81C285.59 138.99 285.98 138.52 288.86 136.21C291 134.5 292.71 133.11 293.26 132.11C294.34 130.11 293.33 128.18 292.43 128.5C290.62 129.14 288.48 130.67 284.31 133.5C279.72 136.65 276.48 139.76 276.24 139.26C277.72 137.205 279.355 135.266 281.13 133.46C286.75 127.39 287.85 126.29 288.88 124.34C291.06 120.28 288 119.61 286.66 120.45C285.13 121.45 283.47 123.24 279.45 127.23C275.09 131.56 271.29 135.97 270.94 135.71C270.59 135.45 276.63 128.84 280.25 124C283.6 119.51 281.42 117.61 280.46 117.46C279.5 117.31 278.27 118.61 276.65 120.35C273.72 123.54 265.2 134 263.42 136C261.64 138 260.29 138.72 260.06 135.49C259.84 132.49 259.99 129.23 258.67 127.14C256.46 123.65 254.02 124.51 254.01 126.84C254.01 130.14 253.22 133.84 252.64 139.11C252.33 141.86 252.38 145.11 252.32 147.05C251.98 153.74 246.37 157.2 241.7 160.42C237.03 163.64 224.31 170.89 224.31 170.89C224.31 170.89 200.59 146.46 193.67 140.48C185.45 133.36 183.1 132.86 171.49 132.95L187.91 175.18C187.91 175.18 210.23 195.83 217.81 200.24C225.39 204.65 228.47 202.24 237.68 194.07C244.75 187.8 256.39 173.43 259.2 170.24C262.01 167.05 263.2 164.99 266.49 163.79C270.92 162.17 273.2 159.94 276.15 156.56C277.56 154.95 279.89 151.71 282.04 149.56C284.946 146.802 288.015 144.22 291.23 141.83C293.17 140.2 293.47 136.83 290.75 137.91C285.59 139.91 280.42 144.27 280.25 143.98C280.08 143.69 282 142.05 283.45 140.81Z" fill="#FFBDA7"/>
<path d="M261.86 141C264.23 144.49 264.76 152.74 262.45 157.65C267.22 153 266.72 144.59 261.86 141Z" fill="#F0997A"/>
<path d="M224.31 170.93C220.38 173.5 215.69 180.93 217.03 188.57C215.32 182.93 213.84 175.89 222.46 168.87L224.31 170.93Z" fill="#F0997A"/>
<path d="M111 145.34L120.15 141.68C120.15 141.68 133.8 138.14 145.15 135.68C157.15 134.17 167.46 133.04 167.46 133.04L171.51 132.97C171.51 132.97 180.51 140.89 187.1 148.2C193.69 155.51 199.48 161.62 199.85 170.85C200.34 183.32 192.33 187.85 192.33 187.85L192.82 203.74L203.23 233.19L102.63 291.25C105.69 255.4 113.63 249.49 118.12 224.64C117.26 211.64 110.79 193.8 109.69 184.74C105.85 153.45 111 145.34 111 145.34Z" fill="#2AC38D"/>
<path d="M132.26 129.72C132.64 125.33 133.26 116.6 133.26 116.6C132.17 118.05 126.26 120.06 122.26 114.38C117.6 107.83 118.34 103.14 121.59 100C125.29 96.4204 131.77 97.3404 134.47 103C136.16 107 139.47 102.28 136.14 96.0004C135.03 84.9404 149.14 92.2704 157.93 69.2104C166.8 68.7104 172.15 71.2104 176.46 78.5904C178.46 81.9304 180.79 86.7404 180.31 100.67C179.69 118.41 177.02 123.99 170.81 126.96C167.95 128.33 165.01 128.85 159.5 128.44L159.45 130.14C159.442 130.535 159.462 130.929 159.51 131.32C159.536 131.811 159.743 132.276 160.089 132.624C160.436 132.973 160.899 133.182 161.39 133.21C163.422 133.29 165.456 133.233 167.48 133.04C167.48 133.04 172 144.4 157 147.63C144.389 150.318 131.228 148.196 120.1 141.68C122.332 140.536 124.481 139.236 126.53 137.79C131.16 134.44 132 132.47 132.26 129.72Z" fill="#FFBDA7"/>
<path d="M126.51 113.54C126.526 113.967 126.668 114.379 126.918 114.725C127.168 115.07 127.515 115.334 127.915 115.483C128.314 115.632 128.749 115.66 129.165 115.562C129.58 115.464 129.957 115.245 130.248 114.933C130.539 114.621 130.731 114.23 130.8 113.809C130.869 113.388 130.812 112.956 130.636 112.567C130.459 112.178 130.172 111.851 129.81 111.625C129.448 111.4 129.027 111.287 128.6 111.3C128.315 111.308 128.035 111.372 127.775 111.49C127.515 111.607 127.281 111.774 127.086 111.983C126.892 112.191 126.741 112.436 126.642 112.704C126.543 112.971 126.498 113.256 126.51 113.54Z" fill="#FAFAFA"/>
<path d="M154.84 111.17L164.48 114.17C164.307 114.813 164.008 115.415 163.599 115.94C163.191 116.466 162.681 116.904 162.101 117.23C161.521 117.556 160.881 117.763 160.22 117.839C159.559 117.914 158.889 117.857 158.25 117.67C156.951 117.239 155.87 116.32 155.234 115.108C154.599 113.896 154.457 112.485 154.84 111.17Z" fill="#B16668"/>
<path d="M155.47 113.39C156.753 113.348 158.011 113.753 159.029 114.535C160.047 115.318 160.761 116.429 161.05 117.68C160.137 117.955 159.163 117.955 158.25 117.68C157.332 117.379 156.516 116.829 155.892 116.091C155.269 115.353 154.863 114.456 154.72 113.5C154.968 113.448 155.218 113.411 155.47 113.39Z" fill="#F28F8F"/>
<path d="M176.58 87.0706L170.51 85.6206C170.586 85.2211 170.742 84.8412 170.968 84.5038C171.195 84.1665 171.488 83.8787 171.829 83.658C172.171 83.4373 172.553 83.2882 172.954 83.2199C173.355 83.1516 173.765 83.1654 174.16 83.2606C174.975 83.4652 175.68 83.9743 176.13 84.6831C176.58 85.3919 176.741 86.2464 176.58 87.0706Z" fill="#263238"/>
<path d="M147.001 86.7603L152.911 84.5303C152.789 84.1319 152.585 83.7634 152.313 83.4481C152.04 83.1328 151.705 82.8776 151.329 82.6989C150.953 82.5201 150.543 82.4217 150.127 82.4099C149.711 82.3981 149.296 82.4731 148.911 82.6302C148.126 82.946 147.492 83.5491 147.137 84.3166C146.782 85.0841 146.733 85.9581 147.001 86.7603Z" fill="#263238"/>
<path d="M170.62 94.9406C170.585 95.6238 170.812 96.2947 171.254 96.8167C171.696 97.3387 172.321 97.6726 173 97.7506C173.336 97.7863 173.675 97.7542 173.997 97.656C174.32 97.5577 174.619 97.3955 174.878 97.179C175.137 96.9624 175.349 96.696 175.502 96.3956C175.655 96.0952 175.747 95.767 175.77 95.4306C175.807 94.7406 175.576 94.063 175.125 93.5394C174.674 93.0158 174.038 92.6867 173.35 92.6206C173.018 92.5905 172.683 92.6269 172.365 92.7277C172.047 92.8285 171.753 92.9917 171.498 93.2077C171.244 93.4237 171.036 93.6882 170.885 93.9857C170.734 94.2833 170.644 94.6079 170.62 94.9406Z" fill="#263238"/>
<path d="M149.47 95.0703C149.428 95.761 149.656 96.4411 150.106 96.9672C150.555 97.4932 151.191 97.8242 151.88 97.8903C152.216 97.9275 152.556 97.8964 152.879 97.7987C153.202 97.701 153.502 97.5389 153.761 97.3221C154.02 97.1053 154.232 96.8383 154.385 96.5372C154.538 96.2362 154.628 95.9072 154.65 95.5703C154.692 94.8807 154.464 94.2018 154.014 93.6773C153.564 93.1528 152.928 92.824 152.24 92.7603C151.906 92.7245 151.567 92.7564 151.245 92.854C150.923 92.9516 150.624 93.1129 150.366 93.3284C150.107 93.5439 149.895 93.8092 149.741 94.1084C149.587 94.4077 149.495 94.7348 149.47 95.0703Z" fill="#263238"/>
<path d="M159.46 128.45C153.717 127.907 148.118 126.335 142.93 123.81C140.082 122.172 137.828 119.672 136.49 116.67C136.555 118.399 136.985 120.093 137.75 121.644C138.515 123.195 139.599 124.567 140.93 125.67C145.93 129.87 159.47 131.29 159.47 131.29C159.412 130.9 159.392 130.505 159.41 130.11L159.46 128.45Z" fill="#F0997A"/>
<path d="M152.31 190C157.19 185.85 159.67 184.21 162.02 183.39C164.37 182.57 172.52 178.55 175.68 177.55C177.68 176.91 178.68 180.1 176.26 182.49C174.37 184.33 169.32 186.91 167.12 188.3C164.92 189.69 160.79 195.41 160.79 195.41L152.31 190Z" fill="#F0997A"/>
<path d="M141.24 226.44C125.24 235.52 111.24 246.83 95.7302 249.16C80.6102 251.42 80.1402 238.9 80.4102 229.57C80.7502 217.79 87.3502 180.85 90.7802 168.57C94.4202 155.5 96.7802 150.68 110.95 145.36C122.65 153.03 119.95 178.36 117.46 188.03C114.81 198.12 110.52 216.97 110.52 216.97C110.52 216.97 128.96 211.16 133.39 208.82C137.82 206.48 145.24 196.52 148.17 193.33C152.17 188.99 154.3 189.4 156.47 189.59C163.6 190.21 165.19 190.7 166.74 191.59C167.202 191.867 167.586 192.256 167.857 192.721C168.128 193.186 168.277 193.712 168.29 194.25C170.18 194.37 172.98 194.13 173.54 197.19C173.749 197.993 173.84 198.822 173.81 199.65C174.29 199.703 174.736 199.922 175.07 200.27C176.75 201.98 174.46 208.41 172.86 210.04C171.73 211.19 170.04 211.43 167.79 211.27C165.87 211.13 166.63 209.14 166.63 209.14L163.98 209.47C158.5 213.91 158.23 220.47 150.75 222.73C147.412 223.482 144.206 224.733 141.24 226.44Z" fill="#FFBDA7"/>
<path d="M168.29 194.2L159.8 193H168C168.173 193.378 168.272 193.786 168.29 194.2Z" fill="#F0997A"/>
<path d="M173.81 199.6L164.08 198.96L173.75 198.48C173.811 198.85 173.831 199.226 173.81 199.6Z" fill="#F0997A"/>
<path d="M172.8 203.93C172.52 204.444 172.096 204.864 171.58 205.14C171.074 205.437 170.529 205.663 169.96 205.81L170.08 205.71C169.86 206.23 169.61 206.71 169.37 207.25L169.15 207.01C169.415 206.944 169.692 206.934 169.96 206.983C170.229 207.031 170.485 207.136 170.71 207.29C171.133 207.591 171.453 208.013 171.63 208.5C171.382 208.092 171.039 207.749 170.63 207.5C170.224 207.29 169.755 207.234 169.31 207.34L168.94 207.44L169.09 207.09C169.32 206.57 169.55 206.09 169.81 205.55V205.47H169.89C170.43 205.336 170.956 205.152 171.46 204.92C171.98 204.701 172.439 204.362 172.8 203.93Z" fill="#F0997A"/>
<path d="M170.32 205.34C169.17 205.563 168.008 205.716 166.84 205.8C166.68 206.537 166.304 207.209 165.76 207.73C165.202 208.33 164.607 208.894 163.98 209.42L166.63 209.09C166.63 209.09 167.21 207.86 169.57 207.25L170.32 205.34Z" fill="#F0997A"/>
<path d="M111.32 213.46L110.52 216.95C103.71 219.17 96.5204 224.47 95.1104 228.36C96.0004 222.27 99.3404 217.48 111.32 213.46Z" fill="#F0997A"/>
<path d="M182.75 88.3601L181.75 88.2301C178.4 87.8801 173.94 87.8001 171.25 88.6901C167.77 89.8501 166.57 91.1301 164.54 91.1801C162.34 91.1801 160.89 89.9501 156.79 88.8401C153.45 87.9601 147.79 88.1201 143.29 88.5901L141.86 88.7501C141.37 88.8829 140.94 89.1775 140.638 89.586C140.337 89.9945 140.182 90.4928 140.2 91.0001C140.362 91.9891 140.831 92.9021 141.54 93.6101C141.756 93.9329 141.912 94.292 142 94.6701C142.46 96.5101 142.73 100.1 143.67 102.08C144.115 103.066 144.739 103.961 145.51 104.72C145.8 104.998 146.115 105.249 146.45 105.47L147 105.81C147.511 106.088 148.051 106.309 148.61 106.47L148.88 106.54L149.3 106.64L149.75 106.71C150.213 106.786 150.681 106.83 151.15 106.84H151.75H152.49C158.12 106.47 160.32 103.62 161.55 100.84C162.78 98.0601 162.28 94.3901 164.66 94.3301H164.88C164.95 94.3197 165.02 94.3197 165.09 94.3301C166.84 94.6901 166.8 98.0601 168.02 100.47C168.487 101.427 169.097 102.307 169.83 103.08C169.963 103.221 170.103 103.355 170.25 103.48L170.47 103.66L170.7 103.84L170.91 103.99L171.14 104.14L171.32 104.24L171.44 104.31C172.081 104.662 172.772 104.912 173.49 105.05H173.67C174.466 105.187 175.276 105.221 176.08 105.15C177.554 105.13 178.977 104.612 180.119 103.681C181.261 102.75 182.054 101.46 182.37 100.02C182.9 98.2201 182.87 95.1001 183.05 93.4701C183.08 93.1699 183.183 92.8815 183.35 92.6301C183.808 91.935 184.054 91.1223 184.06 90.2901C184 89.3301 183.32 88.4301 182.75 88.3601ZM160.09 98.3601C159.848 99.7836 159.242 101.12 158.33 102.24C157.569 103.07 156.641 103.729 155.607 104.176C154.573 104.622 153.456 104.845 152.33 104.83C151.181 104.969 150.016 104.807 148.948 104.36C147.88 103.913 146.947 103.196 146.24 102.28C146.17 102.19 146.11 102.09 146.05 102C145.983 101.915 145.923 101.825 145.87 101.73C145.813 101.648 145.763 101.561 145.72 101.47L145.59 101.24L145.5 101.05C145.469 100.995 145.443 100.939 145.42 100.88C145.42 100.79 145.33 100.7 145.29 100.6C145.18 100.32 145.08 100.05 144.99 99.7801C144.94 99.6201 144.89 99.4501 144.85 99.2901C144.81 99.1301 144.7 98.7401 144.65 98.5001V98.3501C144.65 98.3501 144.65 98.2601 144.65 98.2101C144.22 96.2701 143.72 92.4801 144.73 91.6201C145.74 90.7601 148.31 89.8601 152.45 90.2001H152.89C153.512 90.2618 154.129 90.3586 154.74 90.4901C154.98 90.4901 155.22 90.5901 155.46 90.6501C156.065 90.7899 156.66 90.9703 157.24 91.1901L157.79 91.4001C158 91.4801 158.19 91.5801 158.38 91.6701L158.5 91.7301L158.71 91.8401C159.174 92.0627 159.586 92.3794 159.92 92.7701C160.62 93.8501 160.47 96.2401 160.09 98.3301V98.3601ZM181.48 96.7101C181.34 98.0701 181.03 101.06 178.69 102.52C177.904 103 177.01 103.275 176.09 103.32C175.014 103.48 173.914 103.338 172.913 102.911C171.912 102.484 171.049 101.788 170.42 100.9L170.31 100.74C170.265 100.68 170.225 100.616 170.19 100.55C170.163 100.519 170.14 100.486 170.12 100.45L169.96 100.17L169.79 99.8401C169.79 99.7801 169.74 99.7301 169.72 99.6701C169.716 99.6403 169.716 99.61 169.72 99.5801C169.696 99.5388 169.676 99.4953 169.66 99.4501V99.3401C169.488 98.9033 169.344 98.4557 169.23 98.0001C168.73 96.0001 168.4 93.7001 169.03 92.5901C169.66 91.4801 172.25 90.2801 174.73 89.9201C175.3 89.8401 175.83 89.7901 176.33 89.7701H177.47H177.73L178.16 89.8201C178.429 89.8497 178.697 89.8964 178.96 89.9601H179.14H179.19H179.32H179.51L179.75 90.0401L180.13 90.1901H180.2C180.518 90.3303 180.815 90.5155 181.08 90.7401C181.75 91.6101 181.65 95.0001 181.48 96.6801V96.7101Z" fill="#37474F"/>
<path d="M141.12 89.6304L128.3 98.0004C129.673 98.1993 130.959 98.7935 132 99.7104L141.84 93.0104L141.12 89.6304Z" fill="#37474F"/>
<path d="M172.38 105.44L164.58 109.35L162.58 96.95C162.611 96.482 162.736 96.0251 162.95 95.6073C163.163 95.1894 163.459 94.8195 163.82 94.52L172.38 105.44Z" fill="#F0997A"/>
<path opacity="0.9" d="M80.4701 300.41L80.3601 300.36L77.3601 298.59C76.956 298.357 76.61 298.035 76.3484 297.649C76.0869 297.262 75.9165 296.822 75.8501 296.36C75.8501 296.22 75.8501 296.08 75.8501 295.94V290.88C75.8857 289.764 76.232 288.68 76.8501 287.75L80.4101 289.8C79.7308 291.096 79.4064 292.548 79.4701 294.01V298.67C79.4759 298.913 79.5233 299.153 79.6101 299.38C79.7696 299.812 80.0734 300.176 80.4701 300.41Z" fill="#263238"/>
<path opacity="0.6" d="M229.4 204.24C229.081 204.119 228.737 204.078 228.399 204.122C228.06 204.165 227.738 204.292 227.46 204.49L82.3603 288C82.0789 288.169 81.8114 288.359 81.5603 288.57C81.3883 288.71 81.2278 288.864 81.0803 289.03C80.8313 289.281 80.6162 289.563 80.4403 289.87L76.8203 287.79C77.0008 287.501 77.2049 287.226 77.4303 286.97L77.6603 286.72L77.9003 286.49L78.1503 286.28C78.3148 286.148 78.4886 286.028 78.6703 285.92L223.78 202.4C224.079 202.181 224.432 202.049 224.801 202.019C225.17 201.989 225.54 202.062 225.87 202.23C226.4 202.55 228.78 203.91 229.4 204.24Z" fill="#455A64"/>
<path d="M90.3799 291.38V287.83C90.3799 287.57 90.5399 287.3 90.6999 287.3H93.8299C94.0299 287.3 94.0299 287.75 93.8299 287.99L90.6999 291.56C90.5399 291.71 90.3799 291.63 90.3799 291.38Z" fill="white"/>
<path d="M97.6602 287.17V283.62C97.6602 283.37 97.8202 283.1 97.9802 283.1H101.11C101.31 283.1 101.31 283.55 101.11 283.78L98.0002 287.33C97.8202 287.51 97.6602 287.43 97.6602 287.17Z" fill="white"/>
<path d="M101.5 285.32C101.37 285.4 101.26 285.32 101.26 285.14V281.5C101.263 281.411 101.285 281.322 101.327 281.243C101.369 281.163 101.428 281.094 101.5 281.04C101.63 280.97 101.74 281.04 101.74 281.22V284.87C101.738 284.959 101.715 285.046 101.673 285.124C101.632 285.202 101.572 285.269 101.5 285.32Z" fill="white"/>
<path d="M86.7 293.5V290C86.7 289.75 86.54 289.67 86.38 289.84L83.26 293.42C83.05 293.66 83.05 294.11 83.26 294.11H86.38C86.54 294 86.7 293.75 86.7 293.5Z" fill="white"/>
<path d="M82.8601 296.08C82.9323 296.029 82.9916 295.962 83.0332 295.884C83.0749 295.805 83.0978 295.719 83.1001 295.63V292C83.1001 291.83 82.9901 291.75 82.8601 291.82C82.7877 291.874 82.7284 291.943 82.6868 292.022C82.6452 292.102 82.6224 292.19 82.6201 292.28V295.92C82.6201 296.08 82.7301 296.16 82.8601 296.08Z" fill="white"/>
<path d="M223.32 212.47C223.247 212.468 223.177 212.437 223.125 212.385C223.073 212.333 223.043 212.264 223.04 212.19V210.57C223.041 210.522 223.055 210.474 223.079 210.432C223.104 210.39 223.138 210.355 223.18 210.33L224.48 209.58C224.544 209.543 224.619 209.533 224.691 209.552C224.762 209.571 224.823 209.617 224.86 209.68C224.878 209.711 224.889 209.745 224.894 209.78C224.899 209.816 224.896 209.851 224.887 209.886C224.878 209.92 224.862 209.952 224.84 209.981C224.818 210.009 224.791 210.032 224.76 210.05L223.59 210.73V212.19C223.59 212.263 223.562 212.332 223.512 212.385C223.461 212.437 223.393 212.467 223.32 212.47Z" fill="white"/>
<path d="M226.86 210.42C226.788 210.42 226.718 210.392 226.666 210.342C226.613 210.291 226.583 210.222 226.58 210.15V209L225.7 209.51C225.636 209.547 225.561 209.557 225.49 209.538C225.419 209.519 225.358 209.473 225.32 209.41C225.302 209.379 225.291 209.345 225.286 209.31C225.281 209.274 225.284 209.239 225.293 209.204C225.302 209.17 225.318 209.138 225.34 209.109C225.362 209.081 225.389 209.058 225.42 209.04L226.72 208.29C226.763 208.265 226.811 208.252 226.86 208.252C226.909 208.252 226.958 208.265 227 208.29C227.04 208.313 227.074 208.347 227.096 208.387C227.119 208.428 227.131 208.474 227.13 208.52V210.15C227.13 210.222 227.102 210.29 227.051 210.341C227 210.392 226.932 210.42 226.86 210.42Z" fill="white"/>
<path d="M225.56 214.24C225.513 214.241 225.465 214.229 225.423 214.207C225.381 214.184 225.346 214.151 225.32 214.11C225.284 214.047 225.274 213.971 225.292 213.9C225.311 213.829 225.357 213.768 225.42 213.73L226.58 213.06V211.59C226.583 211.518 226.614 211.449 226.666 211.399C226.718 211.348 226.788 211.32 226.86 211.32C226.932 211.32 227.001 211.349 227.051 211.399C227.102 211.45 227.13 211.519 227.13 211.59V213.22C227.131 213.268 227.119 213.315 227.096 213.357C227.074 213.399 227.041 213.435 227 213.46L225.7 214.21L225.56 214.24Z" fill="white"/>
<path d="M223.32 215.54C223.274 215.55 223.226 215.55 223.18 215.54C223.138 215.515 223.104 215.48 223.079 215.438C223.055 215.396 223.041 215.349 223.04 215.3V213.68C223.043 213.607 223.073 213.537 223.125 213.485C223.177 213.433 223.247 213.403 223.32 213.4C223.393 213.403 223.461 213.434 223.512 213.486C223.562 213.538 223.59 213.608 223.59 213.68V214.82L224.48 214.31C224.512 214.286 224.548 214.269 224.587 214.26C224.625 214.251 224.665 214.251 224.704 214.258C224.743 214.266 224.78 214.282 224.812 214.305C224.845 214.328 224.872 214.358 224.892 214.392C224.912 214.426 224.924 214.464 224.928 214.504C224.933 214.543 224.928 214.583 224.916 214.621C224.903 214.659 224.883 214.693 224.856 214.722C224.829 214.752 224.797 214.775 224.76 214.79L223.46 215.54C223.414 215.549 223.366 215.549 223.32 215.54Z" fill="white"/>
<path d="M134.37 264.81V263L106.88 278.88C106.62 279.026 106.399 279.232 106.233 279.481C106.068 279.729 105.964 280.014 105.93 280.31C105.93 280.8 106.35 280.95 106.88 280.64L134.37 264.81Z" fill="#DE002F"/>
<path opacity="0.5" d="M212.29 218.13C212.159 218.153 212.034 218.201 211.92 218.27L134.37 263V264.77L211.92 220C212.192 219.841 212.425 219.622 212.6 219.36C212.679 219.233 212.746 219.099 212.8 218.96C212.848 218.835 212.871 218.703 212.87 218.57C212.874 218.498 212.86 218.427 212.83 218.362C212.8 218.297 212.754 218.24 212.697 218.196C212.639 218.153 212.572 218.124 212.502 218.113C212.431 218.101 212.358 218.107 212.29 218.13Z" fill="white"/>
<path d="M135.75 263.25C135.738 263.765 135.607 264.27 135.367 264.726C135.128 265.183 134.787 265.577 134.37 265.88C133.61 266.31 133 265.88 133 264.83C133.007 264.317 133.135 263.812 133.373 263.357C133.611 262.902 133.952 262.509 134.37 262.21C135.12 261.77 135.75 262.23 135.75 263.25Z" fill="#DE002F"/>
<path opacity="0.5" d="M135.75 263.25C135.738 263.765 135.607 264.27 135.367 264.726C135.128 265.183 134.787 265.577 134.37 265.88C133.61 266.31 133 265.88 133 264.83C133.007 264.317 133.135 263.812 133.373 263.357C133.611 262.902 133.952 262.509 134.37 262.21C135.12 261.77 135.75 262.23 135.75 263.25Z" fill="white"/>
<path d="M135.26 263.53C135.253 263.863 135.17 264.19 135.015 264.485C134.861 264.78 134.64 265.035 134.37 265.23C133.88 265.51 133.48 265.23 133.48 264.55C133.486 264.219 133.569 263.893 133.724 263.599C133.878 263.306 134.1 263.053 134.37 262.86C134.86 262.58 135.26 262.87 135.26 263.53Z" fill="#DE002F"/>
</svg>
