<svg xmlns="http://www.w3.org/2000/svg" viewBox="0 0 750 500"><g id="freepik--background-simple--inject-22"><path d="M687.38,93.33c-12.07,1.25-26.77,5.09-33.32,6q-51.67,6.87-103.57,11.93c-56.25,5.46-112.78,9.52-169.31,9.52-84.13,0-167-17.19-250.2-26.92-19.79-2.31-79.4-15.3-88.92,11-12.35,34.13-11.15,75.42-12,111.31-.92,38.29-1.79,76.54-1.63,114.8.06,13.1,1.49,26.59,7.65,38.15,7.7,14.48,21.7,20.89,37.25,23.18,28.14,4.13,56.68,3.5,85,3.11,38.32-.54,76.6-2.74,114.84-5.13,66.19-4.13,133.44-11.92,199.82-8.76,46.6,2.22,92.53,10.52,138.35,18.84,18.55,3.37,36.79,8.39,55.57,10.48,15.22,1.69,38.45,3.48,50.75-7.87C728,393.4,728.07,370.68,729.2,358c2.44-27.32,2.36-54.9,1.73-82.29-1.18-51.34-2.78-104.75-13.07-155.24C714.37,103.35,706.29,91.36,687.38,93.33Z" style="fill:#DE002F"></path><path d="M687.38,93.33c-12.07,1.25-26.77,5.09-33.32,6q-51.67,6.87-103.57,11.93c-56.25,5.46-112.78,9.52-169.31,9.52-84.13,0-167-17.19-250.2-26.92-19.79-2.31-79.4-15.3-88.92,11-12.35,34.13-11.15,75.42-12,111.31-.92,38.29-1.79,76.54-1.63,114.8.06,13.1,1.49,26.59,7.65,38.15,7.7,14.48,21.7,20.89,37.25,23.18,28.14,4.13,56.68,3.5,85,3.11,38.32-.54,76.6-2.74,114.84-5.13,66.19-4.13,133.44-11.92,199.82-8.76,46.6,2.22,92.53,10.52,138.35,18.84,18.55,3.37,36.79,8.39,55.57,10.48,15.22,1.69,38.45,3.48,50.75-7.87C728,393.4,728.07,370.68,729.2,358c2.44-27.32,2.36-54.9,1.73-82.29-1.18-51.34-2.78-104.75-13.07-155.24C714.37,103.35,706.29,91.36,687.38,93.33Z" style="fill:#fff;opacity:0.7000000000000001"></path></g><g id="freepik--cell-culture-plate--inject-22"><circle cx="645.41" cy="321.49" r="53.4" style="fill:#fff"></circle><path d="M645.41,375.39a53.9,53.9,0,1,1,53.9-53.9A54,54,0,0,1,645.41,375.39Zm0-106.8a52.9,52.9,0,1,0,52.9,52.9A53,53,0,0,0,645.41,268.59Z" style="fill:#263238"></path><circle cx="645.41" cy="308.45" r="53.4" transform="translate(-29.07 546.72) rotate(-45)" style="fill:#fff"></circle><path d="M645.41,362.35a53.9,53.9,0,1,1,53.9-53.9A54,54,0,0,1,645.41,362.35Zm0-106.8a52.9,52.9,0,1,0,52.9,52.9A53,53,0,0,0,645.41,255.55Z" style="fill:#263238"></path><circle cx="645.41" cy="308.45" r="50.31" style="fill:#fff"></circle><path d="M645.41,359.26a50.81,50.81,0,1,1,50.81-50.81A50.86,50.86,0,0,1,645.41,359.26Zm0-100.61a49.81,49.81,0,1,0,49.81,49.8A49.86,49.86,0,0,0,645.41,258.65Z" style="fill:#263238"></path><path d="M645.41,272a52.64,52.64,0,0,0-50.29,37.11,50.29,50.29,0,0,0,100.58,0A52.62,52.62,0,0,0,645.41,272Z" style="fill:#DE002F"></path><path d="M645.41,359.26a51,51,0,0,1-50.79-50.16.4.4,0,0,1,0-.15,53.12,53.12,0,0,1,101.53,0,.39.39,0,0,1,0,.15A51,51,0,0,1,645.41,359.26Zm-49.79-50.09a49.79,49.79,0,0,0,99.58,0,52.13,52.13,0,0,0-99.58,0Z" style="fill:#263238"></path><circle cx="622.14" cy="309.59" r="4.81" style="fill:#DE002F"></circle><path d="M622.14,314.9a5.32,5.32,0,1,1,5.31-5.32A5.32,5.32,0,0,1,622.14,314.9Zm0-9.63a4.32,4.32,0,1,0,4.31,4.31A4.32,4.32,0,0,0,622.14,305.27Z" style="fill:#263238"></path><path d="M667,325.36a2.89,2.89,0,1,1-2.88-2.88A2.88,2.88,0,0,1,667,325.36Z" style="fill:#DE002F"></path><path d="M664.09,328.75a3.39,3.39,0,1,1,3.38-3.39A3.39,3.39,0,0,1,664.09,328.75Zm0-5.77a2.39,2.39,0,1,0,2.38,2.38A2.39,2.39,0,0,0,664.09,323Z" style="fill:#263238"></path><path d="M663.9,290.15a1.93,1.93,0,1,1-1.93-1.92A1.94,1.94,0,0,1,663.9,290.15Z" style="fill:#DE002F"></path><path d="M662,292.58a2.43,2.43,0,1,1,2.43-2.43A2.42,2.42,0,0,1,662,292.58Zm0-3.85a1.43,1.43,0,1,0,1.43,1.42A1.43,1.43,0,0,0,662,288.73Z" style="fill:#263238"></path><path d="M647,312.86a1.93,1.93,0,1,1-1.92-1.93A1.92,1.92,0,0,1,647,312.86Z" style="fill:#DE002F"></path><path d="M645,315.28a2.43,2.43,0,1,1,2.42-2.42A2.43,2.43,0,0,1,645,315.28Zm0-3.85a1.43,1.43,0,1,0,1.42,1.43A1.43,1.43,0,0,0,645,311.43Z" style="fill:#263238"></path><path d="M630.8,336.14a3.27,3.27,0,1,1-3.27-3.27A3.26,3.26,0,0,1,630.8,336.14Z" style="fill:#DE002F"></path><path d="M627.53,339.91a3.77,3.77,0,1,1,3.77-3.77A3.77,3.77,0,0,1,627.53,339.91Zm0-6.54a2.77,2.77,0,1,0,2.77,2.77A2.77,2.77,0,0,0,627.53,333.37Z" style="fill:#263238"></path><path d="M649.66,332.48a1.93,1.93,0,1,1-1.93-1.92A1.92,1.92,0,0,1,649.66,332.48Z" style="fill:#DE002F"></path><path d="M647.73,334.91a2.43,2.43,0,1,1,2.43-2.43A2.43,2.43,0,0,1,647.73,334.91Zm0-3.85a1.43,1.43,0,1,0,1.43,1.42A1.43,1.43,0,0,0,647.73,331.06Z" style="fill:#263238"></path><circle cx="632.15" cy="290.34" r="1.35" style="fill:#DE002F"></circle><path d="M632.15,292.19a1.85,1.85,0,1,1,1.84-1.85A1.85,1.85,0,0,1,632.15,292.19Zm0-2.69a.85.85,0,1,0,.84.84A.85.85,0,0,0,632.15,289.5Z" style="fill:#263238"></path><path d="M647,301.12a1,1,0,1,1-1-1A1,1,0,0,1,647,301.12Z" style="fill:#DE002F"></path><path d="M646,302.58a1.46,1.46,0,1,1,1.46-1.46A1.47,1.47,0,0,1,646,302.58Zm0-1.92a.46.46,0,0,0-.46.46.47.47,0,0,0,.46.46.46.46,0,0,0,.46-.46A.45.45,0,0,0,646,300.66Z" style="fill:#263238"></path><path d="M682,303.62a3.08,3.08,0,1,1-3.08-3.08A3.08,3.08,0,0,1,682,303.62Z" style="fill:#DE002F"></path><path d="M678.9,307.2a3.58,3.58,0,1,1,3.58-3.58A3.58,3.58,0,0,1,678.9,307.2Zm0-6.16a2.58,2.58,0,1,0,2.58,2.58A2.58,2.58,0,0,0,678.9,301Z" style="fill:#263238"></path></g><g id="freepik--Arrows--inject-22"><path d="M573,195.57a1,1,0,0,1-.34-.06A40.53,40.53,0,0,1,576.9,118a1,1,0,1,1,.47,1.94,38.53,38.53,0,0,0-4,73.67,1,1,0,0,1,.6,1.28A1,1,0,0,1,573,195.57Z" style="fill:#263238"></path><polygon points="569.9 199.56 581.07 196.56 572.89 188.38 569.9 199.56" style="fill:#263238"></polygon><path d="M594.41,197.12a1,1,0,0,1-.2-2,38.54,38.54,0,0,0,7.74-73,1,1,0,1,1,.8-1.83,40.53,40.53,0,0,1-8.14,76.8Z" style="fill:#263238"></path><polygon points="605.75 116.42 594.41 118.69 602.04 127.38 605.75 116.42" style="fill:#263238"></polygon></g><g id="freepik--Syringe--inject-22"><polygon points="646.48 236.54 641.93 236.54 641.36 225.91 647.04 225.91 646.48 236.54" style="fill:#fff"></polygon><path d="M646.48,237h-4.55a.5.5,0,0,1-.5-.48l-.57-10.62a.47.47,0,0,1,.14-.37.48.48,0,0,1,.36-.16H647a.52.52,0,0,1,.37.16.5.5,0,0,1,.13.37L647,236.56A.5.5,0,0,1,646.48,237Zm-4.08-1H646l.52-9.63h-4.63Z" style="fill:#263238"></path><rect x="636.42" y="218.33" width="15.57" height="8.12" style="fill:#fff"></rect><path d="M652,227H636.42a.5.5,0,0,1-.5-.5v-8.13a.5.5,0,0,1,.5-.5H652a.5.5,0,0,1,.5.5v8.13A.51.51,0,0,1,652,227Zm-15.07-1h14.57v-7.13H636.92Z" style="fill:#263238"></path><rect x="631.34" y="116.77" width="25.73" height="101.56" style="fill:#fff"></rect><path d="M657.07,218.83H631.34a.5.5,0,0,1-.5-.5V116.77a.5.5,0,0,1,.5-.5h25.73a.5.5,0,0,1,.5.5V218.33A.5.5,0,0,1,657.07,218.83Zm-25.23-1h24.73V117.27H631.84Z" style="fill:#263238"></path><rect x="633.16" y="80.52" width="22.09" height="68.9" style="fill:#fff"></rect><path d="M655.25,149.93H633.16a.5.5,0,0,1-.5-.5V80.52a.5.5,0,0,1,.5-.5h22.09a.51.51,0,0,1,.5.5v68.91A.51.51,0,0,1,655.25,149.93Zm-21.59-1h21.09V81H633.66Z" style="fill:#263238"></path><rect x="638.21" y="80.52" width="11.99" height="68.9" style="fill:#fff"></rect><path d="M650.2,149.93h-12a.5.5,0,0,1-.5-.5V80.52a.5.5,0,0,1,.5-.5h12a.51.51,0,0,1,.5.5v68.91A.51.51,0,0,1,650.2,149.93Zm-11.49-1h11V81h-11Z" style="fill:#263238"></path><polygon points="650.2 140.23 638.21 140.23 633.16 140.23 633.16 149.43 638.21 149.43 650.2 149.43 655.25 149.43 655.25 140.23 650.2 140.23" style="fill:#263238"></polygon><path d="M655.25,149.93H633.16a.5.5,0,0,1-.5-.5v-9.2a.5.5,0,0,1,.5-.5h22.09a.5.5,0,0,1,.5.5v9.2A.51.51,0,0,1,655.25,149.93Zm-21.59-1h21.09v-8.2H633.66Z" style="fill:#263238"></path><rect x="633.2" y="150.54" width="22" height="66.01" style="fill:#DE002F"></rect><path d="M655.2,217.05h-22a.5.5,0,0,1-.5-.5v-66a.5.5,0,0,1,.5-.5h22a.5.5,0,0,1,.5.5v66A.5.5,0,0,1,655.2,217.05Zm-21.5-1h21V151h-21Z" style="fill:#263238"></path><path d="M644.09,295.86a.5.5,0,0,1-.5-.5V237a.5.5,0,0,1,.5-.5.5.5,0,0,1,.5.5v58.33A.51.51,0,0,1,644.09,295.86Z" style="fill:#263238"></path><rect x="623.87" y="113.5" width="40.66" height="4.88" style="fill:#fff"></rect><path d="M664.53,118.88H623.87a.5.5,0,0,1-.5-.5V113.5a.5.5,0,0,1,.5-.5h40.66a.5.5,0,0,1,.5.5v4.88A.5.5,0,0,1,664.53,118.88Zm-40.16-1H664V114H624.37Z" style="fill:#263238"></path><path d="M640.33,141.56H635a.5.5,0,0,1,0-1h5.33a.5.5,0,0,1,0,1Z" style="fill:#263238"></path><path d="M640.33,156.66H635a.5.5,0,0,1-.5-.5.5.5,0,0,1,.5-.5h5.33a.5.5,0,0,1,.5.5A.5.5,0,0,1,640.33,156.66Z" style="fill:#263238"></path><path d="M640.33,161.7H635a.5.5,0,0,1-.5-.5.5.5,0,0,1,.5-.5h5.33a.5.5,0,0,1,.5.5A.5.5,0,0,1,640.33,161.7Z" style="fill:#263238"></path><path d="M640.33,166.73H635a.5.5,0,0,1,0-1h5.33a.5.5,0,0,1,0,1Z" style="fill:#263238"></path><path d="M640.33,171.77H635a.5.5,0,0,1-.5-.5.5.5,0,0,1,.5-.5h5.33a.5.5,0,0,1,.5.5A.5.5,0,0,1,640.33,171.77Z" style="fill:#263238"></path><path d="M640.33,176.8H635a.5.5,0,0,1,0-1h5.33a.5.5,0,0,1,0,1Z" style="fill:#263238"></path><path d="M640.33,181.83H635a.5.5,0,0,1-.5-.5.5.5,0,0,1,.5-.5h5.33a.5.5,0,0,1,.5.5A.5.5,0,0,1,640.33,181.83Z" style="fill:#263238"></path><path d="M640.33,186.87H635a.5.5,0,0,1-.5-.5.5.5,0,0,1,.5-.5h5.33a.5.5,0,0,1,.5.5A.5.5,0,0,1,640.33,186.87Z" style="fill:#263238"></path><path d="M640.33,191.9H635a.5.5,0,0,1,0-1h5.33a.5.5,0,0,1,0,1Z" style="fill:#263238"></path><path d="M640.33,196.94H635a.5.5,0,0,1-.5-.5.5.5,0,0,1,.5-.5h5.33a.5.5,0,0,1,.5.5A.5.5,0,0,1,640.33,196.94Z" style="fill:#263238"></path><path d="M640.33,202H635a.5.5,0,0,1,0-1h5.33a.5.5,0,0,1,0,1Z" style="fill:#263238"></path><path d="M640.33,207H635a.5.5,0,0,1-.5-.5.5.5,0,0,1,.5-.5h5.33a.5.5,0,0,1,.5.5A.5.5,0,0,1,640.33,207Z" style="fill:#263238"></path><rect x="625.08" y="78.09" width="38.24" height="4.07" style="fill:#fff"></rect><path d="M663.32,82.66H625.08a.51.51,0,0,1-.5-.5V78.09a.5.5,0,0,1,.5-.5h38.24a.5.5,0,0,1,.5.5v4.07A.5.5,0,0,1,663.32,82.66Zm-37.74-1h37.24V78.59H625.58Z" style="fill:#263238"></path></g><g id="freepik--Microscope--inject-22"><rect x="524.68" y="386.06" width="15.06" height="13.09" style="fill:#fff"></rect><path d="M539.74,399.65H524.68a.5.5,0,0,1-.5-.5V386.06a.5.5,0,0,1,.5-.5h15.06a.5.5,0,0,1,.5.5v13.09A.5.5,0,0,1,539.74,399.65Zm-14.56-1h14.06V386.56H525.18Z" style="fill:#263238"></path><path d="M538.36,299.63v15.46a41,41,0,0,1,17.11,4.28A26.47,26.47,0,0,1,569.58,343v31.84a17.78,17.78,0,0,1-17.77,17.78H524.42v7.65h49.74a7.66,7.66,0,0,0,7.66-7.65h0V328.48a26.63,26.63,0,0,0-8.55-19.62C555.57,292.63,538.36,299.63,538.36,299.63Z" style="fill:#DE002F"></path><path d="M574.16,400.72H524.42a.5.5,0,0,1-.5-.5v-7.65a.5.5,0,0,1,.5-.5h27.39a17.3,17.3,0,0,0,17.27-17.28V343a25.84,25.84,0,0,0-13.83-23.14,41,41,0,0,0-16.92-4.22.49.49,0,0,1-.47-.5V299.63a.49.49,0,0,1,.31-.46c.17-.08,17.71-6.94,35.44,9.32a27.19,27.19,0,0,1,8.71,20v64.09A8.17,8.17,0,0,1,574.16,400.72Zm-49.24-1h49.24a7.16,7.16,0,0,0,7.16-7.15V328.48a26.16,26.16,0,0,0-8.39-19.25c-16-14.64-31.68-10.07-34.07-9.25v14.64a41.66,41.66,0,0,1,16.84,4.3,26.85,26.85,0,0,1,14.38,24v31.84a18.3,18.3,0,0,1-18.27,18.28H524.92Z" style="fill:#263238"></path><rect x="526.07" y="258.88" width="12.29" height="56.21" style="fill:#fff"></rect><path d="M538.35,315.59H526.07a.5.5,0,0,1-.5-.5V258.88a.5.5,0,0,1,.5-.5h12.28a.5.5,0,0,1,.5.5v56.21A.5.5,0,0,1,538.35,315.59Zm-11.78-1h11.28V259.38H526.57Z" style="fill:#263238"></path><rect x="524.68" y="274.54" width="15.06" height="56.21" style="fill:#fff"></rect><path d="M539.74,331.25H524.68a.5.5,0,0,1-.5-.5V274.54a.5.5,0,0,1,.5-.5h15.06a.5.5,0,0,1,.5.5v56.21A.5.5,0,0,1,539.74,331.25Zm-14.56-1h14.06V275H525.18Z" style="fill:#263238"></path><rect x="524.68" y="257.21" width="15.06" height="4.57" style="fill:#263238"></rect><path d="M539.74,262.28H524.68a.5.5,0,0,1-.5-.5v-4.57a.5.5,0,0,1,.5-.5h15.06a.5.5,0,0,1,.5.5v4.57A.5.5,0,0,1,539.74,262.28Zm-14.56-1h14.06v-3.57H525.18Z" style="fill:#263238"></path><rect x="516.34" y="384.56" width="31.75" height="2.81" style="fill:#263238"></rect><path d="M548.09,387.87H516.34a.5.5,0,0,1-.5-.5v-2.81a.5.5,0,0,1,.5-.5h31.75a.51.51,0,0,1,.5.5v2.81A.5.5,0,0,1,548.09,387.87Zm-31.25-1h30.75v-1.81H516.84Z" style="fill:#263238"></path><rect x="522.58" y="286.94" width="19.26" height="64.7" style="fill:#fff"></rect><path d="M541.84,352.13H522.58a.5.5,0,0,1-.5-.5V286.94a.5.5,0,0,1,.5-.5h19.26a.5.5,0,0,1,.5.5v64.69A.5.5,0,0,1,541.84,352.13Zm-18.76-1h18.26V287.44H523.08Z" style="fill:#263238"></path><rect x="522.58" y="290.2" width="19.26" height="64.7" style="fill:#263238"></rect><path d="M541.84,355.4H522.58a.51.51,0,0,1-.5-.5V290.2a.5.5,0,0,1,.5-.5h19.26a.5.5,0,0,1,.5.5v64.7A.5.5,0,0,1,541.84,355.4Zm-18.76-1h18.26V290.7H523.08Z" style="fill:#263238"></path><polygon points="539.91 363.37 524.51 363.37 522.58 355.21 541.84 355.21 539.91 363.37" style="fill:#fff"></polygon><path d="M539.91,363.87h-15.4a.51.51,0,0,1-.49-.39l-1.92-8.15a.5.5,0,0,1,.48-.62h19.26a.49.49,0,0,1,.39.19.51.51,0,0,1,.1.43l-1.93,8.15A.5.5,0,0,1,539.91,363.87Zm-15-1h14.62l1.69-7.16h-18Z" style="fill:#263238"></path><rect x="528.21" y="363.24" width="8.01" height="11.15" style="fill:#fff"></rect><path d="M536.22,374.89h-8a.5.5,0,0,1-.5-.5V363.24a.5.5,0,0,1,.5-.5h8a.51.51,0,0,1,.5.5v11.15A.5.5,0,0,1,536.22,374.89Zm-7.51-1h7V363.74h-7Z" style="fill:#263238"></path><circle cx="542.22" cy="304.76" r="11.52" transform="translate(-28.81 551.36) rotate(-52.7)" style="fill:#fff"></circle><path d="M542.22,316.78a12,12,0,1,1,12-12A12,12,0,0,1,542.22,316.78Zm0-23a11,11,0,1,0,11,11A11,11,0,0,0,542.22,293.74Z" style="fill:#263238"></path><circle cx="542.22" cy="304.76" r="9.25" transform="translate(-56.69 472.67) rotate(-45)" style="fill:#fff"></circle><path d="M542.22,314.51a9.75,9.75,0,1,1,9.75-9.75A9.76,9.76,0,0,1,542.22,314.51Zm0-18.5a8.75,8.75,0,1,0,8.75,8.75A8.76,8.76,0,0,0,542.22,296Z" style="fill:#263238"></path><path d="M555.78,395l-.09,0a7.1,7.1,0,0,0-13.23,3.59l.3,15.15h22.66Z" style="fill:#263238"></path><path d="M565.42,414.23H542.76a.51.51,0,0,1-.5-.49l-.3-15.15a7.6,7.6,0,0,1,14-4,.48.48,0,0,1,.23.19l9.63,18.77a.48.48,0,0,1,0,.49A.49.49,0,0,1,565.42,414.23Zm-22.17-1H564.6l-9.14-17.8a.46.46,0,0,1-.2-.19,6.6,6.6,0,0,0-12.3,3.34Z" style="fill:#263238"></path><path d="M554.16,398.58a4.6,4.6,0,1,0-4.6,4.6A4.6,4.6,0,0,0,554.16,398.58Z" style="fill:#fff"></path><path d="M549.56,403.68a5.1,5.1,0,1,1,5.1-5.1A5.11,5.11,0,0,1,549.56,403.68Zm0-9.2a4.1,4.1,0,1,0,4.1,4.1A4.11,4.11,0,0,0,549.56,394.48Z" style="fill:#263238"></path><path d="M604.88,422.33H501.47l2-3.08a10.77,10.77,0,0,1,9.07-4.95h81.3a10.79,10.79,0,0,1,9.07,4.95Z" style="fill:#263238"></path><path d="M604.88,422.83H501.47a.51.51,0,0,1-.44-.26.52.52,0,0,1,0-.51l2-3.08a11.23,11.23,0,0,1,9.49-5.18h81.3a11.26,11.26,0,0,1,9.49,5.18l2,3.08a.5.5,0,0,1-.42.77Zm-102.49-1H604l-1.49-2.31a10.25,10.25,0,0,0-8.65-4.72h-81.3a10.22,10.22,0,0,0-8.65,4.72Z" style="fill:#263238"></path></g><g id="freepik--human-body--inject-22"><path d="M537.8,94.13s.32-4.52-1.77-7.26-6.94-2.75-9-1.94-4.2,2.26-4.68,4.68a24.44,24.44,0,0,0-.32,5.33A1.54,1.54,0,0,0,520.86,97a6.56,6.56,0,0,0,1.45,2.75s.48,2.26.81,3.23a15.93,15.93,0,0,0,2.09,3.06s.33,2.42-.8,3.23-3.88,1.45-7.75,2.74a12.32,12.32,0,0,0-8.23,9,27.46,27.46,0,0,0-.32,7.91l-1.46,9.2A24.35,24.35,0,0,0,505,146.1c-.16,4.52-1,13.55-1,13.55s1,.65-1.29,1.78-2.42,1.93-2.74,2.74-.49,2.42-1.13,2.91-2.75,0-2.42,1.61,2.58.65,2.58.65l1.45-.33v8.23c0,.81.49,1.94,1.29,1,0,0,.81,1.13,1.29.65l.79-.46a2.7,2.7,0,0,0,1.4.23c.45-.17,1.35-1.4,1.35-1.4s.22.67,1.06-.34a6.91,6.91,0,0,0,1.18-3.09c.23-.84,1-5.44,1.18-6.22a36.49,36.49,0,0,0,0-4.94l-.17-1.79s3.65-9.93,4.27-12.29a53.13,53.13,0,0,0,1.51-6.84c.22-2,1.18-6,1.18-6l.39-.17s.06,9.49-.17,10.72-1.9,3.53-1.74,6.45-.84,7.85-1.12,9.54A45.38,45.38,0,0,0,512.7,179c.89,9.37,2.77,14.62,3.86,18.79s.8,6.84.3,10.81.3,5.75,1.69,10.81,3.86,10.41,4.16,12.39-.59,2.18-1.09,3.37-3.17,4.27-3.27,5.56.79,2.28,3.27,3,4.26.69,5.45-.89a4.81,4.81,0,0,0,1.19-3.77c-.09-1.19-.39-1.39,0-2.48a5.38,5.38,0,0,0,.6-3.57c-.3-1.88-.1-.2-.89-4.07s.1-8.92.1-11.1a68.64,68.64,0,0,0-.5-9.92c-.5-2.58-.59-1.39-.89-5s.2-4,.2-6.54a20.63,20.63,0,0,0-.5-4.56s2-10.31,2.08-10.71,1.59-7.24,1.59-7.24a1.1,1.1,0,0,1,.79.6c.2.49,2.78,17.25,2.78,17.25a14.29,14.29,0,0,0-.89,4.46c.1,1.79,1.19,6.84,1.19,6.84s-.8,3.18-1.49,8.13.4,10.12.3,13.19a29,29,0,0,1-.7,6c-.29,1.39-.79,3.37-.29,4.86l.49,1.49a21.49,21.49,0,0,0-.3,4.07c.1,1.78.9,3,2.09,3.17a2.22,2.22,0,0,0,2-.89,4,4,0,0,0,3.07.39c1.69-.49,2.88-1.19,2.48-2.58a10.21,10.21,0,0,0-1.78-3.86c-1.09-1.49-1.79-1.69-2.09-3.47a11.36,11.36,0,0,1,.4-5.46,57.53,57.53,0,0,0,4.36-12.89c1.19-6.44,1-6.84.7-9.12a39.2,39.2,0,0,1,.4-9.62c.49-2.48,4-11.4,4-18.64A102.19,102.19,0,0,0,545.62,160a43.35,43.35,0,0,1-.7-4.66,9.88,9.88,0,0,0,0-4.47c-.59-2.08-1-2.87-1.48-5.15a57.6,57.6,0,0,1-.9-6.05v-3.87s1.89,4.56,2.78,7.74.89,5.05,1.88,8,3.08,8.53,3.48,9.72-.5,3.27-.1,6.44.79,8.63,1.48,9.42,1.49-.1,1.49-.1.3,1.59.89,1.79,1.39-.4,1.39-.4a.82.82,0,0,0,1.19.6,1.93,1.93,0,0,0,1.19-1.09s1.49.59,1.29-1.39-.69-4.66-.69-5.26.1-2.48.1-2.48a4.63,4.63,0,0,0,1.78.9c.79.09,1.59.89,2.18,0s.1-1.19-1-1.89a5,5,0,0,1-2-2.08c-.8-1.19-.1-1.49-1.79-3s-2.77-2.18-2.77-3.47,1.28-9.32.09-15.07-1.78-7.24-2-8.13-2-7.64-2-7.64,1.59-6.24-1.19-11.5-6.55-4.86-9.42-6.15-5.16-1.58-5.55-2.38a8.92,8.92,0,0,1-.6-2.18s2.58-3.57,2.68-4.76l.1-1.19s1.58-.59,2-3.67S537.8,94.13,537.8,94.13Z" style="fill:#DE002F"></path></g><g id="freepik--Cells--inject-22"><circle cx="263.21" cy="307.63" r="17.4" transform="translate(-140.43 276.22) rotate(-45)" style="fill:#263238"></circle><circle cx="264.14" cy="302.97" r="7.77" style="fill:#DE002F"></circle><path d="M264.14,311.24a8.27,8.27,0,1,1,8.27-8.27A8.28,8.28,0,0,1,264.14,311.24Zm0-15.54a7.27,7.27,0,1,0,7.27,7.27A7.28,7.28,0,0,0,264.14,295.7Z" style="fill:#263238"></path><circle cx="274.33" cy="340.75" r="12.9" transform="translate(-109.52 130.92) rotate(-22.5)" style="fill:#263238"></circle><path d="M280.77,337.3a5.76,5.76,0,1,1-5.75-5.76A5.75,5.75,0,0,1,280.77,337.3Z" style="fill:#DE002F"></path><path d="M275,343.55a6.26,6.26,0,1,1,6.25-6.26A6.26,6.26,0,0,1,275,343.55ZM275,332a5.26,5.26,0,1,0,5.25,5.25A5.26,5.26,0,0,0,275,332Z" style="fill:#263238"></path><circle cx="244.65" cy="338.79" r="9.96" transform="translate(-141.28 499.06) rotate(-76.72)" style="fill:#263238"></circle><path d="M249.63,336.12a4.45,4.45,0,1,1-4.44-4.44A4.44,4.44,0,0,1,249.63,336.12Z" style="fill:#DE002F"></path><path d="M245.19,341.07a4.95,4.95,0,1,1,4.94-4.95A5,5,0,0,1,245.19,341.07Zm0-8.89a3.95,3.95,0,1,0,3.94,3.94A3.95,3.95,0,0,0,245.19,332.18Z" style="fill:#263238"></path><circle cx="258.76" cy="271.06" r="12.9" transform="translate(-41.14 46.36) rotate(-9.49)" style="fill:#263238"></circle><path d="M258.34,278.36a5.76,5.76,0,1,1,7.92-1.91A5.75,5.75,0,0,1,258.34,278.36Z" style="fill:#DE002F"></path><path d="M261.33,279.71a6.24,6.24,0,0,1-3.25-.92h0a6.25,6.25,0,1,1,3.25.92Zm-2.73-1.77a5.26,5.26,0,1,0-1.74-7.23,5.27,5.27,0,0,0,1.74,7.23Z" style="fill:#263238"></path></g><g id="freepik--Chromosome--inject-22"><path d="M210.54,286.4c5-2.87,10-6.92,12-11.13,3.09-6.7,2.59-31.15,2.36-38.49a5.2,5.2,0,0,0-10.4.33c.43,13.88,0,30.78-1.4,33.8-.52,1.14-2.55,3.33-6.54,5.77a32.5,32.5,0,0,1-7.05,3.36,32.72,32.72,0,0,1-7-3.36c-4-2.44-6-4.63-6.54-5.77-1.38-3-1.84-19.92-1.4-33.8a5.2,5.2,0,0,0-10.4-.33c-.23,7.34-.73,31.79,2.36,38.49,1.94,4.21,7,8.26,12,11.13-5.33,4.57-10.51,11.09-12.24,17-3,10-2.19,53.19-2.09,58.07a5.2,5.2,0,0,0,5.2,5.1h.1a5.2,5.2,0,0,0,5.1-5.3c-.36-17.85-.22-48.54,1.66-54.93s10-13.25,13.32-15.07c3.37,1.82,11.45,8.73,13.32,15.07s2,37.08,1.67,54.93a5.19,5.19,0,0,0,5.09,5.3h.11a5.21,5.21,0,0,0,5.2-5.1c.1-4.88.87-48.05-2.09-58.07C221.05,297.49,215.87,291,210.54,286.4Z" style="fill:#fff"></path><path d="M219.67,367h-.12a5.7,5.7,0,0,1-5.58-5.81c.36-17.82.22-48.44-1.65-54.77s-9.7-12.83-12.84-14.64c-3.13,1.81-11,8.37-12.84,14.64s-2,36.95-1.64,54.77a5.7,5.7,0,0,1-5.59,5.81h-.11a5.73,5.73,0,0,1-5.7-5.59c-.1-4.89-.87-48.13,2.11-58.22,1.84-6.25,7.24-12.64,11.87-16.73-5.69-3.35-9.89-7.34-11.58-11-3.14-6.8-2.63-31.35-2.4-38.71a5.7,5.7,0,0,1,11.4.35c-.43,13.54,0,30.67,1.35,33.59.4.86,2.19,3,6.35,5.54a33,33,0,0,0,6.78,3.27,32.81,32.81,0,0,0,6.79-3.27c4.16-2.54,5.95-4.68,6.35-5.55,1.32-2.91,1.77-20,1.35-33.58a5.7,5.7,0,0,1,5.52-5.87,5.7,5.7,0,0,1,5.88,5.52c.23,7.36.73,31.91-2.4,38.71-1.69,3.66-5.89,7.65-11.58,11,4.63,4.09,10,10.48,11.87,16.73,3,10.09,2.2,53.33,2.11,58.22A5.73,5.73,0,0,1,219.67,367ZM179.3,232.25a4.71,4.71,0,0,0-4.7,4.55c-.23,7.31-.74,31.66,2.31,38.26,1.66,3.61,6,7.58,11.77,10.91a.5.5,0,0,1,.08.81c-4.63,4-10.24,10.44-12.09,16.71-2.94,9.95-2.17,53-2.07,57.92a4.7,4.7,0,1,0,9.4-.18c-.36-17.88-.22-48.64,1.68-55.08,1.86-6.27,9.82-13.34,13.57-15.37a.49.49,0,0,1,.47,0c3.75,2,11.71,9.1,13.56,15.37,1.9,6.44,2.05,37.2,1.69,55.08a4.7,4.7,0,0,0,4.6,4.79h0a4.75,4.75,0,0,0,4.79-4.61c.09-4.88.87-48-2.07-57.92-1.85-6.27-7.46-12.74-12.09-16.71a.48.48,0,0,1-.17-.42.51.51,0,0,1,.25-.39c5.81-3.33,10.1-7.3,11.77-10.91,3-6.6,2.53-30.95,2.31-38.26a4.7,4.7,0,0,0-9.4.29c.43,13.88,0,30.84-1.44,34-.59,1.26-2.66,3.49-6.74,6a33.31,33.31,0,0,1-7.17,3.41.42.42,0,0,1-.27,0,33.32,33.32,0,0,1-7.18-3.41c-4.07-2.5-6.15-4.73-6.73-6-1.45-3.19-1.88-20.15-1.44-34a4.7,4.7,0,0,0-4.55-4.84Z" style="fill:#263238"></path><path d="M184.34,345.38h-10.4c0,1.3,0,2.56,0,3.76h10.4C184.35,347.9,184.34,346.65,184.34,345.38Z" style="fill:#DE002F"></path><path d="M184.35,349.64H174a.51.51,0,0,1-.5-.5c0-1.2,0-2.46,0-3.76a.51.51,0,0,1,.5-.5h10.4a.5.5,0,0,1,.5.5c0,1.27,0,2.52,0,3.75a.51.51,0,0,1-.14.36A.53.53,0,0,1,184.35,349.64Zm-9.9-1h9.4c0-.91,0-1.83,0-2.76h-9.4C174.44,346.83,174.45,347.75,174.45,348.64Z" style="fill:#263238"></path><path d="M184.37,242.58H174c-.06,3.51-.08,7.82,0,12.2h10.42C184.33,250.91,184.32,246.71,184.37,242.58Z" style="fill:#DE002F"></path><path d="M184.42,255.28H174a.48.48,0,0,1-.5-.48c-.09-3.74-.1-7.85,0-12.23a.49.49,0,0,1,.5-.49h10.4a.48.48,0,0,1,.36.15.47.47,0,0,1,.14.36c-.05,4.14,0,8.35,0,12.18a.51.51,0,0,1-.14.36A.48.48,0,0,1,184.42,255.28Zm-9.94-1h9.43c-.08-3.54-.09-7.4,0-11.2h-9.41C174.4,247.07,174.41,250.83,174.48,254.28Z" style="fill:#263238"></path><path d="M174.93,311.58c-.12,1.33-.23,2.74-.32,4.23H185c.1-1.54.21-3,.33-4.23Z" style="fill:#DE002F"></path><path d="M185,316.31h-10.4a.51.51,0,0,1-.5-.53c.1-1.49.2-2.91.32-4.24a.5.5,0,0,1,.5-.46h10.41a.5.5,0,0,1,.37.17.52.52,0,0,1,.13.38c-.12,1.22-.23,2.64-.33,4.21A.5.5,0,0,1,185,316.31Zm-9.87-1h9.4c.08-1.17.16-2.25.25-3.23h-9.4C175.3,313.11,175.22,314.19,175.14,315.31Z" style="fill:#263238"></path><path d="M214.63,248.68H225c0-1.64,0-3.22,0-4.69H214.61C214.63,245.56,214.63,247.13,214.63,248.68Z" style="fill:#DE002F"></path><path d="M225,249.18H214.63a.52.52,0,0,1-.36-.14.54.54,0,0,1-.14-.36c0-1.55,0-3.12,0-4.69a.51.51,0,0,1,.5-.5H225a.5.5,0,0,1,.5.49c0,1.47,0,3.05,0,4.7A.5.5,0,0,1,225,249.18Zm-9.91-1h9.41c0-1.28,0-2.52,0-3.69h-9.4C215.13,245.72,215.13,247,215.13,248.18Z" style="fill:#263238"></path><path d="M174.15,326.6h10.41c0-.63,0-1.25.05-1.87h-10.4Z" style="fill:#DE002F"></path><path d="M184.56,327.1H174.15a.5.5,0,0,1-.5-.51l.06-1.88a.5.5,0,0,1,.5-.48h10.4a.48.48,0,0,1,.36.15.46.46,0,0,1,.14.36l-.05,1.88A.5.5,0,0,1,184.56,327.1Zm-9.89-1h9.4l0-.87h-9.41Z" style="fill:#263238"></path><path d="M212.91,271.21h10.75c.09-.45.17-.91.24-1.4H213.41a6.36,6.36,0,0,1-.34,1.1A2.19,2.19,0,0,1,212.91,271.21Z" style="fill:#DE002F"></path><path d="M223.66,271.71H212.91a.49.49,0,0,1-.43-.75l.14-.26a5.52,5.52,0,0,0,.3-1,.5.5,0,0,1,.49-.38H223.9a.49.49,0,0,1,.38.17.49.49,0,0,1,.12.4c-.08.5-.16,1-.25,1.43A.49.49,0,0,1,223.66,271.71Zm-10-1h9.57c0-.13,0-.27.07-.4H213.8C213.76,270.45,213.72,270.59,213.68,270.71Z" style="fill:#263238"></path><path d="M224.91,330.83H214.5c.06,2.76.09,5.6.11,8.45H225C225,336.52,225,333.67,224.91,330.83Z" style="fill:#DE002F"></path><path d="M225,339.78H214.61a.5.5,0,0,1-.5-.5c0-2.84-.05-5.68-.11-8.44a.48.48,0,0,1,.15-.36.47.47,0,0,1,.35-.15h10.41a.49.49,0,0,1,.5.49c.06,2.84.09,5.69.11,8.46a.51.51,0,0,1-.15.35A.47.47,0,0,1,225,339.78Zm-9.92-1h9.41c0-2.44,0-4.95-.09-7.45H215C215.06,333.77,215.09,336.27,215.1,338.78Z" style="fill:#263238"></path><path d="M225,354.3h-10.4c0,1.12,0,2.22,0,3.29h10.4C225,356.62,225,355.52,225,354.3Z" style="fill:#DE002F"></path><path d="M224.93,358.09h-10.4a.51.51,0,0,1-.5-.51c0-1.07,0-2.16,0-3.29a.51.51,0,0,1,.5-.49H225a.49.49,0,0,1,.36.15.51.51,0,0,1,.14.36c0,1.22,0,2.32,0,3.28A.5.5,0,0,1,224.93,358.09Zm-9.89-1h9.4c0-.7,0-1.47,0-2.29h-9.4C215.06,355.58,215.05,356.34,215,357.09Z" style="fill:#263238"></path><path d="M224.58,320h-10.4c0,.77.07,1.55.1,2.35h10.4C224.65,321.59,224.62,320.8,224.58,320Z" style="fill:#DE002F"></path><path d="M224.68,322.88h-10.4a.5.5,0,0,1-.5-.48c0-.8-.06-1.58-.1-2.34a.55.55,0,0,1,.14-.37.5.5,0,0,1,.36-.16h10.4a.5.5,0,0,1,.5.48c0,.77.07,1.56.1,2.35a.55.55,0,0,1-.14.37A.51.51,0,0,1,224.68,322.88Zm-9.92-1h9.4l-.06-1.35h-9.4Z" style="fill:#263238"></path><path d="M214.25,262.3h10.41c.12-1.83.2-3.73.26-5.64H214.5C214.43,258.68,214.35,260.57,214.25,262.3Z" style="fill:#DE002F"></path><path d="M224.66,262.79H214.25a.51.51,0,0,1-.37-.15.52.52,0,0,1-.13-.38c.1-1.7.18-3.59.25-5.61a.5.5,0,0,1,.5-.49h10.42a.51.51,0,0,1,.36.15.55.55,0,0,1,.14.37c-.06,2-.15,3.92-.26,5.65A.5.5,0,0,1,224.66,262.79Zm-9.88-1h9.41c.09-1.43.16-3,.21-4.63H215C214.93,258.81,214.86,260.36,214.78,261.79Z" style="fill:#263238"></path><path d="M184.81,263.7H174.4q.06.72.12,1.41h10.41Q184.87,264.44,184.81,263.7Z" style="fill:#DE002F"></path><path d="M184.93,265.61H174.52a.5.5,0,0,1-.5-.45c0-.47-.08-.94-.11-1.42a.5.5,0,0,1,.49-.54h10.41a.5.5,0,0,1,.5.47c0,.48.08.95.11,1.4a.47.47,0,0,1-.12.38A.52.52,0,0,1,184.93,265.61Zm-10-1h9.4l0-.41h-9.41C175,264.34,175,264.48,175,264.61Z" style="fill:#263238"></path></g><g id="freepik--Tubes--inject-22"><path d="M175.73,140v58.4a8.41,8.41,0,0,0,16.82,0V140Z" style="fill:#fff"></path><path d="M184.14,207.3a8.92,8.92,0,0,1-8.91-8.91V140a.5.5,0,0,1,.5-.5h16.82a.5.5,0,0,1,.5.5v58.4A8.92,8.92,0,0,1,184.14,207.3Zm-7.91-66.81v57.9a7.91,7.91,0,0,0,15.82,0v-57.9Z" style="fill:#263238"></path><path d="M184.14,203.8a5.41,5.41,0,0,1-5.41-5.41V157.7h10.82v40.69A5.42,5.42,0,0,1,184.14,203.8Z" style="fill:#DE002F"></path><path d="M184.14,204.3a5.92,5.92,0,0,1-5.91-5.91V157.71a.5.5,0,0,1,.5-.5h10.82a.5.5,0,0,1,.5.5v40.68A5.92,5.92,0,0,1,184.14,204.3Zm-4.91-46.09v40.18a4.91,4.91,0,0,0,9.82,0V158.21Z" style="fill:#263238"></path><rect x="172.18" y="136.24" width="23.91" height="3.75" style="fill:#fff"></rect><path d="M196.09,140.49H172.18a.5.5,0,0,1-.5-.5v-3.75a.5.5,0,0,1,.5-.5h23.91a.5.5,0,0,1,.5.5V140A.5.5,0,0,1,196.09,140.49Zm-23.41-1h22.91v-2.75H172.68Z" style="fill:#263238"></path><path d="M206,140v58.4a8.41,8.41,0,0,0,16.82,0V140Z" style="fill:#fff"></path><path d="M214.43,207.3a8.92,8.92,0,0,1-8.91-8.91V140a.5.5,0,0,1,.5-.5h16.82a.5.5,0,0,1,.5.5v58.4A8.92,8.92,0,0,1,214.43,207.3Zm-7.91-66.81v57.9a7.91,7.91,0,0,0,15.82,0v-57.9Z" style="fill:#263238"></path><path d="M214.43,203.8a5.42,5.42,0,0,1-5.41-5.41V178.48h10.83v19.91A5.42,5.42,0,0,1,214.43,203.8Z" style="fill:#DE002F"></path><path d="M214.43,204.3a5.92,5.92,0,0,1-5.91-5.91V178.48a.5.5,0,0,1,.5-.5h10.82a.5.5,0,0,1,.5.5v19.91A5.92,5.92,0,0,1,214.43,204.3ZM209.52,179v19.41a4.91,4.91,0,0,0,9.82,0V179Z" style="fill:#263238"></path><rect x="202.48" y="136.24" width="23.91" height="3.75" style="fill:#fff"></rect><path d="M226.39,140.49H202.48a.5.5,0,0,1-.5-.5v-3.75a.5.5,0,0,1,.5-.5h23.91a.5.5,0,0,1,.5.5V140A.5.5,0,0,1,226.39,140.49Zm-23.41-1h22.91v-2.75H203Z" style="fill:#263238"></path></g><g id="freepik--DNA--inject-22"><rect x="83.57" y="69.06" width="61.16" height="3.25" style="fill:#263238"></rect><path d="M144.72,72.81H83.57a.5.5,0,0,1-.5-.5V69.06a.5.5,0,0,1,.5-.5h61.15a.5.5,0,0,1,.5.5v3.25A.5.5,0,0,1,144.72,72.81Zm-60.65-1h60.15V69.56H84.07Z" style="fill:#263238"></path><rect x="83.57" y="77.49" width="61.16" height="3.25" style="fill:#263238"></rect><path d="M144.72,81.24H83.57a.5.5,0,0,1-.5-.5V77.49a.5.5,0,0,1,.5-.5h61.15a.5.5,0,0,1,.5.5v3.25A.5.5,0,0,1,144.72,81.24Zm-60.65-1h60.15V78H84.07Z" style="fill:#263238"></path><rect x="83.57" y="401.72" width="61.16" height="3.25" style="fill:#263238"></rect><path d="M144.72,405.47H83.57a.5.5,0,0,1-.5-.5v-3.25a.5.5,0,0,1,.5-.5h61.15a.5.5,0,0,1,.5.5V405A.5.5,0,0,1,144.72,405.47Zm-60.65-1h60.15v-2.25H84.07Z" style="fill:#263238"></path><rect x="83.57" y="410.16" width="61.16" height="3.25" style="fill:#263238"></rect><path d="M144.72,413.9H83.57a.5.5,0,0,1-.5-.5v-3.24a.5.5,0,0,1,.5-.5h61.15a.5.5,0,0,1,.5.5v3.24A.5.5,0,0,1,144.72,413.9Zm-60.65-1h60.15v-2.24H84.07Z" style="fill:#263238"></path><rect x="83.57" y="121.54" width="61.16" height="3.25" style="fill:#263238"></rect><path d="M144.72,125.29H83.57a.5.5,0,0,1-.5-.5v-3.25a.5.5,0,0,1,.5-.5h61.15a.5.5,0,0,1,.5.5v3.25A.5.5,0,0,1,144.72,125.29Zm-60.65-1h60.15V122H84.07Z" style="fill:#263238"></path><rect x="83.57" y="130.75" width="61.16" height="3.25" style="fill:#263238"></rect><path d="M144.72,134.5H83.57a.5.5,0,0,1-.5-.5v-3.25a.5.5,0,0,1,.5-.5h61.15a.5.5,0,0,1,.5.5V134A.5.5,0,0,1,144.72,134.5Zm-60.65-1h60.15v-2.25H84.07Z" style="fill:#263238"></path><rect x="83.57" y="139.97" width="61.16" height="3.25" style="fill:#263238"></rect><path d="M144.72,143.71H83.57a.5.5,0,0,1-.5-.5V140a.5.5,0,0,1,.5-.5h61.15a.5.5,0,0,1,.5.5v3.24A.5.5,0,0,1,144.72,143.71Zm-60.65-1h60.15v-2.24H84.07Z" style="fill:#263238"></path><rect x="83.57" y="149.18" width="61.16" height="3.25" style="fill:#263238"></rect><path d="M144.72,152.92H83.57a.5.5,0,0,1-.5-.5v-3.24a.5.5,0,0,1,.5-.5h61.15a.5.5,0,0,1,.5.5v3.24A.5.5,0,0,1,144.72,152.92Zm-60.65-1h60.15v-2.24H84.07Z" style="fill:#263238"></path><rect x="83.57" y="191.61" width="61.16" height="3.25" style="fill:#263238"></rect><path d="M144.72,195.36H83.57a.5.5,0,0,1-.5-.5v-3.25a.5.5,0,0,1,.5-.5h61.15a.5.5,0,0,1,.5.5v3.25A.5.5,0,0,1,144.72,195.36Zm-60.65-1h60.15v-2.25H84.07Z" style="fill:#263238"></path><rect x="83.57" y="200.82" width="61.16" height="3.25" style="fill:#263238"></rect><path d="M144.72,204.57H83.57a.5.5,0,0,1-.5-.5v-3.25a.5.5,0,0,1,.5-.5h61.15a.5.5,0,0,1,.5.5v3.25A.5.5,0,0,1,144.72,204.57Zm-60.65-1h60.15v-2.25H84.07Z" style="fill:#263238"></path><rect x="83.57" y="210.03" width="61.16" height="3.25" style="fill:#263238"></rect><path d="M144.72,213.78H83.57a.5.5,0,0,1-.5-.5V210a.5.5,0,0,1,.5-.5h61.15a.5.5,0,0,1,.5.5v3.25A.5.5,0,0,1,144.72,213.78Zm-60.65-1h60.15v-2.25H84.07Z" style="fill:#263238"></path><rect x="83.57" y="219.24" width="61.16" height="3.25" style="fill:#263238"></rect><path d="M144.72,223H83.57a.5.5,0,0,1-.5-.5v-3.25a.5.5,0,0,1,.5-.5h61.15a.5.5,0,0,1,.5.5v3.25A.5.5,0,0,1,144.72,223Zm-60.65-1h60.15v-2.25H84.07Z" style="fill:#263238"></path><rect x="83.57" y="261.68" width="61.16" height="3.25" style="fill:#263238"></rect><path d="M144.72,265.43H83.57a.5.5,0,0,1-.5-.5v-3.25a.5.5,0,0,1,.5-.5h61.15a.5.5,0,0,1,.5.5v3.25A.5.5,0,0,1,144.72,265.43Zm-60.65-1h60.15v-2.25H84.07Z" style="fill:#263238"></path><rect x="83.57" y="270.89" width="61.16" height="3.25" style="fill:#263238"></rect><path d="M144.72,274.64H83.57a.5.5,0,0,1-.5-.5v-3.25a.5.5,0,0,1,.5-.5h61.15a.5.5,0,0,1,.5.5v3.25A.5.5,0,0,1,144.72,274.64Zm-60.65-1h60.15v-2.25H84.07Z" style="fill:#263238"></path><rect x="83.57" y="280.1" width="61.16" height="3.25" style="fill:#263238"></rect><path d="M144.72,283.85H83.57a.5.5,0,0,1-.5-.5V280.1a.5.5,0,0,1,.5-.5h61.15a.5.5,0,0,1,.5.5v3.25A.5.5,0,0,1,144.72,283.85Zm-60.65-1h60.15V280.6H84.07Z" style="fill:#263238"></path><rect x="83.57" y="289.31" width="61.16" height="3.25" style="fill:#263238"></rect><path d="M144.72,293.06H83.57a.5.5,0,0,1-.5-.5v-3.25a.5.5,0,0,1,.5-.5h61.15a.5.5,0,0,1,.5.5v3.25A.5.5,0,0,1,144.72,293.06Zm-60.65-1h60.15v-2.25H84.07Z" style="fill:#263238"></path><rect x="83.57" y="331.75" width="61.16" height="3.25" style="fill:#263238"></rect><path d="M144.72,335.5H83.57a.5.5,0,0,1-.5-.5v-3.25a.5.5,0,0,1,.5-.5h61.15a.5.5,0,0,1,.5.5V335A.5.5,0,0,1,144.72,335.5Zm-60.65-1h60.15v-2.25H84.07Z" style="fill:#263238"></path><rect x="83.57" y="340.96" width="61.16" height="3.25" style="fill:#263238"></rect><path d="M144.72,344.71H83.57a.5.5,0,0,1-.5-.5V341a.5.5,0,0,1,.5-.5h61.15a.5.5,0,0,1,.5.5v3.25A.5.5,0,0,1,144.72,344.71Zm-60.65-1h60.15v-2.25H84.07Z" style="fill:#263238"></path><rect x="83.57" y="350.17" width="61.16" height="3.25" style="fill:#263238"></rect><path d="M144.72,353.92H83.57a.5.5,0,0,1-.5-.5v-3.25a.5.5,0,0,1,.5-.5h61.15a.5.5,0,0,1,.5.5v3.25A.5.5,0,0,1,144.72,353.92Zm-60.65-1h60.15v-2.25H84.07Z" style="fill:#263238"></path><rect x="83.57" y="359.38" width="61.16" height="3.25" style="fill:#263238"></rect><path d="M144.72,363.13H83.57a.5.5,0,0,1-.5-.5v-3.25a.5.5,0,0,1,.5-.5h61.15a.5.5,0,0,1,.5.5v3.25A.5.5,0,0,1,144.72,363.13Zm-60.65-1h60.15v-2.25H84.07Z" style="fill:#263238"></path><path d="M113.86,376.81c-16.48,8.77-35.14,18.72-35.14,38.9a4.45,4.45,0,0,0,.21,1.32h8.84a4.45,4.45,0,0,0,.21-1.32c0-14.62,14.69-22.44,30.23-30.72,16.47-8.78,35.14-18.72,35.14-38.91S134.68,316,118.21,307.17C102.67,298.89,88,291.07,88,276.45s14.69-22.45,30.23-30.73c16.47-8.77,35.14-18.72,35.14-38.9s-18.67-30.14-35.14-38.91C102.67,159.63,88,151.81,88,137.19s14.69-22.45,30.23-30.73c16.41-8.74,35-18.64,35.14-38.67h-9.27c-.16,14.48-14.76,22.26-30.22,30.49C97.38,107.05,78.72,117,78.72,137.19s18.66,30.13,35.14,38.9c15.54,8.28,30.23,16.1,30.23,30.73s-14.69,22.44-30.23,30.72c-16.48,8.77-35.14,18.72-35.14,38.91s18.66,30.13,35.14,38.9c15.54,8.28,30.23,16.1,30.23,30.73S129.4,368.53,113.86,376.81Z" style="fill:#fff"></path><path d="M87.77,417.53H78.93a.5.5,0,0,1-.48-.36,5,5,0,0,1-.23-1.46c0-20.48,18.8-30.5,35.4-39.34h0c15.41-8.21,30-16,30-30.29S129,324,113.62,315.79C97,307,78.22,296.94,78.22,276.45S97,245.94,113.62,237.1c15.41-8.21,30-16,30-30.28s-14.56-22.08-30-30.29c-16.59-8.84-35.4-18.85-35.4-39.34S97,106.68,113.62,97.84c15.33-8.16,29.8-15.87,30-30a.5.5,0,0,1,.5-.5h9.27a.51.51,0,0,1,.5.51c-.16,20.33-18.88,30.3-35.4,39.1-15.41,8.21-30,16-30,30.29s14.56,22.07,30,30.28c16.59,8.84,35.4,18.86,35.4,39.35s-18.8,30.5-35.4,39.34c-15.41,8.21-30,16-30,30.29s14.56,22.07,30,30.28c16.6,8.84,35.4,18.86,35.4,39.35s-18.81,30.51-35.4,39.35c-15.41,8.21-30,16-30,30.28a5,5,0,0,1-.23,1.46A.5.5,0,0,1,87.77,417.53Zm-8.46-1h8.08a4,4,0,0,0,.09-.82c0-14.92,14.81-22.81,30.5-31.16,16.34-8.71,34.87-18.58,34.87-38.47S134.33,316.32,118,307.62c-15.68-8.36-30.5-16.25-30.5-31.17s14.82-22.82,30.5-31.17c16.35-8.71,34.87-18.58,34.87-38.46S134.32,177.06,118,168.35c-15.69-8.35-30.5-16.24-30.5-31.16S102.29,114.37,118,106c16.14-8.59,34.41-18.33,34.87-37.73h-8.27c-.49,14.46-15.06,22.22-30.48,30.43-16.35,8.71-34.87,18.58-34.87,38.47s18.52,29.75,34.87,38.46c15.68,8.35,30.5,16.24,30.5,31.17s-14.81,22.81-30.5,31.16c-16.35,8.71-34.87,18.58-34.87,38.47s18.52,29.76,34.87,38.46c15.68,8.35,30.5,16.24,30.5,31.17s-14.82,22.82-30.5,31.17l-.23-.44.23.44C97.74,386,79.22,395.83,79.22,415.71A4,4,0,0,0,79.31,416.53Z" style="fill:#263238"></path><path d="M112.67,311.1l-3.38,1.81c1.53.83,3.06,1.64,4.57,2.44,1.76.94,3.52,1.88,5.24,2.82,3.16-1.69,6.36-3.43,9.47-5.29-3.13-1.84-6.34-3.56-9.48-5.24C117,308.8,114.84,310,112.67,311.1Z" style="fill:#263238"></path><path d="M119.1,318.67a.46.46,0,0,1-.23-.06q-2.59-1.41-5.25-2.82c-1.51-.8-3-1.61-4.57-2.44a.51.51,0,0,1-.26-.44.48.48,0,0,1,.27-.44l3.37-1.81h0c2.17-1.15,4.32-2.3,6.42-3.46a.49.49,0,0,1,.47,0c3.07,1.64,6.34,3.39,9.5,5.24a.5.5,0,0,1,0,.86c-3.19,1.91-6.45,3.68-9.49,5.31A.48.48,0,0,1,119.1,318.67Zm-8.75-5.76,3.74,2,5,2.69c2.73-1.46,5.62-3,8.48-4.72-2.84-1.64-5.74-3.2-8.5-4.67-2,1.11-4.1,2.22-6.19,3.33Z" style="fill:#263238"></path><path d="M111.77,238.65c-3.15,1.69-6.35,3.44-9.46,5.3,3.13,1.83,6.34,3.56,9.48,5.23,2.1-1.16,4.25-2.3,6.42-3.46l3.38-1.8L117,241.47Q114.37,240.06,111.77,238.65Z" style="fill:#263238"></path><path d="M111.79,249.68a.53.53,0,0,1-.24-.06c-3.07-1.64-6.34-3.39-9.5-5.24a.51.51,0,0,1,0-.86c3.19-1.91,6.45-3.68,9.49-5.31a.49.49,0,0,1,.47,0q2.59,1.41,5.25,2.82,2.26,1.2,4.56,2.45a.48.48,0,0,1,.27.44.52.52,0,0,1-.27.44l-3.37,1.8c-2.17,1.16-4.32,2.3-6.42,3.46A.5.5,0,0,1,111.79,249.68Zm-8.5-5.74c2.83,1.64,5.74,3.2,8.5,4.67,2-1.11,4.1-2.22,6.19-3.33l2.55-1.36-3.74-2c-1.69-.9-3.37-1.79-5-2.69C109,240.68,106.15,242.26,103.29,243.94Z" style="fill:#263238"></path><path d="M111.77,99.39c-3.15,1.69-6.35,3.44-9.46,5.3,3.13,1.83,6.34,3.56,9.48,5.23,2.1-1.16,4.25-2.3,6.42-3.46l3.38-1.8L117,102.21Q114.37,100.8,111.77,99.39Z" style="fill:#263238"></path><path d="M111.79,110.42a.53.53,0,0,1-.24-.06c-3.06-1.63-6.32-3.38-9.5-5.24a.5.5,0,0,1-.24-.43.47.47,0,0,1,.24-.43c3.19-1.91,6.45-3.68,9.49-5.31a.49.49,0,0,1,.47,0q2.59,1.41,5.25,2.82,2.26,1.2,4.56,2.45a.49.49,0,0,1,.27.44.52.52,0,0,1-.27.44l-3.37,1.8c-2.17,1.16-4.32,2.3-6.42,3.46A.5.5,0,0,1,111.79,110.42Zm-8.5-5.74c2.85,1.65,5.75,3.21,8.5,4.67,2-1.11,4.1-2.22,6.19-3.33l2.55-1.37-3.74-2c-1.69-.9-3.37-1.79-5-2.69C109,101.42,106.15,103,103.29,104.68Z" style="fill:#263238"></path><path d="M118.21,385l3.38-1.81c-1.53-.83-3.06-1.64-4.57-2.44q-2.65-1.41-5.25-2.82c-3.15,1.69-6.35,3.43-9.46,5.29,3.13,1.84,6.34,3.56,9.48,5.24C113.89,387.29,116,386.14,118.21,385Z" style="fill:#263238"></path><path d="M111.79,389a.53.53,0,0,1-.24-.06c-3.07-1.64-6.33-3.39-9.5-5.24a.51.51,0,0,1-.24-.43.5.5,0,0,1,.24-.43c3.19-1.91,6.44-3.68,9.49-5.31a.49.49,0,0,1,.47,0q2.59,1.41,5.25,2.82l.22.12,4.34,2.32a.49.49,0,0,1,0,.88l-3.37,1.81c-2.17,1.15-4.32,2.3-6.42,3.46A.5.5,0,0,1,111.79,389Zm-8.5-5.74c2.84,1.64,5.74,3.2,8.5,4.67,2-1.11,4.1-2.22,6.19-3.33h0l2.55-1.37L117,381.3l-.22-.12c-1.69-.9-3.37-1.79-5-2.69C109,380,106.15,381.52,103.29,383.21Z" style="fill:#263238"></path><path d="M112.67,171.84l-3.38,1.8,4.57,2.45c1.76.94,3.52,1.88,5.24,2.82,3.16-1.69,6.36-3.44,9.47-5.3-3.13-1.83-6.34-3.56-9.48-5.23C117,169.54,114.84,170.68,112.67,171.84Z" style="fill:#263238"></path><path d="M119.11,179.41a.48.48,0,0,1-.24-.06q-2.59-1.41-5.25-2.82l-4.57-2.45a.49.49,0,0,1-.26-.44.5.5,0,0,1,.27-.44l3.37-1.8c2.17-1.16,4.32-2.3,6.42-3.46a.49.49,0,0,1,.47,0c3.08,1.63,6.34,3.39,9.51,5.24a.51.51,0,0,1,0,.86c-3.2,1.92-6.45,3.68-9.49,5.31A.46.46,0,0,1,119.11,179.41Zm-8.76-5.76,3.74,2c1.69.9,3.37,1.79,5,2.69,2.73-1.46,5.62-3,8.48-4.72-2.84-1.64-5.74-3.2-8.5-4.67-2,1.11-4.1,2.22-6.19,3.33h0Zm2.32-1.81h0Z" style="fill:#263238"></path><path d="M112,307.17C95.54,316,76.87,325.89,76.87,346.08S95.54,376.21,112,385c15.55,8.28,30.23,16.1,30.23,30.72a4.79,4.79,0,0,0,.21,1.32h8.85a4.79,4.79,0,0,0,.21-1.32c0-20.18-18.67-30.13-35.14-38.9-15.55-8.28-30.23-16.1-30.23-30.73s14.68-22.45,30.23-30.73c16.47-8.77,35.14-18.71,35.14-38.9s-18.67-30.14-35.14-38.91c-15.55-8.28-30.23-16.1-30.23-30.72s14.68-22.45,30.23-30.73c16.47-8.77,35.14-18.71,35.14-38.9s-18.67-30.14-35.14-38.91c-15.46-8.23-30.06-16-30.22-30.49H76.88c.15,20,18.73,29.93,35.13,38.67,15.55,8.28,30.23,16.1,30.23,30.73S127.56,159.63,112,167.91c-16.47,8.77-35.14,18.72-35.14,38.91S95.54,237,112,245.72c15.55,8.28,30.23,16.1,30.23,30.73S127.56,298.89,112,307.17Z" style="fill:#DE002F"></path><path d="M151.3,417.53h-8.85a.51.51,0,0,1-.48-.36,5.38,5.38,0,0,1-.23-1.46c0-14.32-14.55-22.07-30-30.28-16.6-8.84-35.41-18.86-35.41-39.35s18.81-30.51,35.4-39.34h0c15.41-8.21,30-16,30-30.28s-14.55-22.08-30-30.29c-16.6-8.84-35.41-18.86-35.41-39.34s18.81-30.51,35.41-39.35c15.41-8.21,30-16,30-30.28s-14.55-22.08-30-30.29c-16.53-8.8-35.25-18.77-35.4-39.1a.54.54,0,0,1,.14-.36.53.53,0,0,1,.36-.15h9.27a.51.51,0,0,1,.5.5C86.8,82,101.28,89.68,116.6,97.84,133.2,106.68,152,116.7,152,137.19s-18.81,30.5-35.41,39.34c-15.41,8.21-30,16-30,30.29s14.55,22.07,30,30.28C133.2,245.94,152,256,152,276.45S133.2,307,116.6,315.79c-15.41,8.21-30,16-30,30.29s14.55,22.08,30,30.29c16.6,8.84,35.41,18.86,35.41,39.34a5.38,5.38,0,0,1-.23,1.46A.51.51,0,0,1,151.3,417.53Zm-8.46-1h8.07a3.46,3.46,0,0,0,.1-.82c0-19.88-18.53-29.75-34.88-38.46C100.45,368.9,85.64,361,85.64,346.08s14.81-22.82,30.49-31.17c16.35-8.7,34.88-18.57,34.88-38.46S132.48,246.69,116.13,238c-15.68-8.35-30.49-16.24-30.49-31.16s14.81-22.82,30.49-31.17c16.35-8.71,34.88-18.57,34.88-38.46s-18.53-29.76-34.88-38.47c-15.42-8.21-30-16-30.47-30.43H77.39c.45,19.4,18.72,29.13,34.86,37.73,15.68,8.35,30.49,16.24,30.49,31.17S127.93,160,112.25,168.35c-16.35,8.71-34.88,18.58-34.88,38.47s18.53,29.75,34.87,38.46c15.69,8.35,30.5,16.24,30.5,31.17s-14.81,22.81-30.49,31.17h0c-16.34,8.7-34.87,18.57-34.87,38.46s18.53,29.76,34.88,38.46c15.68,8.36,30.49,16.25,30.49,31.17A3.46,3.46,0,0,0,142.84,416.53Z" style="fill:#263238"></path></g><g id="freepik--Character--inject-22"><path d="M295.3,118.57s-.41-11.9-.41-12.51,3.69-9.23,4.72-11.9-.19-3.66-.15-10.14c0-6.84,2.39-17-1.28-16.59-5.51.69-5.77,8.58-5.77,10.63s-2.44,4.2-3.26,5.84-5.95,1.23-7.39.41-9.6.41-13.9-1.85-8.95-5-11.82-5a4.59,4.59,0,0,1-4-2.34s-4.1-.21-6.15,2.46a6.49,6.49,0,0,0-.21,7.39c1,1.43-.61,5.54,3.29,11.69a53.89,53.89,0,0,0,11.89,12.93c2.67,2,7.19,6.56,7.8,7s3.9,8.41,3.9,8.41Z" style="fill:#DE002F"></path><path d="M272.53,125.43a.5.5,0,0,1-.46-.31,70.76,70.76,0,0,0-3.75-8.21c-.22-.14-.87-.75-2.09-1.9-1.72-1.6-4.06-3.81-5.7-5.07a54.33,54.33,0,0,1-12-13,17.84,17.84,0,0,1-2.91-9.57,4.81,4.81,0,0,0-.35-2.1,7,7,0,0,1,.21-8c2.19-2.85,6.4-2.67,6.58-2.66a.49.49,0,0,1,.42.28A4.06,4.06,0,0,0,256,76.92c2.54,0,6.15,1.94,10,4L268.09,82c2.58,1.35,6.73,1.4,9.76,1.44,2.24,0,3.54.06,4.16.42a10.1,10.1,0,0,0,5.74.4,1.51,1.51,0,0,0,.95-.6,12.77,12.77,0,0,1,1.3-1.92c.9-1.18,1.91-2.52,1.91-3.7,0-3.11.6-10.42,6.21-11.12a1.79,1.79,0,0,1,1.57.49c1.46,1.41,1.1,5.54.67,10.32-.19,2.14-.39,4.35-.4,6.27a41.09,41.09,0,0,0,.38,5.94,7.84,7.84,0,0,1-.26,4.38c-.37.94-1.06,2.61-1.8,4.42-1.19,2.88-2.82,6.83-2.89,7.33s.41,12.35.41,12.47a.48.48,0,0,1-.36.49l-22.78,6.36A.3.3,0,0,1,272.53,125.43ZM251.72,75.58c-.9,0-3.89.21-5.47,2.27a6,6,0,0,0-.19,6.79,5,5,0,0,1,.54,2.63,16.91,16.91,0,0,0,2.76,9.08,53.19,53.19,0,0,0,11.78,12.8c1.68,1.29,4,3.51,5.77,5.13.93.87,1.8,1.69,2,1.82.59.4,2.42,4.6,3.91,8.23l22-6.13c-.07-2.1-.4-11.58-.4-12.14s.74-2.29,3-7.68c.75-1.8,1.43-3.47,1.79-4.4a6.82,6.82,0,0,0,.21-3.89A42.61,42.61,0,0,1,299,84c0-2,.21-4.19.41-6.35.35-4,.75-8.44-.37-9.51a.87.87,0,0,0-.76-.22c-4.81.6-5.33,7.29-5.33,10.13,0,1.52-1.12,3-2.11,4.3a12.45,12.45,0,0,0-1.21,1.76A2.38,2.38,0,0,1,288,85.24a10.8,10.8,0,0,1-6.53-.49,13.4,13.4,0,0,0-3.67-.29c-3.13,0-7.42-.09-10.22-1.56l-2.08-1.11c-3.55-1.9-7.21-3.87-9.5-3.87A5.05,5.05,0,0,1,251.72,75.58Z" style="fill:#263238"></path><path d="M264.77,83.48l-5.68-2.84a23.65,23.65,0,0,1,.09-5.68c.46-1.74,1.28-3.94-.37-4.39s-3.84,3-3.84,3-1.56,3.21-1.84,3.94-1.83,3.39-1.65,4.12,3.3,5.59,3.3,5.59" style="fill:#DE002F"></path><path d="M254.78,87.74a.51.51,0,0,1-.42-.23A54,54,0,0,1,251,81.77c-.16-.65.39-1.83,1.2-3.43.21-.43.39-.78.47-1,.27-.74,1.78-3.85,1.85-4,.27-.44,2.48-3.82,4.43-3.29A1.81,1.81,0,0,1,260.3,72a9.82,9.82,0,0,1-.48,2.5l-.16.57a21.65,21.65,0,0,0-.1,5.23L265,83a.5.5,0,1,1-.44.89l-5.69-2.84a.52.52,0,0,1-.27-.4,23.84,23.84,0,0,1,.11-5.85l.16-.58A9.83,9.83,0,0,0,259.3,72c0-.71-.3-.89-.62-1-.89-.25-2.46,1.49-3.29,2.81h0S253.86,77,253.6,77.7c-.08.23-.28.62-.51,1.09A11,11,0,0,0,252,81.54,59,59,0,0,0,255.2,87a.5.5,0,0,1-.42.77Z" style="fill:#263238"></path><path d="M248.37,73.86s3-4.21,5-4,2,2.57,1.56,3.76-3.21,5.86-3.21,5.86,1.28,4.22,1.74,5.23" style="fill:#DE002F"></path><path d="M253.5,85.18a.49.49,0,0,1-.45-.3c-.47-1-1.72-5.11-1.77-5.28a.51.51,0,0,1,.05-.4s2.73-4.65,3.17-5.79a3.12,3.12,0,0,0-.08-2.47,1.3,1.3,0,0,0-1.06-.61c-1.27-.14-3.48,2.29-4.58,3.83a.51.51,0,0,1-.7.11.5.5,0,0,1-.12-.7c.33-.45,3.26-4.43,5.49-4.23a2.3,2.3,0,0,1,1.82,1.07,4.08,4.08,0,0,1,.16,3.36c-.42,1.09-2.6,4.84-3.13,5.75.27.86,1.27,4.11,1.66,5a.5.5,0,0,1-.25.66A.54.54,0,0,1,253.5,85.18Z" style="fill:#263238"></path><path d="M244.39,92s-2.46-9.44-2.46-10.26,2.26-9.44,4.93-10.26,2.25,2.46,2,3.7-.82,4.92-1,7,5.75,8.41,5.75,8.41" style="fill:#DE002F"></path><path d="M244.39,92.45a.5.5,0,0,1-.48-.38c-.41-1.58-2.48-9.54-2.48-10.38s2.18-9.78,5.28-10.74a2.07,2.07,0,0,1,2.09.27c.74.65.94,2,.6,4-.2,1.21-.82,4.9-1,6.94-.13,1.33,3.37,5.63,5.61,8a.5.5,0,0,1,0,.71.5.5,0,0,1-.71,0c-1-1.09-6.09-6.63-5.88-8.8s.83-5.79,1-7c.38-2.23-.06-2.89-.27-3.07a1.19,1.19,0,0,0-1.14-.06c-2.29.71-4.56,8.91-4.57,9.78,0,.59,1.51,6.53,2.45,10.13a.5.5,0,0,1-.36.61Z" style="fill:#263238"></path><path d="M278.27,107.58a.54.54,0,0,1-.35-.14,9.72,9.72,0,0,1-1.12-10.22,62.45,62.45,0,0,1,3.31-6,.5.5,0,0,1,.84.56,59.65,59.65,0,0,0-3.26,5.89,8.65,8.65,0,0,0,.94,9.07.51.51,0,0,1,0,.71A.54.54,0,0,1,278.27,107.58Z" style="fill:#263238"></path><rect x="248.52" y="77.34" width="50.67" height="13.6" style="fill:#fff"></rect><path d="M299.2,91.43H248.53a.5.5,0,0,1-.5-.5V77.34a.5.5,0,0,1,.5-.5H299.2a.5.5,0,0,1,.5.5V90.93A.5.5,0,0,1,299.2,91.43Zm-50.17-1H298.7V77.84H249Z" style="fill:#263238"></path><rect x="248.52" y="77.34" width="9.54" height="13.6" style="fill:#fff"></rect><path d="M258.06,91.43h-9.53a.5.5,0,0,1-.5-.5V77.34a.5.5,0,0,1,.5-.5h9.53a.5.5,0,0,1,.5.5V90.93A.5.5,0,0,1,258.06,91.43Zm-9-1h8.53V77.84H249Z" style="fill:#263238"></path><rect x="259.81" y="84.31" width="37.54" height="4.31" style="fill:#DE002F"></rect><path d="M297.35,89.12H259.81a.5.5,0,0,1-.5-.5V84.31a.5.5,0,0,1,.5-.5h37.54a.5.5,0,0,1,.5.5v4.31A.5.5,0,0,1,297.35,89.12Zm-37-1h36.54V84.81H260.31Z" style="fill:#263238"></path><path d="M255.78,104.21s-13-8.4-13-9.76,2.65-14.86,3.09-16.91,5-4.43,5.31-.16-.81,12.47-.81,12.47,7,5.69,8.67,6.5" style="fill:#DE002F"></path><path d="M255.78,104.71a.53.53,0,0,1-.27-.08c-4.94-3.2-13.24-8.76-13.24-10.18s2.73-15.27,3.1-17a4.33,4.33,0,0,1,4-2.93c.62,0,2.08.4,2.26,2.84.28,3.87-.58,10.79-.78,12.28a99.36,99.36,0,0,0,8.36,6.27.5.5,0,1,1-.44.9c-1.66-.83-8.47-6.33-8.76-6.56a.53.53,0,0,1-.19-.46c0-.08,1.12-8.19.81-12.36-.08-1.22-.53-1.86-1.33-1.91a3.34,3.34,0,0,0-3,2.13c-.45,2.11-3.08,15.53-3.08,16.81.32.86,6.75,5.44,12.78,9.34a.5.5,0,0,1,.15.69A.51.51,0,0,1,255.78,104.71Z" style="fill:#263238"></path><path d="M332.07,420.45s-.36-20.49-3.66-50.86,13.91-118.2,13.91-118.2-24.52-13.54-30.74-17.94-32.94-34.39-34-37.69S264.37,124.4,268,123.31s28.18-7,28.18-7,4,11.35,4.39,12.44,16.47,46.85,23.42,49,21.23,8.78,25.25,10.25,10.25,1.46,15.74,1.83,20.86,2.56,20.86,2.56,25.61,2.56,36.22,6.59,30.74,24.15,36.23,32.2,22.69,43.55,23.79,60S469.3,374,469.3,374l5.12,48.67" style="fill:#fff"></path><path d="M474.42,423.15a.49.49,0,0,1-.49-.45L468.8,374a.76.76,0,0,1,0-.15c.14-.67,13.88-66.36,12.8-82.57-1.1-16.53-18.25-51.78-23.7-59.77-5.56-8.16-25.73-28.12-36-32-10.43-4-35.85-6.53-36.1-6.55s-15.44-2.2-20.85-2.56c-1.11-.08-2.26-.14-3.41-.2-4.52-.23-9.18-.47-12.46-1.66-1.49-.54-4.38-1.78-7.72-3.22-5.85-2.51-13.13-5.64-17.51-7-7.29-2.31-23.59-48.89-23.74-49.36-.32-1-3.51-9.94-4.24-12-3.32.8-24.38,5.84-27.72,6.84-2.76,2.61,8.39,67.45,9.85,71.82,1,3,27.64,33.06,33.85,37.45s30.44,17.76,30.69,17.9a.5.5,0,0,1,.25.53c-.17.88-17.15,88.1-13.9,118s3.66,50.71,3.66,50.91a.49.49,0,0,1-.49.51.48.48,0,0,1-.51-.49c0-.2-.4-20.82-3.65-50.82-3.16-29.12,12.65-111.83,13.84-118-2.9-1.61-24.68-13.7-30.47-17.79s-33-34.23-34.22-37.94-12.5-67.31-9.78-72.54a1,1,0,0,1,.6-.55c3.63-1.09,27.2-6.72,28.2-7a.5.5,0,0,1,.59.32c.16.46,4,11.36,4.39,12.45,1.93,5.77,16.95,46.77,23.1,48.71,4.43,1.4,11.73,4.54,17.6,7.06,3.33,1.43,6.21,2.67,7.67,3.2,3.14,1.14,7.73,1.37,12.17,1.6,1.16.06,2.31.12,3.43.2,5.44.36,20.74,2.54,20.9,2.56s25.78,2.62,36.33,6.62S453,222.52,458.74,231c5.48,8,22.76,43.58,23.87,60.26,1.08,16.22-12,79.11-12.8,82.76l5.11,48.6a.5.5,0,0,1-.44.55Z" style="fill:#263238"></path><path d="M402,246.15a.5.5,0,0,1-.49-.44.5.5,0,0,1,.43-.56,153.06,153.06,0,0,0,27.88-7.24.5.5,0,0,1,.34.94A154,154,0,0,1,402,246.14Z" style="fill:#263238"></path><path d="M394.42,244.8a.49.49,0,0,1-.49-.42c-1.08-6.46.72-19.51.8-20.06a.51.51,0,0,1,.57-.43.5.5,0,0,1,.42.57c0,.13-1.86,13.45-.81,19.76a.49.49,0,0,1-.41.57Z" style="fill:#263238"></path><path d="M414.87,246.15a.49.49,0,0,1-.49-.41.49.49,0,0,1,.4-.58c.18,0,17.74-3.25,22.73-5.88a.5.5,0,0,1,.47.89c-5.13,2.7-22.29,5.84-23,6Z" style="fill:#263238"></path><path d="M333,218.24a.51.51,0,0,1-.48-.37l-1.32-4.77a.5.5,0,1,1,1-.27l1.32,4.77a.51.51,0,0,1-.35.62Z" style="fill:#263238"></path><path d="M342.32,251.89a.5.5,0,0,1-.48-.37l-8.21-29.72a.5.5,0,0,1,.35-.62.5.5,0,0,1,.61.35l7.14,25.86-.64-30.76a.5.5,0,0,1,.49-.51h0a.51.51,0,0,1,.5.49l.73,34.77a.51.51,0,0,1-.43.5Z" style="fill:#263238"></path><path d="M297.31,192.24a.5.5,0,0,1-.16-1c9.61-3.2,18.32-15.78,18.41-15.91a.5.5,0,1,1,.82.57c-.36.53-9,13-18.92,16.29Z" style="fill:#263238"></path><path d="M294.38,200.29a.5.5,0,0,1-.2-1,41.4,41.4,0,0,0,4.65-2.35.49.49,0,0,1,.68.18.5.5,0,0,1-.17.68,40.28,40.28,0,0,1-4.77,2.41A.43.43,0,0,1,294.38,200.29Z" style="fill:#263238"></path><path d="M302.28,195.85a.49.49,0,0,1-.41-.21.51.51,0,0,1,.12-.7,57.84,57.84,0,0,0,12.11-11.55.5.5,0,0,1,.81.59,58.63,58.63,0,0,1-12.34,11.78A.52.52,0,0,1,302.28,195.85Z" style="fill:#263238"></path><path d="M382.21,285.92h-.12a.5.5,0,0,1-.37-.61c2.9-12,11.65-33.16,11.73-33.37a.5.5,0,0,1,.93.38c-.09.21-8.8,21.33-11.69,33.23A.49.49,0,0,1,382.21,285.92Z" style="fill:#263238"></path><path d="M374.89,410.71a.51.51,0,0,1-.5-.45s-.26-2.52-.64-6.62a.51.51,0,0,1,.45-.55.52.52,0,0,1,.55.45c.38,4.1.63,6.61.63,6.62a.49.49,0,0,1-.44.54Z" style="fill:#263238"></path><path d="M373.91,400.38a.51.51,0,0,1-.5-.46c-.62-7-1.15-13.75-1.58-20.05-1.09-15.95.35-42.25.36-42.51a.49.49,0,0,1,.53-.48.5.5,0,0,1,.47.53c0,.26-1.45,26.5-.37,42.39.43,6.29,1,13,1.59,20a.5.5,0,0,1-.45.54Z" style="fill:#263238"></path><path d="M418.39,139.77s-6.37,1.82-7.65,5.27a27.48,27.48,0,0,1-5.28,8.74c-1.64,1.64-10.92,3.1-12.38,5.65s-8.74,12.92-11.29,22.21-.36,14,1.1,16.2,7.82,8.38,10.37,9.47,5.83,2.19,5.83,2.19,2,13.1,1.64,16.56-5.46,18-3.64,18.21,21.12-11.65,31-16.39,14.2-6,14.2-6l10.2-1.82a12.35,12.35,0,0,0,4-7.65c.73-5.1-4.19-4.73-8.92-16.39s-3.1-42.05-11.11-49.15-14.2-9.84-14.2-9.84Z" style="fill:#fff"></path><path d="M397.11,244.77H397a.83.83,0,0,1-.6-.36c-.73-1.08.31-5.1,2.11-11.6a62.54,62.54,0,0,0,1.68-6.8c.32-3.07-1.29-14.16-1.59-16.14-.86-.29-3.48-1.2-5.57-2.1-2.78-1.19-9.18-7.52-10.6-9.65-2.69-4-3.08-9.62-1.16-16.61,2.12-7.71,7.49-16.21,10.08-20.3.56-.89,1-1.58,1.26-2,.94-1.64,4.35-2.74,7.66-3.8,2.06-.66,4.19-1.34,4.8-1.95a27,27,0,0,0,5.16-8.56c1.28-3.47,7.09-5.32,7.9-5.56l3.75-2.68a.48.48,0,0,1,.49,0c.26.11,6.36,2.84,14.34,9.91,4.88,4.33,6.24,16.71,7.56,28.67.91,8.22,1.76,16,3.67,20.68a33.87,33.87,0,0,0,6.48,10.56c1.73,2,2.87,3.33,2.48,6.08a12.73,12.73,0,0,1-4.2,8,.55.55,0,0,1-.22.1l-10.19,1.82s-4.41,1.31-14.07,6c-4.4,2.11-10.81,5.72-16.48,8.9C402.54,242.44,398.28,244.77,397.11,244.77Zm.16-.93h0Zm25-106.23-3.59,2.56a.55.55,0,0,1-.15.08c-.07,0-6.15,1.79-7.32,5a28.3,28.3,0,0,1-5.39,8.92c-.78.78-2.83,1.43-5.21,2.19-2.83.91-6.35,2-7.09,3.35-.27.45-.71,1.16-1.29,2.07-2.55,4-7.88,12.46-10,20-1.84,6.7-1.5,12,1,15.8,1.45,2.16,7.78,8.26,10.16,9.28s5.76,2.16,5.79,2.17a.47.47,0,0,1,.33.4c.09.54,2,13.21,1.65,16.7a62.85,62.85,0,0,1-1.71,7c-1,3.62-2.68,9.62-2.29,10.69,1.26-.19,8-4,14.06-7.4,5.68-3.19,12.11-6.81,16.53-8.94,9.76-4.69,14.1-6,14.28-6l10.12-1.81a12.17,12.17,0,0,0,3.73-7.25c.32-2.3-.59-3.36-2.25-5.28a35,35,0,0,1-6.64-10.85c-2-4.82-2.83-12.65-3.74-20.94-1.3-11.78-2.65-24-7.24-28A64.34,64.34,0,0,0,422.27,137.61Zm-3.88,2.16h0Z" style="fill:#263238"></path><polygon points="399.09 209.5 413.01 208.91 400.53 219.26 399.09 209.5" style="fill:#263238"></polygon><path d="M400.53,219.76a.57.57,0,0,1-.18,0,.49.49,0,0,1-.31-.4l-1.44-9.76a.46.46,0,0,1,.1-.39.51.51,0,0,1,.37-.18l13.92-.59a.5.5,0,0,1,.49.32.48.48,0,0,1-.15.56l-12.48,10.36A.52.52,0,0,1,400.53,219.76Zm-.86-9.79,1.23,8.34,10.65-8.84Z" style="fill:#263238"></path><path d="M382.89,197.84c1.45,2.19,7.82,8.38,10.37,9.47s5.83,2.19,5.83,2.19l9.65-2.73s3.09-1.46,9.65-.55a92.59,92.59,0,0,0,14.38.55l-1.45-1.83s-20.4.37-22.58-1.27-2.55-4-.91-8.74,7.1-16.38,7.1-16.38l21.12,10-1.28-3.1a164.44,164.44,0,0,1-19.48-9.65c-8.37-5.09-22.21-16.38-22.21-16.38-1.45,2.55-8.74,12.92-11.29,22.21S381.43,195.66,382.89,197.84Z" style="fill:#DE002F"></path><path d="M399.09,210a.45.45,0,0,1-.16,0s-3.32-1.11-5.86-2.2c-2.78-1.19-9.18-7.52-10.6-9.65h0c-2.69-4-3.08-9.62-1.16-16.61,2.12-7.71,7.49-16.21,10.08-20.3.56-.89,1-1.58,1.26-2a.47.47,0,0,1,.34-.24.5.5,0,0,1,.41.1c.14.11,13.9,11.33,22.15,16.35A164,164,0,0,0,435,185a.5.5,0,0,1,.28.27l1.27,3.1a.5.5,0,0,1-.67.64l-20.67-9.8c-1,2.2-5.44,11.76-6.87,15.88-1.74,5-1,6.87.74,8.18,1.49,1.12,14.45,1.32,22.27,1.17a.54.54,0,0,1,.4.19l1.45,1.82a.49.49,0,0,1-.36.81,92.23,92.23,0,0,1-14.48-.55c-6.29-.87-9.34.49-9.37.51L399.23,210ZM383.3,197.57c1.45,2.16,7.78,8.26,10.16,9.28,2.2.94,5,1.9,5.64,2.12l9.5-2.69c.06,0,3.23-1.48,9.86-.56a88.94,88.94,0,0,0,13.3.58l-.68-.85c-3,.05-20.45.26-22.64-1.38-2.46-1.84-2.76-4.45-1.08-9.3s7.06-16.32,7.12-16.44a.51.51,0,0,1,.28-.26.55.55,0,0,1,.38,0l19.95,9.46-.7-1.7A166.5,166.5,0,0,1,415,176.24c-7.46-4.54-19.36-14.08-21.81-16.06-.26.42-.59.95-1,1.57-2.55,4-7.88,12.46-10,20-1.84,6.7-1.5,12,1,15.8Z" style="fill:#263238"></path><path d="M410,179.38a.59.59,0,0,1-.23,0c-.81-.41-1.85-1-3.09-1.68a.49.49,0,0,1-.19-.68.5.5,0,0,1,.68-.19c1.23.7,2.26,1.26,3.05,1.65a.5.5,0,0,1,.22.68A.49.49,0,0,1,410,179.38Z" style="fill:#263238"></path><path d="M404,176a.59.59,0,0,1-.25-.07c-6.3-3.73-14.09-8.7-14.17-8.75a.5.5,0,1,1,.54-.84c.08,0,7.86,5,14.14,8.72a.51.51,0,0,1,.18.69A.52.52,0,0,1,404,176Z" style="fill:#263238"></path><path d="M406.76,190.46l-.16,0c-.58-.2-14.45-4.84-18.49-7.36a.51.51,0,0,1-.16-.69.5.5,0,0,1,.69-.15c3.94,2.45,18.14,7.2,18.28,7.25a.5.5,0,0,1-.16,1Z" style="fill:#263238"></path><path d="M401.57,202.81a34.19,34.19,0,0,1-3.78-.2.49.49,0,0,1-.44-.55.49.49,0,0,1,.55-.44,34.93,34.93,0,0,0,4.57.18.53.53,0,0,1,.51.49.5.5,0,0,1-.49.51Z" style="fill:#263238"></path><path d="M394.72,202.15h-.09a32,32,0,0,1-8.76-2.93.5.5,0,1,1,.48-.87,32.06,32.06,0,0,0,8.47,2.82.5.5,0,0,1,.39.59A.49.49,0,0,1,394.72,202.15Z" style="fill:#263238"></path><path d="M418.39,139.77a219.68,219.68,0,0,1,9.83,27.85A94.86,94.86,0,0,1,432,198.75c0,1.28-3.64,6.56-3.27,9.29s8.55,8.37,10,11.29,4.37,5.64,5.83,5.82,9.28,3.1,17.29-1.45,7.83-8,6.37-12.93-3.09-6.55-2.54-8,4.18.18,13.65-10.74,6.74-27.68,2.37-39.69-38.6-25.13-43.33-25.67-15.48,6.91-17.85,9.28S418.39,139.77,418.39,139.77Z" style="fill:#DE002F"></path><path d="M452.09,226.73a28.07,28.07,0,0,1-6.65-.88,8.43,8.43,0,0,0-.9-.2c-1.73-.22-4.75-3.18-6.21-6.1-.61-1.22-2.63-3.09-4.58-4.9-2.7-2.5-5.25-4.86-5.48-6.54-.25-1.86,1.1-4.58,2.18-6.78a11.75,11.75,0,0,0,1.09-2.58c0-.11,0-.33,0-.63a97.36,97.36,0,0,0-3.83-30.36A220.62,220.62,0,0,0,417.93,140a.57.57,0,0,1,0-.14c0-.18-.14-1.77,2.33-4.24,2.21-2.22,13.2-10,18.25-9.43,4.16.48,39.23,13.57,43.75,26,3.57,9.82,8,28.11-2.46,40.19-6.78,7.82-10.66,9.29-12.52,10-.67.26-1,.38-1.05.59-.23.63.11,1.4.73,2.81a38.48,38.48,0,0,1,1.83,4.88c1.45,4.89,1.83,8.71-6.6,13.5A20.08,20.08,0,0,1,452.09,226.73Zm-33.2-87.08a226.27,226.27,0,0,1,9.81,27.83,98.34,98.34,0,0,1,3.86,30.69c0,.28,0,.47,0,.58a9.43,9.43,0,0,1-1.19,3c-1,2-2.29,4.64-2.09,6.19.18,1.33,2.83,3.79,5.17,5.95,2.11,2,4.11,3.8,4.8,5.18,1.37,2.75,4.19,5.4,5.44,5.56a9.19,9.19,0,0,1,1,.21c2.53.61,9.24,2.22,16-1.61,7.82-4.44,7.53-7.63,6.14-12.35a38,38,0,0,0-1.79-4.75c-.71-1.6-1.13-2.56-.75-3.58.24-.63.82-.85,1.63-1.16,1.78-.68,5.49-2.09,12.11-9.73,10.13-11.69,5.78-29.57,2.28-39.19-4.24-11.66-37.63-24.74-42.92-25.35-4.41-.51-14.94,6.65-17.43,9.14C419.07,138.15,418.9,139.37,418.89,139.65Z" style="fill:#263238"></path><path d="M422.76,144.27a.5.5,0,0,1-.39-.18.52.52,0,0,1,.07-.71c.13-.1,3-2.44,5.29-3a.5.5,0,0,1,.61.37.49.49,0,0,1-.36.6,17.48,17.48,0,0,0-4.91,2.82A.51.51,0,0,1,422.76,144.27Z" style="fill:#263238"></path><path d="M427.49,148.28a.5.5,0,0,1,0-1l4.37-.37a.5.5,0,1,1,.08,1l-4.37.36Z" style="fill:#263238"></path><path d="M427.67,158.84a.5.5,0,0,1-.09-1,34.78,34.78,0,0,0,4.42-1,.5.5,0,0,1,.45.89,37.8,37.8,0,0,1-4.68,1.14Z" style="fill:#263238"></path><path d="M430.41,169.21a.5.5,0,0,1-.16-1,16.23,16.23,0,0,1,4.52-.75.5.5,0,0,1,.5.5.5.5,0,0,1-.5.5,15.41,15.41,0,0,0-4.21.7A.39.39,0,0,1,430.41,169.21Z" style="fill:#263238"></path><path d="M433.86,177.77a.5.5,0,0,1,0-1c.51,0,3.06-.43,4.65-.72a.5.5,0,1,1,.18,1C438.27,177.11,434.62,177.77,433.86,177.77Z" style="fill:#263238"></path><path d="M438.6,187.6h-4.74a.5.5,0,0,1-.5-.5.51.51,0,0,1,.5-.5h4.74a.51.51,0,0,1,.5.5A.5.5,0,0,1,438.6,187.6Z" style="fill:#263238"></path><path d="M435.35,199.39a4.58,4.58,0,0,1-1.89-.37.5.5,0,0,1-.23-.67.51.51,0,0,1,.67-.23,4.62,4.62,0,0,0,3.93-.36.5.5,0,0,1,.67.22.52.52,0,0,1-.22.68A6.56,6.56,0,0,1,435.35,199.39Z" style="fill:#263238"></path><path d="M434.75,208.65a8.11,8.11,0,0,1-4.64-1.3.5.5,0,0,1,.59-.8,7.82,7.82,0,0,0,5.46,1c3.66-.54,8.67-1.29,12.09,0a.51.51,0,0,1-.37.94c-3.16-1.24-8-.51-11.57,0A9.59,9.59,0,0,1,434.75,208.65Z" style="fill:#263238"></path><path d="M456.62,219.65a.5.5,0,0,1-.41-.22c-3.16-4.56-11.36-8.16-11.44-8.2a.5.5,0,1,1,.4-.92c.35.15,8.54,3.76,11.86,8.55a.51.51,0,0,1-.12.7A.52.52,0,0,1,456.62,219.65Z" style="fill:#263238"></path><path d="M466.64,196a.54.54,0,0,1-.21,0,16.59,16.59,0,0,0-3-.68.5.5,0,1,1,.17-1,19.35,19.35,0,0,1,3.25.75.49.49,0,0,1,.25.66A.49.49,0,0,1,466.64,196Z" style="fill:#263238"></path><path d="M440.42,197.8a.5.5,0,0,1-.22-1,56.23,56.23,0,0,1,8.27-3.31c2.7-.77,8.93-.12,11.49.2a.49.49,0,0,1,.43.56.5.5,0,0,1-.56.43c-5.19-.64-9.33-.73-11.08-.23a56.43,56.43,0,0,0-8.11,3.25A.59.59,0,0,1,440.42,197.8Z" style="fill:#263238"></path><path d="M456.83,199.27a78,78,0,0,1-11-.93.5.5,0,0,1,.16-1c.1,0,10,1.61,15.85.55a.5.5,0,0,1,.18,1A29.82,29.82,0,0,1,456.83,199.27Z" style="fill:#263238"></path><path d="M437.32,171.22a.48.48,0,0,1-.41-.23.49.49,0,0,1,.14-.69c.09-.06,9.23-6.07,15.76-8.43a.5.5,0,0,1,.64.3.49.49,0,0,1-.3.64c-6.42,2.32-15.46,8.26-15.55,8.32A.49.49,0,0,1,437.32,171.22Z" style="fill:#263238"></path><path d="M469.69,161.5a.49.49,0,0,1-.36-.15.5.5,0,0,1,0-.71,19.08,19.08,0,0,0,2.52-2.76.49.49,0,0,1,.69-.14.5.5,0,0,1,.15.69,19.77,19.77,0,0,1-2.67,2.94A.48.48,0,0,1,469.69,161.5Z" style="fill:#263238"></path><path d="M449.23,170.83a35.08,35.08,0,0,1-6.18-.53.51.51,0,0,1-.39-.59.49.49,0,0,1,.59-.39c.11,0,11.71,2.25,19.09-3,1.38-1,2.68-2,3.85-2.91a.49.49,0,0,1,.7.07.48.48,0,0,1-.07.7c-1.19,1-2.5,2-3.9,3C458.71,170.13,453.33,170.83,449.23,170.83Z" style="fill:#263238"></path><path d="M471,149.55l-.16,0s-3.18-1-7.09-2.16a.49.49,0,0,1-.34-.62.5.5,0,0,1,.62-.34c3.93,1.14,7.09,2.15,7.12,2.16a.5.5,0,0,1,.32.63A.49.49,0,0,1,471,149.55Z" style="fill:#263238"></path><path d="M434.41,149.55a.49.49,0,0,1-.45-.28.5.5,0,0,1,.23-.67c.42-.2,10.31-5,14.17-5.51,1.52-.21,5.32.49,11.3,2.1a.5.5,0,0,1,.35.61.48.48,0,0,1-.61.35c-7.29-2-9.94-2.21-10.9-2.07-3.7.53-13.77,5.37-13.87,5.42A.59.59,0,0,1,434.41,149.55Z" style="fill:#263238"></path><path d="M452.8,149h0a111.87,111.87,0,0,0-11.59,0,.48.48,0,0,1-.53-.47.5.5,0,0,1,.47-.53,111,111,0,0,1,11.71,0,.5.5,0,0,1,0,1Z" style="fill:#263238"></path><path d="M413.88,160.15c-.86,1.43-2.15,2.23-2.89,1.78s-.64-2,.23-3.39,2.15-2.23,2.89-1.78S414.75,158.72,413.88,160.15Z" style="fill:#263238"></path><path d="M430.05,171.46l-9.29-12.75h0a42.56,42.56,0,0,0-10.39-10.21c-5.14-4.34-5.93-3.95-6.41-3.72a12.12,12.12,0,0,0-3.89,6,4.93,4.93,0,0,0,.65,4.25.91.91,0,0,0,.74.38,1,1,0,0,0,.53-.17c.4-.3.83-.21.53-.62a4.83,4.83,0,0,1-.76-3.08,11.07,11.07,0,0,1,2.86-5,27.68,27.68,0,0,1,4,2.87,45,45,0,0,0-3.47,6.23c-.93,2.42-1.63,5.31.25,8.44a6.59,6.59,0,0,0,4.39,3.18,6,6,0,0,0,1.09.1,6.81,6.81,0,0,0,4.23-1.57,28.94,28.94,0,0,0,4.91-5l8.55,11.73a.89.89,0,0,0,1.27.2A.91.91,0,0,0,430.05,171.46Zm-16-7.1a4.5,4.5,0,0,1-7-1.21c-1.47-2.46-.93-4.75-.11-6.86a42,42,0,0,1,3.22-5.78,42.33,42.33,0,0,1,8.83,8.74A27.58,27.58,0,0,1,414,164.36Z" style="fill:#263238"></path><path d="M419.66,156.29a.5.5,0,0,1-.48-.37c-1.84-6.53-5.29-6-5.44-6a.49.49,0,0,1-.57-.41.5.5,0,0,1,.4-.58c.18,0,4.47-.72,6.57,6.73a.5.5,0,0,1-.34.62Z" style="fill:#263238"></path><path d="M372.39,293.17s-25.78-8.16-35.87-10.31-11.39,0-12.46,1.07-12.67,13.53-14,16.11-2.79,12.89-1.72,14.18,1.72,2.57,4.08-.65a49.1,49.1,0,0,0,4.3-7.52s-.43,12.46.21,15a9.5,9.5,0,0,0,2.58,4.3l.86,1.71s-1.29,1.94-.86,3.23,3.65,2.57,6.23.21a65,65,0,0,1,8-5.58,37.18,37.18,0,0,0,8.16-4.08c3.22-2.37,12-7.74,12-7.74l10.31,3.65L375.61,294Z" style="fill:#DE002F"></path><path d="M322.56,332.36a4.72,4.72,0,0,1-1.23-.16,3.1,3.1,0,0,1-2.25-1.72c-.41-1.22.39-2.78.76-3.4l-.7-1.39a10,10,0,0,1-2.65-4.48c-.49-1.94-.39-9.1-.3-12.86a42.2,42.2,0,0,1-3.32,5.52c-1.14,1.54-2,2.21-2.77,2.22s-1.36-.64-1.88-1.27l-.22-.28c-1.36-1.63.46-12.35,1.65-14.72,1.35-2.7,13-15.2,14.06-16.24l.18-.19c1.18-1.24,3-3.1,12.73-1,9.93,2.11,35.25,10.11,35.91,10.32l3.21.85a.54.54,0,0,1,.33.28.5.5,0,0,1,0,.43L364.67,317a.5.5,0,0,1-.61.25L354,313.69c-1.33.82-8.89,5.46-11.79,7.59a36.74,36.74,0,0,1-8.24,4.13,64.06,64.06,0,0,0-7.82,5.5A5.27,5.27,0,0,1,322.56,332.36Zm-5.8-26.81.11,0a.5.5,0,0,1,.39.5c0,.13-.42,12.42.2,14.9a8.88,8.88,0,0,0,2.42,4,.57.57,0,0,1,.12.15l.86,1.72a.52.52,0,0,1,0,.5c-.32.48-1.09,1.92-.81,2.79a2.24,2.24,0,0,0,1.56,1.06,4.09,4.09,0,0,0,3.86-1.06,64.12,64.12,0,0,1,8-5.64l.09,0a36.36,36.36,0,0,0,8-4c3.2-2.35,12-7.7,12.07-7.75a.48.48,0,0,1,.42-.05l9.9,3.5,10.91-21.82-2.63-.7h0c-.26-.08-25.87-8.18-35.83-10.29-9.22-2-10.83-.28-11.79.73l-.21.21c-1.36,1.36-12.66,13.57-13.86,16-1.34,2.68-2.64,12.61-1.78,13.64l.23.29c.4.49.78.89,1.07.9s.9-.32,2-1.81a49.42,49.42,0,0,0,4.24-7.43A.51.51,0,0,1,316.76,305.55Z" style="fill:#263238"></path><path d="M316.76,306.55a.39.39,0,0,1-.15,0,.5.5,0,0,1-.33-.62l1.07-3.44a.59.59,0,0,1,.11-.19l12.68-13.75a.5.5,0,0,1,.7,0,.5.5,0,0,1,0,.71l-12.59,13.66-1,3.33A.48.48,0,0,1,316.76,306.55Z" style="fill:#263238"></path><path d="M319.55,325.89l-.12,0a.5.5,0,0,1-.36-.61l4.08-16.32a.45.45,0,0,1,.14-.24l12.89-12a.49.49,0,0,1,.7,0,.5.5,0,0,1,0,.71l-12.78,11.93-4,16.18A.51.51,0,0,1,319.55,325.89Z" style="fill:#263238"></path><path d="M320.41,327.6a.5.5,0,0,1-.31-.1.51.51,0,0,1-.08-.71c.41-.52,10.12-12.7,11-13.57s4.8-4.18,5-4.33a.51.51,0,0,1,.71.06.51.51,0,0,1-.06.71s-4.08,3.43-4.91,4.27c-.67.66-7.43,9.11-10.92,13.49A.5.5,0,0,1,320.41,327.6Z" style="fill:#263238"></path><path d="M431.61,263.46s-6.95,9.52-8.05,12.81-5.49,32.57-5.49,32.57l-44.28-18.3-13.54,30s35.5,28.18,52.7,36.59,36.59,18.67,40.25,17.2,19-30.37,22-46.47,8-35.5,4.75-51.23-15.37-28.91-20.86-32.21" style="fill:#fff"></path><path d="M452.29,375c-4.16,0-14.88-5.16-31.24-13.27l-8.32-4.12c-17.06-8.34-52.44-36.37-52.79-36.65a.51.51,0,0,1-.15-.6l13.54-30a.5.5,0,0,1,.65-.26l43.69,18.05c.66-4.39,4.39-28.95,5.41-32,1.11-3.33,7.84-12.55,8.12-12.94a.49.49,0,0,1,.7-.11.5.5,0,0,1,.11.7c-.07.09-6.92,9.49-8,12.67s-5.42,32.19-5.47,32.48a.49.49,0,0,1-.25.37.5.5,0,0,1-.43,0l-43.83-18.11L360.87,320.4c3.51,2.77,36.18,28.41,52.3,36.3,2.74,1.34,5.54,2.73,8.33,4.11,14.09,7,28.65,14.21,31.51,13.07,3.43-1.37,18.68-29.76,21.65-46.1.49-2.7,1-5.48,1.61-8.33,2.75-13.92,5.88-29.7,3.15-42.71-3.25-15.57-15.23-28.64-20.62-31.88a.48.48,0,0,1-.17-.68.5.5,0,0,1,.68-.18c5.52,3.31,17.77,16.67,21.09,32.53,2.77,13.21-.38,29.1-3.15,43.12-.56,2.84-1.11,5.62-1.6,8.31-2.88,15.82-18.08,45.17-22.27,46.85A3.08,3.08,0,0,1,452.29,375Z" style="fill:#263238"></path><path d="M448.08,322.88a.5.5,0,0,1-.39-.18,23.61,23.61,0,0,0-3.49-3.42.51.51,0,0,1-.08-.71.52.52,0,0,1,.71-.07,24.53,24.53,0,0,1,3.63,3.56.5.5,0,0,1-.07.71A.51.51,0,0,1,448.08,322.88Z" style="fill:#263238"></path><path d="M441.18,317.05a.56.56,0,0,1-.27-.08c-8.66-5.32-19.51-6.89-19.62-6.9a.5.5,0,0,1-.42-.57.48.48,0,0,1,.56-.42c.11,0,11.16,1.61,20,7a.5.5,0,0,1-.26.93Z" style="fill:#263238"></path><path d="M440.39,326.9a.51.51,0,0,1-.4-.2c-5-6.79-14-12.25-14.13-12.31a.5.5,0,0,1,.52-.86c.09.06,9.29,5.63,14.41,12.58a.5.5,0,0,1-.1.7A.55.55,0,0,1,440.39,326.9Z" style="fill:#263238"></path></g></svg>