<svg xmlns="http://www.w3.org/2000/svg" viewBox="0 0 500 500"><g id="freepik--background-complete--inject-67"><path d="M487.45,330.42c0,.15-100.82.27-225.17.27s-225.2-.12-225.2-.27,100.81-.26,225.2-.26S487.45,330.28,487.45,330.42Z" style="fill:#e0e0e0"></path><path d="M421.19,267.16c-7.11-9.26-9.32-27-4.3-37.54a33.31,33.31,0,0,0,10.65,9.84,83.49,83.49,0,0,1-5.14-17.59l9.16-7.06c1.23,2.61,2.14,8,4.54,10.69-2.46-4-1.6-13,1.32-15.66a33.15,33.15,0,0,1,12.13-6.64,91,91,0,0,1,17.14-4.07c3.86-.49,8.2-.5,11.14,2.05,4.19,3.62,3.25,10.71-.31,14.95s-8.9,6.43-13.83,8.92a97.47,97.47,0,0,0-42.5,42.11" style="fill:#ebebeb"></path><path d="M381.06,224.24c7.11-9.25,9.31-27,4.29-37.54a33.16,33.16,0,0,1-10.64,9.84A84.06,84.06,0,0,0,379.84,179l-9.15-7.06c-1.23,2.62-2.15,8-4.54,10.69,2.45-4,1.6-13-1.33-15.66a33.11,33.11,0,0,0-12.12-6.64,92.11,92.11,0,0,0-17.14-4.07c-3.87-.48-8.2-.5-11.15,2-4.18,3.62-3.25,10.72.31,15s8.9,6.43,13.84,8.92a97.52,97.52,0,0,1,42.5,42.11" style="fill:#f5f5f5"></path><path d="M400.43,205.38c3.95-5.18,9.85-8.45,14.73-12.76s9-10.69,7.42-17l-8.79,2.71c9.52-5,14.2-17.64,10.27-27.65l-3,.54c3.68-2,5.92-6,6.65-10.17s.11-8.37-.77-12.46a96.36,96.36,0,0,0-6.62-19.91c-2.58,1.76-5.88,2-8.93,2.65s-6.34,2.3-7.17,5.32c-1.31,4.77,4.32,9.17,3.64,14.07a22.75,22.75,0,0,0-10.1-7.59c-.16,3.67-4.56,6.38-4.08,10a8.21,8.21,0,0,0,1.62,3.38l12.13,17.58a147,147,0,0,1-21.53-10.36c1.27,21.5,4.78,42.43,14.52,61.64" style="fill:#f5f5f5"></path><path d="M468.35,213.7a1.33,1.33,0,0,1-.3.2l-.9.54c-.79.48-2,1.11-3.47,2.05a104,104,0,0,0-12,8.66c-1.23,1-2.42,2.09-3.72,3.21s-2.55,2.37-3.83,3.69a100.74,100.74,0,0,0-7.81,8.76c-1.29,1.61-2.47,3.37-3.72,5.14-.61.89-1.27,1.77-1.86,2.7L429,251.51c-1.23,1.88-2.2,4-3.31,6-.56,1-1,2.11-1.49,3.18s-1,2.13-1.45,3.24a117.86,117.86,0,0,0-7.21,25.86,138.66,138.66,0,0,0-1.72,21.9c-.06,3.13.13,6,.2,8.45s.34,4.6.47,6.36l.42,4c.05.44.08.78.1,1.05a1.42,1.42,0,0,1,0,.36s0-.12-.07-.35-.08-.61-.15-1c-.12-.95-.3-2.3-.53-4s-.36-3.88-.56-6.37-.32-5.32-.29-8.46a135.1,135.1,0,0,1,1.61-22,116.09,116.09,0,0,1,7.2-26c.44-1.12,1-2.19,1.45-3.27s.94-2.17,1.51-3.19c1.12-2,2.09-4.14,3.33-6l1.75-2.86c.6-.94,1.26-1.82,1.88-2.71,1.25-1.78,2.44-3.54,3.75-5.16a100,100,0,0,1,7.89-8.77c1.29-1.32,2.62-2.51,3.87-3.68s2.51-2.24,3.75-3.2a99.13,99.13,0,0,1,12.16-8.54c1.5-.91,2.73-1.51,3.54-2l.93-.49Z" style="fill:#e0e0e0"></path><path d="M393.26,329.16a2.75,2.75,0,0,1,0-.43c0-.31,0-.74-.05-1.28,0-1.15-.1-2.79-.16-4.9s-.14-4.74-.17-7.76-.11-6.48-.09-10.29c0-7.62.11-16.69.43-26.77S394.1,256.6,395,245s2-22.63,3.16-32.64,2.42-19,3.59-26.53c.55-3.77,1.14-7.17,1.63-10.15s.95-5.56,1.33-7.65.69-3.69.9-4.83c.1-.53.19-.94.25-1.25a2.9,2.9,0,0,1,.1-.42,2.74,2.74,0,0,1-.05.43c0,.31-.11.73-.19,1.26-.18,1.14-.45,2.77-.79,4.84s-.78,4.68-1.23,7.67-1,6.39-1.55,10.16c-1.12,7.53-2.31,16.53-3.48,26.53s-2.22,21-3.11,32.62-1.44,22.65-1.82,32.71-.53,19.14-.56,26.75c0,3.81,0,7.26,0,10.28s0,5.64.07,7.77,0,3.75,0,4.9v1.28A2,2,0,0,1,393.26,329.16Z" style="fill:#e0e0e0"></path><path d="M361.62,190.92a6.84,6.84,0,0,1,.55.7l1.5,2.06c.65.89,1.43,2,2.29,3.31s1.88,2.79,2.9,4.48,2.19,3.53,3.32,5.56,2.33,4.21,3.56,6.52c2.38,4.66,4.82,9.88,7.07,15.48s4.05,11.08,5.53,16.1c.7,2.52,1.39,4.91,1.91,7.18s1,4.38,1.42,6.31.7,3.71,1,5.25.48,2.89.62,4,.24,1.9.33,2.53a4.49,4.49,0,0,1,.07.88,5.22,5.22,0,0,1-.19-.87c-.1-.62-.25-1.45-.43-2.5s-.4-2.42-.71-4-.61-3.3-1.07-5.22-.88-4-1.48-6.29-1.24-4.63-2-7.14c-1.5-5-3.34-10.44-5.55-16s-4.66-10.79-7-15.45c-1.22-2.31-2.34-4.52-3.51-6.53s-2.23-3.89-3.25-5.58-2-3.19-2.82-4.51-1.59-2.46-2.21-3.37l-1.41-2.12A4.23,4.23,0,0,1,361.62,190.92Z" style="fill:#e0e0e0"></path><path d="M346.51,255.46c-3.79,1.58-6.72,4.63-10.13,6.91s-7.95,3.75-11.55,1.78l3.06-4.91a14.42,14.42,0,0,1-18.47,1.81l.81-1.74a9,9,0,0,1-7.25,2.41,20.59,20.59,0,0,1-7.46-2.47,61.1,61.1,0,0,1-11-7.23c1.49-1.29,2.14-3.26,3-5s5.26-4.19,5.26-4.19l7.11,5.16a14.3,14.3,0,0,1-3-7.36c2.26.5,4.61-1.75,6.75-.87.74.31,3.34.09,4,.58a29.57,29.57,0,0,1,6,6.17c-.54-5-.95-4.94-2.3-9.78,12.88,4.23,25,9.73,35.17,18.74" style="fill:#fafafa"></path><path d="M317,252.4a15.83,15.83,0,0,1,3.83-1.66A25.84,25.84,0,0,1,332.2,250a39.46,39.46,0,0,1,15.66,6.18,105.47,105.47,0,0,1,16,13.05A106.85,106.85,0,0,1,377.27,285a85.27,85.27,0,0,1,8.22,14.75,77.49,77.49,0,0,1,3.71,10.77c.31,1.3.52,2.33.67,3,.06.32.11.58.16.79a.93.93,0,0,1,0,.27,1.1,1.1,0,0,1-.09-.26c-.06-.21-.13-.46-.21-.78-.19-.72-.45-1.72-.77-3a85.28,85.28,0,0,0-3.86-10.66,88.86,88.86,0,0,0-8.29-14.62,114.79,114.79,0,0,0-29.26-28.67,39.39,39.39,0,0,0-15.44-6.23,26.48,26.48,0,0,0-11.21.6,24.49,24.49,0,0,0-2.9,1l-.73.32C317.13,252.38,317.05,252.41,317,252.4Z" style="fill:#e0e0e0"></path><path d="M471,330.48c-6.88-21.39-31.4-35.41-53.32-30.48a52.93,52.93,0,0,0-87,11.35c-22.21-10.27-50.06-7-69.3,8.13l-14.32,9Z" style="fill:#ebebeb"></path><rect x="71.35" y="184.4" width="12.11" height="146.27" style="fill:#e0e0e0"></rect><rect x="74.38" y="38.83" width="6.05" height="161.64" style="fill:#e0e0e0"></rect><circle cx="77.41" cy="44.42" r="18.72" style="fill:#ebebeb"></circle><path d="M81.41,64.62H73.1A1.14,1.14,0,0,1,72,63.48h0a1.14,1.14,0,0,1,1.14-1.14h8.31a1.14,1.14,0,0,1,1.14,1.14h0A1.14,1.14,0,0,1,81.41,64.62Z" style="fill:#e0e0e0"></path><path d="M86.54,184.4H68.14a1.26,1.26,0,0,1-1.26-1.26h0a1.27,1.27,0,0,1,1.26-1.26h18.4a1.26,1.26,0,0,1,1.26,1.26h0A1.25,1.25,0,0,1,86.54,184.4Z" style="fill:#e0e0e0"></path><path d="M198.27,90.3h86.92s-7.69-14-30.06-12c-21.37,2-22.46-6.88-33.32-8S201.89,77.62,198.27,90.3Z" style="fill:#f5f5f5"></path><path d="M166,106h56.15s-5-9-19.42-7.72c-13.8,1.25-14.5-4.45-21.52-5.15S168.37,97.81,166,106Z" style="fill:#ebebeb"></path><path d="M320,50.53h53s-4.69-8.53-18.34-7.29c-13,1.18-13.7-4.2-20.33-4.86S322.2,42.8,320,50.53Z" style="fill:#f5f5f5"></path></g><g id="freepik--Floor--inject-67"><path d="M487.45,453.23c0,.15-100.82.27-225.17.27s-225.2-.12-225.2-.27,100.81-.26,225.2-.26S487.45,453.09,487.45,453.23Z" style="fill:#263238"></path></g><g id="freepik--Character--inject-67"><path d="M243.57,182.07c-1.56-1.86-3.7-3.13-5.56-4.7s-3.52-3.68-3.54-6.11c0-2.22,1.33-4.22,1.69-6.4s-.23-4.27-.35-6.42A17.14,17.14,0,0,1,243,144a22.63,22.63,0,0,1,15.93-3.82c2,.24,5.58.8,7.18,2,2.1,1.63,5.19,5.24,5.71,7.85,1.58,7.84-4.11,15.35-9.13,21.58a27.79,27.79,0,0,1-20.9,10.18" style="fill:#263238"></path><path d="M262,146.33a9.75,9.75,0,0,1,9.81,10.11c-.22,6.17-.73,13.69-1.9,18.19-2.37,9.05-9.53,9.52-9.53,9.52s-.69,5.75-1.25,11.22c-.53,5.21-5.48,9.08-11.07,8.65h0c-5.54-.43-8.06-4.72-7.62-9.89l.87-38.4c.45-4.39,6.76-7.09,11.12-7.82Z" style="fill:#ffbe9d"></path><path d="M269.51,161.28a1.17,1.17,0,0,1-1.25,1.07,1.13,1.13,0,0,1-1.11-1.18,1.19,1.19,0,0,1,1.25-1.08A1.13,1.13,0,0,1,269.51,161.28Z" style="fill:#263238"></path><path d="M269.79,160.18c-.16.14-1-.61-2.26-.73s-2.26.42-2.38.25.11-.34.55-.59a3.16,3.16,0,0,1,1.93-.39,3.1,3.1,0,0,1,1.78.77C269.77,159.83,269.87,160.12,269.79,160.18Z" style="fill:#263238"></path><path d="M257.2,160.28a1.18,1.18,0,0,1-1.26,1.08,1.14,1.14,0,0,1-1.11-1.19,1.18,1.18,0,0,1,1.26-1.07A1.13,1.13,0,0,1,257.2,160.28Z" style="fill:#263238"></path><path d="M257.3,159.19c-.17.14-1-.61-2.26-.74s-2.27.43-2.39.26.12-.34.55-.6a3.31,3.31,0,0,1,1.93-.39,3.07,3.07,0,0,1,1.78.78C257.27,158.83,257.37,159.12,257.3,159.19Z" style="fill:#263238"></path><path d="M261,169.05a8.78,8.78,0,0,1,2.1-.17c.33,0,.64,0,.72-.25a1.67,1.67,0,0,0-.13-1c-.22-.81-.46-1.67-.71-2.56a44.7,44.7,0,0,1-1.52-6.67,41.85,41.85,0,0,1,2.05,6.53c.24.9.46,1.75.68,2.57a2,2,0,0,1,0,1.29.79.79,0,0,1-.58.42,2.24,2.24,0,0,1-.56,0A8.41,8.41,0,0,1,261,169.05Z" style="fill:#263238"></path><path d="M260.37,184.15a23.47,23.47,0,0,1-12-4.5s2.36,6.62,11.65,6.66Z" style="fill:#eb996e"></path><path d="M260.13,172.06a2.27,2.27,0,0,0-2-1.05,2.06,2.06,0,0,0-1.52.63,1.32,1.32,0,0,0-.25,1.5,1.53,1.53,0,0,0,1.62.58,5,5,0,0,0,1.72-.8,1.47,1.47,0,0,0,.4-.34.43.43,0,0,0,0-.48" style="fill:#DE002F"></path><path d="M257.15,169.56c.21,0,.07,1.39,1.16,2.48s2.56,1.09,2.55,1.28-.35.24-1,.19a3.44,3.44,0,0,1-2.14-1,3,3,0,0,1-.88-2.07C256.87,169.87,257.06,169.54,257.15,169.56Z" style="fill:#263238"></path><path d="M258.11,154.25c-.16.33-1.41,0-2.91.07s-2.75.32-2.92,0c-.07-.15.17-.46.69-.74a4.75,4.75,0,0,1,2.21-.54,4.89,4.89,0,0,1,2.23.48C257.94,153.79,258.18,154.09,258.11,154.25Z" style="fill:#263238"></path><path d="M269.69,156.46c-.25.27-1.1-.12-2.15-.23s-2,0-2.13-.32c-.08-.16.09-.43.51-.67a3.12,3.12,0,0,1,3.45.45C269.71,156,269.8,156.33,269.69,156.46Z" style="fill:#263238"></path><path d="M240.3,178.08c1.79-1.49,7.19-10.66,5.07-11.63a3.3,3.3,0,0,1-3.17-1.77,4.79,4.79,0,0,1-.15-3.71,3.08,3.08,0,0,1,3-1.77c1.27.1,2.94,2.16,2.94,2.16,1.07.09.9-1.15.88-2.22s-.5-2.11-.52-3.19c0-2-.75-6,2.82-7.65,2.87-1.29,5.39,1.29,7.06,2.47a8.93,8.93,0,0,0,5.79,1.47c1.79,0,3.77-.59,4.61-2.17,1-1.9-.1-4.18-1.19-6l-20,2.14-7.1,6.85Z" style="fill:#263238"></path><path d="M267.67,151.23a12.71,12.71,0,0,0,1-9.12,8.11,8.11,0,0,0-6.68-5.8c-2.73-.23-5.34,1.21-8.08,1.31a8.53,8.53,0,0,1-7.44-4,4.88,4.88,0,0,0,2.53,5.51l-2.06.1a13.74,13.74,0,0,0,9.21,2.91,18.2,18.2,0,0,1,4.1-.13,3.31,3.31,0,0,1,2.9,2.53c.24,1.9-1.9,3.53-1.58,5.43a3,3,0,0,0,3.17,2.16,7.26,7.26,0,0,0,3.78-1.67" style="fill:#263238"></path><path d="M236.74,153.74a11,11,0,0,0,1.76-7.21c-.39-2.49-2.32-4.84-4.83-5.13a7.33,7.33,0,0,0-4.6,1.35,10.78,10.78,0,0,0-3.64,3.59,6.63,6.63,0,0,0-.78,5,7.4,7.4,0,0,0,4.63,4.63,21.7,21.7,0,0,0,6.67,1.12" style="fill:#263238"></path><path d="M254.81,132.38a3.09,3.09,0,0,0-.59,1.26,3.31,3.31,0,0,0,.14,1.61,9.25,9.25,0,0,0,1,2,4.78,4.78,0,0,0,1.75,1.88,3.34,3.34,0,0,0,2.82-.12c1.9-.89,3.5-3,6.11-3.72a4.68,4.68,0,0,1,3.77.46,4.56,4.56,0,0,1,1.85,3,10.77,10.77,0,0,1-.73,5.84,11.42,11.42,0,0,1-2.1,3.36,7.19,7.19,0,0,1-.77.75c-.19.16-.29.24-.3.22s.34-.38.92-1.1a12.48,12.48,0,0,0,1.91-3.37,10.68,10.68,0,0,0,.6-5.61,4.08,4.08,0,0,0-1.65-2.69,4.26,4.26,0,0,0-3.37-.39,9.52,9.52,0,0,0-3.15,1.7,16.11,16.11,0,0,1-2.89,2,3.73,3.73,0,0,1-3.21.08A5.05,5.05,0,0,1,255,137.4a9.35,9.35,0,0,1-.95-2.06,3.36,3.36,0,0,1-.06-1.74,2.45,2.45,0,0,1,.49-1C254.68,132.44,254.8,132.37,254.81,132.38Z" style="fill:#263238"></path><path d="M244.34,136.67a12.08,12.08,0,0,0,3.16,2.42,8.84,8.84,0,0,0,4.15.93c1.63,0,3.4-.45,5.34-.62a9.65,9.65,0,0,1,2.85.15,7.31,7.31,0,0,1,2.46,1.08,7,7,0,0,1,3,6.55,2.84,2.84,0,0,1-.28,1.07s.05-.4.07-1.09a7.4,7.4,0,0,0-.45-2.85A6.85,6.85,0,0,0,262,141a7,7,0,0,0-2.3-1,9.27,9.27,0,0,0-2.7-.13c-1.87.16-3.67.59-5.37.58a8.79,8.79,0,0,1-4.33-1.08,8.6,8.6,0,0,1-2.36-1.86A2.83,2.83,0,0,1,244.34,136.67Z" style="fill:#263238"></path><path d="M227.84,146.26s.09-.27.36-.71a16.58,16.58,0,0,1,1.22-1.78,9,9,0,0,1,2.42-2.17,5.41,5.41,0,0,1,3.93-.69,4.72,4.72,0,0,1,3,2.58,5.21,5.21,0,0,1,.4,3.24,6,6,0,0,1-.8,2c-.28.44-.48.64-.51.62a10.13,10.13,0,0,0,.94-2.71,5,5,0,0,0-.46-3,4.34,4.34,0,0,0-2.74-2.29,5.06,5.06,0,0,0-3.57.61,9.21,9.21,0,0,0-2.37,2C228.54,145.37,227.91,146.31,227.84,146.26Z" style="fill:#263238"></path><path d="M221.07,142.36a13.36,13.36,0,0,0,11.28-.36,3.92,3.92,0,0,1-1.46,1,10.71,10.71,0,0,1-4.13,1,10.38,10.38,0,0,1-4.17-.72A4,4,0,0,1,221.07,142.36Z" style="fill:#263238"></path><path d="M219.5,158.26c0-.09,1.05.52,2.86,1a12.21,12.21,0,0,0,12.8-4.55c1.12-1.47,1.53-2.58,1.62-2.54a2.89,2.89,0,0,1-.24.79,10.74,10.74,0,0,1-1.08,2,11.92,11.92,0,0,1-13.2,4.69,10.28,10.28,0,0,1-2.08-.85C219.72,158.47,219.48,158.29,219.5,158.26Z" style="fill:#263238"></path><path d="M248.56,138.28s.26.31.75.81a7.47,7.47,0,0,0,2.44,1.66,6.92,6.92,0,0,0,4.26.41c1.61-.33,3.24-1.29,5.23-1.7a5.85,5.85,0,0,1,2.94.1,4.37,4.37,0,0,1,2.19,1.67,8.21,8.21,0,0,1,1.38,4.34,8.43,8.43,0,0,1-.43,3,2.94,2.94,0,0,1-.47,1,11.66,11.66,0,0,0,.53-4,8,8,0,0,0-1.4-4.07,3.89,3.89,0,0,0-2-1.48,5.53,5.53,0,0,0-2.69-.07c-1.85.38-3.51,1.33-5.22,1.66a7.11,7.11,0,0,1-4.51-.54,7,7,0,0,1-2.44-1.86A3,3,0,0,1,248.56,138.28Z" style="fill:#455a64"></path><path d="M253,142.21a9.28,9.28,0,0,0,2.37.83,11.33,11.33,0,0,0,2.73.09c1-.06,2.18-.22,3.42-.22a4.88,4.88,0,0,1,1.82.31,3.16,3.16,0,0,1,1.37,1.11,4.73,4.73,0,0,1,.76,2.77,9,9,0,0,1-.26,1.89,1.87,1.87,0,0,1-.21.66c-.11,0,.11-1,.1-2.54a4.51,4.51,0,0,0-.78-2.5,2.76,2.76,0,0,0-1.17-.92,4.78,4.78,0,0,0-1.64-.26c-1.18,0-2.33.14-3.39.18a10.28,10.28,0,0,1-2.82-.21A3.9,3.9,0,0,1,253,142.21Z" style="fill:#455a64"></path><path d="M235.53,161s-.31,0-.74-.3a2.59,2.59,0,0,1-.95-1.95,3.43,3.43,0,0,1,1.54-2.81,6.79,6.79,0,0,1,3.77-1.09c1.38-.06,2.66,0,3.81-.11a10.58,10.58,0,0,0,2.94-.82c1.6-.72,2.41-1.5,2.47-1.42s-.15.24-.53.57a8.75,8.75,0,0,1-1.78,1.18,9.8,9.8,0,0,1-3,1,36.47,36.47,0,0,1-3.85.16,6.6,6.6,0,0,0-3.51,1,3.1,3.1,0,0,0-1.45,2.42,2.49,2.49,0,0,0,.71,1.79A6.75,6.75,0,0,0,235.53,161Z" style="fill:#455a64"></path><path d="M240.73,145.81s-.2-.25-.23-.82a3.08,3.08,0,0,1,.89-2.14,4.11,4.11,0,0,1,3.19-1.26,10.47,10.47,0,0,1,4.06,1.06,20.24,20.24,0,0,1,6.21,4.24,15.15,15.15,0,0,1,1.51,1.72,2.73,2.73,0,0,1,.45.71c-.07.05-.81-.88-2.21-2.17a23,23,0,0,0-6.17-4,10.65,10.65,0,0,0-3.86-1.05,3.78,3.78,0,0,0-2.92,1,3,3,0,0,0-1,1.89C240.67,145.51,240.77,145.8,240.73,145.81Z" style="fill:#455a64"></path><path d="M225.37,150.66s-.37,0-.9-.4a3.46,3.46,0,0,1-1.32-2.33,4.33,4.33,0,0,1,1.47-3.67,6.49,6.49,0,0,1,4.6-1.54,8.56,8.56,0,0,1,4.61,1.52,8.23,8.23,0,0,1,2.6,3,7.83,7.83,0,0,1,.8,2.55,2.65,2.65,0,0,1,0,1,12.3,12.3,0,0,0-1.13-3.35,8.06,8.06,0,0,0-2.55-2.78,8.21,8.21,0,0,0-4.35-1.4,6.16,6.16,0,0,0-4.27,1.38,4.05,4.05,0,0,0-1.43,3.27,3.42,3.42,0,0,0,1.09,2.21C225.05,150.51,225.39,150.62,225.37,150.66Z" style="fill:#455a64"></path><path d="M227.71,154.13a2,2,0,0,1-.32-1.83,3.55,3.55,0,0,1,1-1.82,5.8,5.8,0,0,1,2.14-1.33A7.34,7.34,0,0,1,235,149a3.49,3.49,0,0,1,1.66.82c0,.08-.67-.25-1.75-.46a8,8,0,0,0-4.21.31,4.41,4.41,0,0,0-2.95,2.74A4.47,4.47,0,0,0,227.71,154.13Z" style="fill:#455a64"></path><path d="M244.63,164.38c0,.06-.31.08-.68-.19a1.67,1.67,0,0,1-.6-1.61,1.64,1.64,0,0,1,1.2-1.22c.44-.11.71,0,.7.09s-.26.09-.58.25a1.56,1.56,0,0,0-.81,1,1.54,1.54,0,0,0,.34,1.23C244.43,164.2,244.65,164.31,244.63,164.38Z" style="fill:#eb996e"></path><path d="M239.66,147.82a27,27,0,0,0-2.52,4.08,27.08,27.08,0,0,0-1.26,4.63,9.94,9.94,0,0,1,3.78-8.71Z" style="fill:#DE002F"></path><path d="M236,153.61a5.78,5.78,0,0,1-1.63,1.79,10.78,10.78,0,0,1-5.41,2.32l-.5.07.24-.44.2-.38a8.31,8.31,0,0,1,4.85-3.77,7.22,7.22,0,0,1,1.86-.27,1.75,1.75,0,0,1,.69.08,23.31,23.31,0,0,0-2.44.55,8.34,8.34,0,0,0-4.5,3.67c-.07.12-.13.24-.2.35l-.26-.37a11.7,11.7,0,0,0,5.26-2.09C235.33,154.26,235.92,153.55,236,153.61Z" style="fill:#DE002F"></path><path d="M234.88,151.73a2.11,2.11,0,0,1-.77.08,9,9,0,0,1-2.13-.28,10.25,10.25,0,0,1-5.84-4l-.28-.4H227a10.26,10.26,0,0,1,6.9,2.87,8.77,8.77,0,0,1,1.44,1.78,2.09,2.09,0,0,1,.36.77,19.55,19.55,0,0,0-2-2.28,10.46,10.46,0,0,0-6.66-2.62h-.62l.2-.41a10.5,10.5,0,0,0,5.51,3.92A26.54,26.54,0,0,0,234.88,151.73Z" style="fill:#DE002F"></path><path d="M281.11,261c-.15,0-.26-.41-.26-.91s.11-.92.26-.92.26.41.26.92S281.25,261,281.11,261Z" style="fill:#fafafa"></path><path d="M177.08,235.74a8.42,8.42,0,0,0-2.92,5.93,8.6,8.6,0,0,0,4.39,7.18,16.09,16.09,0,0,0,8.48,1.93c3.25,0,6.62-.61,9.7.46a9.5,9.5,0,0,1,4.56,3.36c.47.64,1,1.41,1.79,1.4a2,2,0,0,0,1.12-.47,19.24,19.24,0,0,0,5.37-5.67,5.73,5.73,0,0,0,1.07-4.09,5.64,5.64,0,0,0-1.88-2.8,31.92,31.92,0,0,0-7.84-5.12A34.26,34.26,0,0,0,188.19,234a17.17,17.17,0,0,0-12.48,3.82" style="fill:#455a64"></path><polyline points="263.51 198.94 278.3 238.11 309.26 258.18 301.7 267.59 265.03 248.29 257.32 227.73 262.92 200.34" style="fill:#263238"></polyline><path d="M264.4,224.29c.43,11.41-9.56,20.93-9.56,20.93-2.55,4-8,18-10.85,31.16L242.4,283s-23.5,4.09-49-22.38l21.22-23.27,1.59-17.3s2.92-20.41,4.7-23.25c3-4.73,8.48-13.23,40.15-1.29l3.19,1.91.1,26.88" style="fill:#DE002F"></path><path d="M264.55,212.18a8.19,8.19,0,0,1,.16,1.4c.08.9.17,2.21.24,3.83a50.92,50.92,0,0,1-.79,12.65,21.6,21.6,0,0,1-2.63,6.5,40.74,40.74,0,0,1-3.28,4.67c-1,1.28-1.86,2.27-2.45,3a6.25,6.25,0,0,1-1,1,8.9,8.9,0,0,1,.82-1.15l2.32-3a48.48,48.48,0,0,0,3.17-4.69,22.11,22.11,0,0,0,2.54-6.38,56.2,56.2,0,0,0,.92-12.54c0-1.55-.06-2.84-.09-3.83A7.42,7.42,0,0,1,264.55,212.18Z" style="fill:#263238"></path><g style="opacity:0.30000000000000004"><path d="M202.49,250.49a13.55,13.55,0,0,0,5.43,8.58,33.08,33.08,0,0,0,9.27,4.61c2.89,1,6.05,2,9,1.08,3.24-1,5.44-3.95,7-6.94.66-1.25,1.37-2.66,2.71-3.11,1.89-.64,3.73,1,5.1,2.44a12.13,12.13,0,0,0,3,2.54,4.31,4.31,0,0,0,3.81.27c1.71-.83,2.35-3,2-4.91a13,13,0,0,0-2.76-4.92l-3.93-5.1a7.57,7.57,0,0,0-3.44-2.94,5.12,5.12,0,0,0-4.26.91,16.76,16.76,0,0,0-3.14,3.21c-2.74,3.32-6,6.65-10.22,7.43-4.54.84-9.16-1.55-12.35-4.88a4.9,4.9,0,0,0-2-1.51,3,3,0,0,0-2.78.81,8.83,8.83,0,0,0-1.71,2.49"></path></g><path d="M249.18,195.31a12.84,12.84,0,0,0-5.79-4.71c-3-1.37-5-2.41-8.23-2.48l1.12.19c-6.91-.79-14.63,2-16.83,8.68a53.66,53.66,0,0,0-2.57,12.75,102.24,102.24,0,0,1-2.21,13c-.57,2.32-6.6,5.7-10.68,6.76s-8.49-.63-12.78-.9a19.35,19.35,0,0,0-14.78,5.64c-1.45,1.47-2.71,3.66-1.78,5.5,1.18,2.34,4.55,2,7.11,1.49,6.79-1.31,14.59-.9,19.53,3.94,2.92,2.86,4.56,7,8.06,9.15a18.15,18.15,0,0,0,3.9,1.59A85.82,85.82,0,0,0,226,259.29a2.3,2.3,0,0,0,1.47-.1c.67-.37.82-1.22,1-1.95.77-2.55,3-4.3,4.65-6.42a28.33,28.33,0,0,0,3.22-6q4.74-10.79,9.5-21.57a56.62,56.62,0,0,0,3.19-8.45,56.23,56.23,0,0,0,1.33-8.59C250.8,202.53,251.11,198.51,249.18,195.31Z" style="fill:#263238"></path><path d="M183.05,241s-5.27.55-6.24,3.67c-.5,1.64,2.25,4.43,2.25,4.43s-7.27-3.15-4.73-11Z" style="fill:#263238"></path><path d="M221.81,204.11l18.3,47c-.63,1.26,35.81,17.94,35.81,17.94L289,257.24l-35.61-18.51-14-41a9.38,9.38,0,0,0-11.1-6.12h0A9.37,9.37,0,0,0,221.81,204.11Z" style="fill:#263238"></path><path d="M222.51,198.94c.05,0-.11.78-.2,2.18a21.9,21.9,0,0,0,.37,5.89,45.68,45.68,0,0,0,2.72,8.36c1.29,3.08,2.51,6.53,4.19,10s3,6.92,4.26,10,2.37,5.84,3.32,8.2,1.66,4.16,2.2,5.54c.24.61.43,1.12.58,1.52a2.15,2.15,0,0,1,.16.54,3.38,3.38,0,0,1-.26-.5c-.18-.39-.39-.88-.66-1.48-.59-1.36-1.38-3.22-2.36-5.48s-2.14-5.11-3.42-8.16-2.61-6.48-4.29-9.93-2.91-6.94-4.16-10a44.61,44.61,0,0,1-2.65-8.47,20.89,20.89,0,0,1-.2-6,14.31,14.31,0,0,1,.25-1.61A2.28,2.28,0,0,1,222.51,198.94Z" style="fill:#455a64"></path><path d="M275.92,269.06a1.94,1.94,0,0,1,.21-.22l.66-.64,2.57-2.39,9.51-8.71,0,.3L253.43,239l-.16-.08-.09-.05,0-.1c-5.28-14.94-10.07-28.45-13.54-38.27a16.56,16.56,0,0,0-3.61-5.86,9.36,9.36,0,0,0-2.17-1.81,6.22,6.22,0,0,0-2.23-.76,4.8,4.8,0,0,0-3.18.56,6.43,6.43,0,0,0-.9.72,2.88,2.88,0,0,1,.85-.81,4.78,4.78,0,0,1,3.26-.67,6.31,6.31,0,0,1,2.32.74,9.47,9.47,0,0,1,2.26,1.83,16.67,16.67,0,0,1,3.74,5.94c3.52,9.81,8.35,23.3,13.7,38.22l-.13-.14.16.08,35.41,18.49.24.13-.2.18L279.5,266l-2.64,2.31-.69.6C276,269,275.93,269.07,275.92,269.06Z" style="fill:#455a64"></path><path d="M240.12,220.13c-.14,0-.35-.25-.46-.65s-.09-.75,0-.79.35.25.46.65S240.26,220.09,240.12,220.13Z" style="fill:#fafafa"></path><path d="M242.12,232.73c-.09.12-.44,0-.79-.28s-.56-.59-.48-.7.45,0,.8.29S242.21,232.62,242.12,232.73Z" style="fill:#fafafa"></path><path d="M247.67,232.66c-.15,0-.23-.42-.19-.93s.18-.91.32-.9.23.43.19.94S247.81,232.68,247.67,232.66Z" style="fill:#fafafa"></path><path d="M240.88,241c0,.14-.29.19-.57.11s-.46-.25-.42-.39.29-.19.56-.11S240.92,240.9,240.88,241Z" style="fill:#fafafa"></path><path d="M248.38,243.29c-.15,0-.26-.5-.26-1.12s.11-1.13.26-1.13.26.5.26,1.13S248.52,243.29,248.38,243.29Z" style="fill:#fafafa"></path><path d="M246.38,250c0,.14-.44.26-1,.26s-1-.12-1-.26.44-.27,1-.27S246.38,249.81,246.38,250Z" style="fill:#fafafa"></path><path d="M255.06,245.41c-.13.06-.46-.37-.73-.95s-.39-1.11-.26-1.17.46.37.73,1S255.19,245.35,255.06,245.41Z" style="fill:#fafafa"></path><path d="M260.85,250.24c0,.14-.49.12-1,0s-.88-.39-.84-.53.49-.12,1,0S260.89,250.1,260.85,250.24Z" style="fill:#fafafa"></path><path d="M268.72,250.52c0,.14-.51.12-1.06,0s-1-.4-.91-.53.51-.13,1.06,0S268.76,250.38,268.72,250.52Z" style="fill:#fafafa"></path><path d="M267,255.38c.09.11-.15.45-.54.77s-.78.47-.87.36.15-.46.54-.77S266.94,255.27,267,255.38Z" style="fill:#fafafa"></path><path d="M256.91,255c0,.14-.41.26-.92.26s-.91-.12-.91-.26.41-.26.91-.26S256.91,254.81,256.91,255Z" style="fill:#fafafa"></path><path d="M274.69,256.93c-.15,0-.29-.42-.33-1s0-1,.19-1,.29.42.33,1S274.83,256.92,274.69,256.93Z" style="fill:#fafafa"></path><path d="M235.2,226.82c0,.14-.28.26-.63.26s-.64-.12-.64-.26.29-.26.64-.26S235.2,226.67,235.2,226.82Z" style="fill:#fafafa"></path><path d="M233.67,218.21c-.11.09-.52-.25-.91-.75s-.62-1-.51-1.07.53.24.92.75S233.78,218.12,233.67,218.21Z" style="fill:#fafafa"></path><path d="M237.74,207.8c.07.13-.12.37-.32.65s-.39.51-.53.48-.17-.43.11-.8S237.67,207.68,237.74,207.8Z" style="fill:#fafafa"></path><path d="M226.05,210.62c-.13-.08,0-.53.18-1.08s.23-1,.38-1,.3.52.12,1.16S226.16,210.7,226.05,210.62Z" style="fill:#fafafa"></path><path d="M231.82,202.31c0,.14-.43.34-1,.15s-.81-.63-.7-.71.44.09.87.22S231.79,202.17,231.82,202.31Z" style="fill:#fafafa"></path><path d="M227,196.7c0,.14-.32.34-.78.46s-.88.1-.91,0,.31-.34.78-.46S227,196.56,227,196.7Z" style="fill:#fafafa"></path><path d="M245.62,202.59c-.14,0-.12-.57,0-1.19s.4-1.1.54-1.06.12.57,0,1.19S245.76,202.63,245.62,202.59Z" style="fill:#fafafa"></path><path d="M241.55,195.39c-.07.12-.53,0-1-.26s-.86-.6-.79-.73.53,0,1,.27S241.62,195.26,241.55,195.39Z" style="fill:#fafafa"></path><path d="M219.43,217.24c-.15,0-.2-.54-.12-1.16s.25-1.11.4-1.09.19.53.11,1.15S219.57,217.26,219.43,217.24Z" style="fill:#fafafa"></path><path d="M220,226.39c-.08.12-.5,0-.93-.35s-.7-.66-.62-.77.5,0,.93.35S220.07,226.28,220,226.39Z" style="fill:#fafafa"></path><path d="M223.09,224c-.15,0-.26-.32-.26-.7s.11-.71.26-.71.26.32.26.71S223.23,224,223.09,224Z" style="fill:#fafafa"></path><path d="M229,237.11c-.14,0-.36-.35-.48-.85s-.11-.94,0-1,.35.35.48.85S229.1,237.07,229,237.11Z" style="fill:#fafafa"></path><path d="M220.41,235.69c-.14,0-.16-.58,0-1.24s.32-1.18.47-1.16.16.59,0,1.25S220.55,235.71,220.41,235.69Z" style="fill:#fafafa"></path><path d="M212.11,231.2c0,.13-.58.4-1.36.26s-1.26-.6-1.18-.71.61.09,1.27.2S212.07,231.05,212.11,231.2Z" style="fill:#fafafa"></path><path d="M215.18,246.11c-.15,0-.23-.49-.2-1.07s.19-1,.33-1,.23.49.19,1.07S215.32,246.12,215.18,246.11Z" style="fill:#fafafa"></path><path d="M224.5,247.94c-.11.09-.59-.37-.84-1.13s-.15-1.41,0-1.4.27.57.5,1.24S224.62,247.86,224.5,247.94Z" style="fill:#fafafa"></path><path d="M232.24,245.69c-.12.09-.37,0-.66-.13s-.56-.15-.6-.29.31-.35.76-.2S232.36,245.61,232.24,245.69Z" style="fill:#fafafa"></path><path d="M222.4,255c-.08.11-.53-.08-1-.42s-.78-.73-.69-.84.53.07,1,.42S222.49,254.84,222.4,255Z" style="fill:#fafafa"></path><path d="M207.88,239.49c.14,0,.26.38.26.85s-.12.84-.26.84-.26-.38-.26-.84S207.73,239.49,207.88,239.49Z" style="fill:#fafafa"></path><path d="M198.46,235.1c-.1.1-.53-.16-1-.59s-.69-.86-.59-1,.53.16,1,.59S198.57,235,198.46,235.1Z" style="fill:#fafafa"></path><path d="M188.87,237.38c0,.14-.4.23-.87.19s-.84-.19-.82-.33.4-.23.86-.19S188.88,237.24,188.87,237.38Z" style="fill:#fafafa"></path><path d="M180.59,233.75c.09.11-.15.48-.54.83s-.78.54-.88.43.15-.47.54-.82S180.49,233.64,180.59,233.75Z" style="fill:#fafafa"></path><path d="M174.78,242.87c-.12-.08.09-.64.24-1.35s.18-1.3.32-1.32.36.62.19,1.43S174.9,243,174.78,242.87Z" style="fill:#fafafa"></path><path d="M246.76,211.46c-.15,0-.33-.5-.4-1.16s0-1.21.12-1.23.32.51.39,1.17S246.9,211.45,246.76,211.46Z" style="fill:#fafafa"></path><path d="M233,190.73c-.08.12-.45,0-.84-.19s-.65-.52-.58-.64.45,0,.84.19S233,190.6,233,190.73Z" style="fill:#fafafa"></path><path d="M244.41,193.55a31.9,31.9,0,0,0-25.47,5,20,20,0,0,0-4.65,4.43c-2.74,3.82-3.56,8.95-7,12.16-4.21,3.93-10.72,3.61-16.45,3.11s-12.3-.65-16.32,3.48c-2.3,2.35-4.05,6.16-7.34,6-2.7-.12-4.35-3-5.11-5.6s-1.34-5.57-3.59-7.08c-2.62-1.76-6.54-.78-8.92-2.86s-1.79-6.49-3.84-9.15c4,.93,8.25,1.84,12.09.41a37.26,37.26,0,0,0,5-2.75,25.05,25.05,0,0,1,21.57-1.29c2.05.85,4,2,6.22,2.31a12.5,12.5,0,0,0,8.51-2.36,73.25,73.25,0,0,0,6.9-5.82,50.51,50.51,0,0,1,17.51-9.82,17.87,17.87,0,0,1,8.26-1c3.54.57,6.54,2.84,9.38,5" style="fill:#455a64"></path><path d="M237.72,186.85a19,19,0,0,0-3.31-1.32,17,17,0,0,0-9.56.39c-3.93,1.18-8,4.11-11.51,8.3a57.24,57.24,0,0,0-4.91,7,41.63,41.63,0,0,1-5.32,7.55,12.44,12.44,0,0,1-3.88,2.72,11.85,11.85,0,0,1-4.51.89,26.83,26.83,0,0,1-8.46-1.64,49.94,49.94,0,0,0-7.42-2.07,14.69,14.69,0,0,0-6.61.3,21.08,21.08,0,0,0-5,2.21,39.14,39.14,0,0,0-3.49,2.31c-.93.68-1.64,1.24-2.12,1.61l-.55.41a1.08,1.08,0,0,1-.2.13s.05-.06.16-.17l.52-.46c.47-.39,1.15-1,2.07-1.68a36.29,36.29,0,0,1,3.46-2.4,21,21,0,0,1,5.1-2.31,15,15,0,0,1,6.78-.38,50.15,50.15,0,0,1,7.5,2,26.65,26.65,0,0,0,8.3,1.59A11.36,11.36,0,0,0,199,211a11.69,11.69,0,0,0,3.71-2.61,40.87,40.87,0,0,0,5.25-7.45,57.78,57.78,0,0,1,5-7c3.52-4.22,7.75-7.19,11.77-8.34a16.92,16.92,0,0,1,9.72-.24,13.29,13.29,0,0,1,2.47,1l.59.36A.68.68,0,0,1,237.72,186.85Z" style="fill:#fafafa"></path><path d="M148.15,209.53s.25.27.79.67a6.12,6.12,0,0,0,2.69,1.07,8.23,8.23,0,0,0,4.51-.66,17.78,17.78,0,0,0,5-3.58,38.18,38.18,0,0,1,5.72-4.93,13.45,13.45,0,0,1,8.44-1.78,38.6,38.6,0,0,1,9.28,2.36c3.12,1.06,6.39,2.18,9.87,2.23a13.53,13.53,0,0,0,5-.78,10.21,10.21,0,0,0,4-2.75,31.72,31.72,0,0,0,2.91-3.86,35.74,35.74,0,0,1,2.85-3.74A30.63,30.63,0,0,1,222.7,185c4.4-1.45,8.32-1.47,10.8-.68a8.77,8.77,0,0,1,2.68,1.29,4.91,4.91,0,0,1,.8.66s-.29-.21-.85-.58a9.61,9.61,0,0,0-2.68-1.17c-2.46-.72-6.29-.65-10.63.83a30.42,30.42,0,0,0-13.23,8.75,35.49,35.49,0,0,0-2.8,3.7,32.4,32.4,0,0,1-2.94,3.93,10.74,10.74,0,0,1-4.23,2.88,14.12,14.12,0,0,1-5.21.82c-3.58-.05-6.91-1.21-10-2.27a38.79,38.79,0,0,0-9.16-2.36,13,13,0,0,0-8.18,1.67,39.08,39.08,0,0,0-5.69,4.83,18.06,18.06,0,0,1-5.11,3.58,8.36,8.36,0,0,1-4.65.59,6,6,0,0,1-2.73-1.19A3.92,3.92,0,0,1,148.15,209.53Z" style="fill:#fafafa"></path><path d="M235.87,188a5.52,5.52,0,0,1-.89,0c-.29,0-.65,0-1.07,0s-.91,0-1.46.09a23.56,23.56,0,0,0-8.86,2.64,22.18,22.18,0,0,0-5.17,3.74,28.24,28.24,0,0,0-4.49,5.81c-1.37,2.21-2.64,4.65-4.19,7.05a24.39,24.39,0,0,1-5.93,6.57,13,13,0,0,1-4.06,2,16,16,0,0,1-4.36.61,53.31,53.31,0,0,1-8.17-1,31.88,31.88,0,0,0-7.33-.57,11.56,11.56,0,0,0-6,2,42,42,0,0,0-4.06,3.41,18.9,18.9,0,0,1-3.24,2.43,8.53,8.53,0,0,1-2.4.89l-.66.07a.58.58,0,0,1-.23,0,9.21,9.21,0,0,0,3.19-1.15,18.57,18.57,0,0,0,3.14-2.47,40.37,40.37,0,0,1,4.06-3.49,12,12,0,0,1,6.13-2.12,32.44,32.44,0,0,1,7.43.54,55,55,0,0,0,8.1.92,15.9,15.9,0,0,0,4.21-.59,12.74,12.74,0,0,0,3.91-1.93,23.9,23.9,0,0,0,5.8-6.43c1.54-2.37,2.82-4.8,4.21-7a28.35,28.35,0,0,1,4.6-5.87,22.5,22.5,0,0,1,5.3-3.76,22.91,22.91,0,0,1,9-2.51,12.89,12.89,0,0,1,1.48,0c.43,0,.79,0,1.08,0A5.57,5.57,0,0,1,235.87,188Z" style="fill:#fafafa"></path><path d="M203.86,212.41a3.18,3.18,0,0,1-.9,0,18.13,18.13,0,0,1-2.45-.22,24.26,24.26,0,0,1-14.09-7.48,16.69,16.69,0,0,1-1.55-1.91,2.9,2.9,0,0,1-.47-.77c.07,0,.83,1,2.28,2.42a26.93,26.93,0,0,0,13.89,7.38C202.58,212.26,203.86,212.31,203.86,212.41Z" style="fill:#263238"></path><path d="M239.42,180.41a2.74,2.74,0,0,0-3.56,2c-.15,1.07.35,2.15.17,3.21-.31,1.89-1.72,1.86-1.46,3.76.13,1,1.87,1.92,2.78,2.28a11.16,11.16,0,0,0,2.89.51c4.08.46,6.16,3.22,9.35,5.81s5.82,6.14,9.79,7a4.64,4.64,0,0,0,3.28-.37c1.47-.88,2-2.76,2.11-4.47s0-3.49.64-5.07c.45-1.06,1.28-2.13.95-3.23-.37-1.26-2.09-1.85-2.22-3.15,0-.43.1-.86,0-1.28-.18-1.17-1.65-1.53-2.82-1.64a102.84,102.84,0,0,1-12.45-2,32.65,32.65,0,0,1-9.59-3.45" style="fill:#455a64"></path><path d="M264.67,189.56a5.67,5.67,0,0,1-1.16.22,29.18,29.18,0,0,1-3.21.3,42.64,42.64,0,0,1-20.67-4.36,32.11,32.11,0,0,1-2.82-1.56,4.89,4.89,0,0,1-1-.68c0-.08,1.49.78,3.95,1.91a47.68,47.68,0,0,0,20.5,4.32C263,189.67,264.66,189.47,264.67,189.56Z" style="fill:#fafafa"></path><path d="M265.31,195s-.1.07-.29.15a4.82,4.82,0,0,1-.87.31,10.22,10.22,0,0,1-3.36.4,19.16,19.16,0,0,1-4.94-.86,60.49,60.49,0,0,1-5.74-2.12c-4-1.63-7.62-3.13-10.23-4.24l-3.08-1.34a6.16,6.16,0,0,1-1.1-.56,6,6,0,0,1,1.18.37l3.14,1.19c2.64,1,6.28,2.47,10.29,4.1,2,.81,3.9,1.6,5.68,2.14a20.69,20.69,0,0,0,4.82,1A15.19,15.19,0,0,0,265.31,195Z" style="fill:#fafafa"></path><path d="M236.75,181.21c0,.07-.52.25-.72,1a3.07,3.07,0,0,0,0,1.39,6.5,6.5,0,0,1,.16,1.89,5.55,5.55,0,0,1-.64,1.79,12.58,12.58,0,0,0-.63,1.33,6.11,6.11,0,0,0-.23,1.31c-.05,0-.35-.53-.12-1.42s.92-1.9,1.1-3.08a7.45,7.45,0,0,0-.12-1.76,3.19,3.19,0,0,1,.14-1.57,1.59,1.59,0,0,1,.69-.84C236.6,181.17,236.75,181.18,236.75,181.21Z" style="fill:#263238"></path><path d="M262.51,191.11a6.62,6.62,0,0,1-.61,2,7.33,7.33,0,0,1-3.21,3.88,4.52,4.52,0,0,1-2.82.43,7,7,0,0,1-2.16-.77,5.06,5.06,0,0,1-1.67-1.25c0-.07.7.39,1.83.92a7.43,7.43,0,0,0,2.07.62,4.24,4.24,0,0,0,2.51-.41,7.72,7.72,0,0,0,3.12-3.57A10.76,10.76,0,0,1,262.51,191.11Z" style="fill:#263238"></path><path d="M249.9,426l1.62-10.16-19-3.16L230,427.51l1.17.28c5.2,1.16,26.53,5.53,30.21,5C265.47,432.3,249.9,426,249.9,426Z" style="fill:#DE002F"></path><g style="opacity:0.4"><path d="M257.46,429.35s5.4,2.58,4.53,3.39-22.58-2.79-32-5.23l.1-.42,25.3,4.43S256.34,429.22,257.46,429.35Z" style="fill:#fff"></path></g><path d="M229.77,427a1.55,1.55,0,0,0,.32.09l.93.22,3.44.72c2.9.59,6.92,1.35,11.38,2.1s8.51,1.33,11.45,1.71l3.48.43,1,.11.33,0a1.09,1.09,0,0,0-.32-.07l-1-.15-3.47-.5c-2.93-.43-7-1-11.43-1.78s-8.48-1.48-11.39-2l-3.45-.65-.94-.17Z" style="fill:#263238"></path><path d="M255.32,431.82a7.41,7.41,0,0,1,.92-1.55,7.52,7.52,0,0,1,1.4-1.12,2.58,2.58,0,0,0-1.58,1A2.54,2.54,0,0,0,255.32,431.82Z" style="fill:#263238"></path><path d="M250.18,428s.37-.24.72-.63.59-.75.54-.79-.37.24-.72.63S250.13,428,250.18,428Z" style="fill:#263238"></path><path d="M248.77,427s.37-.1.75-.34.65-.48.62-.53-.37.09-.75.33S248.74,426.91,248.77,427Z" style="fill:#263238"></path><path d="M248.1,425a2.3,2.3,0,0,0,1,.29,2.26,2.26,0,0,0,1,.06,2.37,2.37,0,0,0-1-.29C248.56,425,248.11,424.94,248.1,425Z" style="fill:#263238"></path><path d="M248,423.69a2,2,0,0,0,1.06.5,2,2,0,0,0,1.17,0,6.19,6.19,0,0,0-1.12-.26A5.75,5.75,0,0,0,248,423.69Z" style="fill:#263238"></path><path d="M251.1,426.48a3.45,3.45,0,0,0,1.22.2,7.22,7.22,0,0,0,1.35-.07,4.5,4.5,0,0,0,.8-.18.71.71,0,0,0,.36-.33.49.49,0,0,0-.1-.52,2.27,2.27,0,0,0-2.88.19,2.32,2.32,0,0,0-.54.75c-.08.2-.1.32-.08.33a3.33,3.33,0,0,1,.73-1,2.18,2.18,0,0,1,1.15-.51,1.89,1.89,0,0,1,1.44.34c.17.18.06.39-.18.49a4.33,4.33,0,0,1-.73.18,8.26,8.26,0,0,1-1.32.11C251.57,426.52,251.1,426.45,251.1,426.48Z" style="fill:#263238"></path><path d="M251.4,426.6a1.24,1.24,0,0,0,.29-.83,2.06,2.06,0,0,0-.19-.95,1.27,1.27,0,0,0-.91-.79.49.49,0,0,0-.47.5,1.31,1.31,0,0,0,.11.58,3.64,3.64,0,0,0,.46.84,1.85,1.85,0,0,0,.61.61s-.2-.26-.47-.7a3.92,3.92,0,0,1-.39-.82c-.13-.29-.17-.77.15-.78s.57.38.72.66a1.9,1.9,0,0,1,.21.85A4.7,4.7,0,0,1,251.4,426.6Z" style="fill:#263238"></path><path d="M231,421.89c0,.05.55,0,1.39.28a6.07,6.07,0,0,1,4.33,4.81c.15.86.09,1.41.13,1.41s.05-.13.07-.38a5.09,5.09,0,0,0,0-1.06,6,6,0,0,0-1.46-3.16,5.93,5.93,0,0,0-3-1.77,4.49,4.49,0,0,0-1.05-.15A1.16,1.16,0,0,0,231,421.89Z" style="fill:#263238"></path><path d="M234.31,414.3a36.73,36.73,0,0,0-.81,3.88,30.9,30.9,0,0,0-.58,3.92,35.38,35.38,0,0,0,.81-3.88A30.64,30.64,0,0,0,234.31,414.3Z" style="fill:#263238"></path><path d="M239.59,427.05a11,11,0,0,0,2.74.74,11.19,11.19,0,0,0,2.82.24c0-.07-1.25-.2-2.78-.47S239.61,427,239.59,427.05Z" style="fill:#263238"></path><path d="M235.87,426.43c-.06,0,0,.28.13.58s.11.57.18.58.15-.29,0-.64S235.92,426.39,235.87,426.43Z" style="fill:#263238"></path><path d="M234.75,424.44c-.05,0,0,.26.2.49s.34.39.39.35,0-.25-.2-.48S234.81,424.41,234.75,424.44Z" style="fill:#263238"></path><path d="M232.87,423.31c0,.07.26.11.52.25s.44.33.5.29-.06-.32-.39-.5S232.86,423.25,232.87,423.31Z" style="fill:#263238"></path><path d="M231.51,422.69c0,.06.06.18.2.26s.3.12.33.06-.06-.17-.21-.26S231.54,422.64,231.51,422.69Z" style="fill:#263238"></path><g style="opacity:0.30000000000000004"><polygon points="231 421.44 250.19 424.23 250.55 421.94 231.43 418.89 231 421.44"></polygon></g><polygon points="201.49 277.25 242.59 345.4 230.42 418.89 251.94 422.58 267.98 340.06 238.91 280.59 201.49 277.25" style="fill:#263238"></polygon><path d="M287.66,273.26a7.12,7.12,0,0,0,2.7,4.49,4.14,4.14,0,0,0,5-.12,1.31,1.31,0,0,0,.45-1.52,1.29,1.29,0,0,0-1.26-.46,6,6,0,0,1-1.4.14A2.33,2.33,0,0,1,291.4,274a19.08,19.08,0,0,1-.31-2.63,3,3,0,0,0-1.22-2.25" style="fill:#ffbe9d"></path><path d="M284.17,261.6l5.09,4s5.89-3.21,8.16-2,5.74,6.33,5.74,6.33l-13.75,5.58-11.77-8.05Z" style="fill:#ffbe9d"></path><path d="M310.47,270.14a7.14,7.14,0,0,0,2.7,4.5,4.14,4.14,0,0,0,5-.13,1.3,1.3,0,0,0,.45-1.52,1.32,1.32,0,0,0-1.26-.46,6.06,6.06,0,0,1-1.4.15,2.31,2.31,0,0,1-1.74-1.79,19.45,19.45,0,0,1-.31-2.63,3,3,0,0,0-1.22-2.26" style="fill:#ffbe9d"></path><path d="M308,259.77l4.09,2.75s5.89-3.22,8.16-2,5.74,6.33,5.74,6.33l-13.75,5.59-9.3-6.37Z" style="fill:#ffbe9d"></path><polygon points="311.88 274.34 333.31 267.2 331.74 263.21 307.66 269.79 281.86 271.83 279.76 274.6 303.8 276.18 303.8 276.18 308.86 291.37 312.96 290.09 309.36 278.84 311.88 274.34" style="fill:#DE002F"></polygon><polygon points="311.88 274.34 333.31 267.2 331.74 263.21 307.66 269.79 281.63 271.24 279.76 274.6 303.8 276.18 303.8 276.18 308.86 291.37 312.96 290.09 309.36 278.84 311.88 274.34" style="opacity:0.5"></polygon><path d="M299.59,270.18l-1.93,6.45-16.9-1.31a3.12,3.12,0,0,1-2.94-3.47h0a3.13,3.13,0,0,1,3.28-2.76Z" style="fill:#DE002F"></path><path d="M315.75,267.12l1.83,5.74,17.65-4.79a3.13,3.13,0,0,0,2.13-4h0a3.13,3.13,0,0,0-3.8-2Z" style="fill:#DE002F"></path><path d="M275.39,262.38c.06.13-.24.39-.67.59s-.82.24-.88.11.24-.39.67-.59S275.33,262.25,275.39,262.38Z" style="fill:#fafafa"></path><path d="M316.49,265.64a3,3,0,0,1,2.51,2.09,22.87,22.87,0,0,1,.68,3.41,1.74,1.74,0,0,0,.89,1.38,1.29,1.29,0,0,0,1.48-.69,3.85,3.85,0,0,0,.33-1.75,1.19,1.19,0,0,0,1.48,1.7,1.62,1.62,0,0,0,.87-1,4.93,4.93,0,0,0,.17-1.38,1.74,1.74,0,0,0,0,.88.63.63,0,0,0,.7.42c.29-.08.42-.42.49-.71a8.9,8.9,0,0,0-.46-5.89,6.89,6.89,0,0,0-4.43-3.79,5.6,5.6,0,0,0-5.49,1.6" style="fill:#ffbe9d"></path><path d="M318.67,263.42c0-.06.6-.21,1.42.26a4.77,4.77,0,0,1,1.87,2.91,11.75,11.75,0,0,1,.36,3.41,3.57,3.57,0,0,1-.16,1.4A4.11,4.11,0,0,1,322,270a17.27,17.27,0,0,0-.49-3.28,5,5,0,0,0-1.58-2.74A5.67,5.67,0,0,0,318.67,263.42Z" style="fill:#eb996e"></path><path d="M321.78,262.74c0-.06.55-.28,1.32.18a2.9,2.9,0,0,1,1,1.12,8.35,8.35,0,0,1,.6,1.66,8.55,8.55,0,0,1,.29,4.44c-.15,0-.15-2-.79-4.3a4.7,4.7,0,0,0-1.31-2.61A3.4,3.4,0,0,0,321.78,262.74Z" style="fill:#eb996e"></path><path d="M293.68,268.76a3,3,0,0,1,2.51,2.09,22.74,22.74,0,0,1,.68,3.4,1.76,1.76,0,0,0,.89,1.39,1.29,1.29,0,0,0,1.48-.7,3.78,3.78,0,0,0,.33-1.74,1.21,1.21,0,0,0,.14,1.37,1.23,1.23,0,0,0,1.34.33,1.63,1.63,0,0,0,.87-1,4.86,4.86,0,0,0,.17-1.37,1.75,1.75,0,0,0,0,.88.64.64,0,0,0,.7.42c.29-.09.42-.42.49-.71a8.93,8.93,0,0,0-.46-5.9,6.87,6.87,0,0,0-4.42-3.79,5.61,5.61,0,0,0-5.5,1.61" style="fill:#ffbe9d"></path><path d="M295.86,266.53c0-.06.6-.21,1.42.27a4.7,4.7,0,0,1,1.87,2.9,11.78,11.78,0,0,1,.36,3.41,3.65,3.65,0,0,1-.16,1.41,4.4,4.4,0,0,1-.2-1.4,18.38,18.38,0,0,0-.5-3.28,4.94,4.94,0,0,0-1.58-2.73A5.24,5.24,0,0,0,295.86,266.53Z" style="fill:#eb996e"></path><path d="M299,265.86c0-.06.55-.29,1.32.18a2.76,2.76,0,0,1,1,1.12,10.81,10.81,0,0,1,.89,6.1c-.15,0-.15-2-.79-4.31a4.67,4.67,0,0,0-1.31-2.61A3.5,3.5,0,0,0,299,265.86Z" style="fill:#eb996e"></path><path d="M332.93,239.51a7.15,7.15,0,0,0,10.29.21l.45-.24A9.2,9.2,0,0,0,332.93,239.51Z" style="fill:#455a64"></path><path d="M139.76,230.73a7.14,7.14,0,0,0,10.29.22l.44-.25A9.21,9.21,0,0,0,139.76,230.73Z" style="fill:#455a64"></path><path d="M308.51,248.57a4.87,4.87,0,0,0,7,.15l.3-.17A6.26,6.26,0,0,0,308.51,248.57Z" style="fill:#455a64"></path><path d="M98.79,231.07a4.86,4.86,0,0,0,7,.15l.3-.17A6.25,6.25,0,0,0,98.79,231.07Z" style="fill:#455a64"></path><path d="M301,227.25a3.94,3.94,0,0,0,4.27,3.71l.27,0A5,5,0,0,0,301,227.25Z" style="fill:#455a64"></path><path d="M113.79,206.66a3.94,3.94,0,0,0,4.26,3.72l.27.05A5.07,5.07,0,0,0,113.79,206.66Z" style="fill:#455a64"></path><path d="M219.74,411c-.05.13-11.72-4.64-26.06-10.65s-25.92-11-25.86-11.14,11.72,4.64,26.06,10.66S219.8,410.82,219.74,411Z" style="fill:#263238"></path><path d="M224,383.9c0,.14-13.06,1.39-29.19,2.8s-29.22,2.43-29.23,2.28,13.05-1.4,29.19-2.8S223.94,383.75,224,383.9Z" style="fill:#263238"></path><path d="M201.29,432.65c-.11.09-8.26-9.58-18.2-21.59s-17.92-21.83-17.81-21.92,8.26,9.57,18.21,21.59S201.4,432.56,201.29,432.65Z" style="fill:#263238"></path><path d="M158.47,388.27c.08.12-11,7.5-24.85,16.47s-25.05,16.17-25.13,16,11-7.49,24.85-16.47S158.4,388.15,158.47,388.27Z" style="fill:#263238"></path><path d="M179.57,447.22a2.63,2.63,0,0,1-.19-.59c-.12-.45-.27-1-.46-1.72-.39-1.56-.94-3.71-1.61-6.34-1.36-5.35-3.28-12.72-5.55-20.84s-4.45-15.41-6.07-20.69c-.79-2.6-1.44-4.72-1.91-6.26-.21-.69-.37-1.26-.5-1.7a4,4,0,0,1-.15-.61,2.91,2.91,0,0,1,.25.58l.59,1.67c.51,1.46,1.22,3.58,2.07,6.21,1.71,5.25,4,12.55,6.22,20.66s4.14,15.52,5.41,20.9c.64,2.68,1.13,4.86,1.45,6.37.15.72.27,1.29.36,1.75A2.36,2.36,0,0,1,179.57,447.22Z" style="fill:#263238"></path><path d="M141.68,448.14a2.52,2.52,0,0,1,.1-.59c.11-.43.24-1,.4-1.64.35-1.43.89-3.48,1.59-6,1.38-5.07,3.4-12,5.82-19.68s4.8-14.5,6.6-19.43c.89-2.47,1.64-4.46,2.17-5.83.26-.64.46-1.16.63-1.57a2.74,2.74,0,0,1,.25-.54,2.46,2.46,0,0,1-.15.57l-.54,1.61c-.5,1.45-1.18,3.45-2,5.88-1.7,5-4,11.84-6.44,19.47s-4.5,14.58-6,19.62l-1.74,6c-.2.66-.37,1.2-.49,1.62A2.54,2.54,0,0,1,141.68,448.14Z" style="fill:#263238"></path><path d="M161.91,451.55c-.14,0-.26-13.24-.27-29.58s.11-29.59.25-29.59.27,13.24.27,29.59S162.06,451.55,161.91,451.55Z" style="fill:#263238"></path><path d="M120,436.16a2.48,2.48,0,0,1,.35-.48l1.06-1.28,4-4.69,13-15.48,12.91-15.61,3.9-4.73,1.08-1.28a2.57,2.57,0,0,1,.4-.42,3.08,3.08,0,0,1-.32.49l-1,1.33c-.88,1.16-2.17,2.81-3.77,4.85-3.22,4.06-7.73,9.63-12.8,15.7s-9.74,11.5-13.16,15.39c-1.72,1.95-3.12,3.51-4.1,4.58l-1.13,1.22A2.43,2.43,0,0,1,120,436.16Z" style="fill:#263238"></path><path d="M160.29,384.49c-.12.07-7-11.36-15.39-25.54s-15.06-25.73-14.94-25.8,7,11.36,15.39,25.54S160.42,384.42,160.29,384.49Z" style="fill:#263238"></path><path d="M100.48,403a2.39,2.39,0,0,1,.6-.17l1.74-.38,6.4-1.33c5.4-1.13,12.86-2.73,21.06-4.65s15.59-3.78,20.94-5.17l6.33-1.64,1.72-.43a2.59,2.59,0,0,1,.61-.11,2.9,2.9,0,0,1-.58.21l-1.7.53c-1.48.44-3.62,1.06-6.29,1.8-5.32,1.47-12.7,3.4-20.91,5.32s-15.68,3.46-21.11,4.5c-2.71.52-4.91.92-6.44,1.17l-1.75.28A2.86,2.86,0,0,1,100.48,403Z" style="fill:#263238"></path><path d="M101.21,365.13a2.08,2.08,0,0,1,.57.12l1.63.47c1.41.42,3.44,1,5.94,1.84,5,1.6,11.88,3.92,19.41,6.67s14.28,5.43,19.13,7.43c2.43,1,4.39,1.84,5.73,2.43l1.54.69a3,3,0,0,1,.53.28,3.64,3.64,0,0,1-.57-.18l-1.58-.6L147.75,382c-4.88-1.92-11.65-4.53-19.17-7.29s-14.37-5.12-19.35-6.81l-5.88-2-1.6-.56A3,3,0,0,1,101.21,365.13Z" style="fill:#263238"></path><path d="M96.91,385.19c0-.14,13.25.31,29.58,1S156,387.59,156,387.73s-13.25-.31-29.58-1S96.91,385.33,96.91,385.19Z" style="fill:#263238"></path><path d="M114.11,344s.17.11.46.36.73.67,1.24,1.12l4.51,4.16,14.9,13.7,15,13.57,4.57,4.11,1.22,1.13c.28.26.42.4.41.42a2.87,2.87,0,0,1-.47-.34l-1.3-1.06c-1.11-.93-2.71-2.28-4.67-4-3.93-3.39-9.29-8.14-15.14-13.46s-11.07-10.23-14.81-13.82c-1.87-1.79-3.37-3.26-4.39-4.28l-1.18-1.19A3.08,3.08,0,0,1,114.11,344Z" style="fill:#263238"></path><path d="M168.05,387c-.06-.12,11.84-6.18,26.57-13.52s26.74-13.2,26.81-13.07S209.6,366.62,194.86,374,168.12,387.15,168.05,387Z" style="fill:#263238"></path><path d="M153.83,326.05a2.23,2.23,0,0,1,.12.58c.06.45.14,1,.24,1.7.19,1.55.45,3.67.77,6.25.61,5.35,1.44,12.62,2.36,20.66s1.64,15.32,2.21,20.67c.25,2.6.46,4.72.61,6.27.06.7.1,1.26.14,1.71a2.74,2.74,0,0,1,0,.6,2.41,2.41,0,0,1-.12-.59c-.06-.44-.14-1-.23-1.7-.19-1.54-.46-3.66-.78-6.25-.61-5.35-1.44-12.62-2.36-20.65s-1.63-15.32-2.2-20.67c-.26-2.6-.46-4.73-.61-6.28-.06-.69-.11-1.26-.14-1.7A3.38,3.38,0,0,1,153.83,326.05Z" style="fill:#263238"></path><path d="M191.58,329.47a2.89,2.89,0,0,1-.17.57c-.15.41-.35.94-.58,1.58-.52,1.38-1.29,3.36-2.26,5.8-2,4.88-4.76,11.57-8,18.88s-6.43,13.86-8.77,18.56c-1.18,2.35-2.15,4.24-2.83,5.54-.33.6-.59,1.1-.8,1.49a2.76,2.76,0,0,1-.31.5,2.37,2.37,0,0,1,.21-.55l.72-1.53,2.67-5.61c2.27-4.74,5.35-11.3,8.64-18.61s6.13-14,8.16-18.81l2.42-5.73c.27-.63.49-1.15.67-1.55A2.07,2.07,0,0,1,191.58,329.47Z" style="fill:#263238"></path><path d="M171.87,323.76a2.9,2.9,0,0,1,0,.62c0,.42-.1,1-.19,1.79-.18,1.55-.49,3.78-.9,6.53-.8,5.51-2,13.1-3.36,21.49s-2.64,16-3.59,21.44c-.48,2.69-.88,4.89-1.16,6.49-.14.72-.25,1.31-.34,1.76a3,3,0,0,1-.16.61,3.57,3.57,0,0,1,.05-.62c.07-.47.15-1.05.25-1.78.24-1.6.58-3.81,1-6.52.89-5.55,2.11-13.11,3.45-21.47C169.55,337.94,171.42,326.5,171.87,323.76Z" style="fill:#263238"></path><path d="M211.71,343.84s-.12.16-.39.43l-1.21,1.16-4.47,4.2-14.73,13.89-14.6,14-4.42,4.26L170.67,383a2.34,2.34,0,0,1-.45.38,2.77,2.77,0,0,1,.38-.45l1.15-1.21c1-1.05,2.47-2.55,4.3-4.38,3.66-3.68,8.77-8.69,14.5-14.14s11-10.32,14.84-13.79c1.92-1.74,3.49-3.13,4.59-4.08l1.27-1.09A2.9,2.9,0,0,1,211.71,343.84Z" style="fill:#263238"></path><path d="M162.16,453.23a65.68,65.68,0,1,1,65.68-65.67A65.75,65.75,0,0,1,162.16,453.23Zm0-125.4a59.73,59.73,0,1,0,59.73,59.73A59.79,59.79,0,0,0,162.16,327.83Z" style="fill:#455a64"></path><path d="M233,361.35c-.08,0-.43-.47-1-1.47l-1-1.84-.65-1.19c-.25-.41-.54-.83-.83-1.29l-1.95-3c-.76-1.08-1.64-2.21-2.55-3.46s-2-2.46-3.12-3.8-2.42-2.65-3.77-4a83.12,83.12,0,0,0-21.85-15.87c-1.13-.59-2.27-1.19-3.48-1.68l-3.63-1.58c-2.52-.88-5-1.9-7.73-2.57a66,66,0,0,0-16.85-2.62,68.82,68.82,0,0,0-16.94,1.74,80.39,80.39,0,0,0-15,5.32l-3.37,1.7c-1.12.54-2.15,1.22-3.2,1.81-2.12,1.16-4,2.54-5.94,3.78-.94.63-1.81,1.34-2.7,2s-1.77,1.27-2.56,2l-2.39,2-1.15,1-1.08,1c-1.41,1.33-2.81,2.54-4,3.82s-2.42,2.39-3.41,3.57l-2.86,3.21-2.3,2.81c-.71.83-1.3,1.59-1.8,2.27l-1.31,1.67c-.72.9-1.14,1.35-1.21,1.3s.19-.6.78-1.59l1.11-1.83c.44-.73,1-1.55,1.62-2.43s1.36-1.89,2.14-3,1.75-2.18,2.73-3.4,2.13-2.43,3.31-3.76,2.55-2.62,3.94-4c.36-.34.71-.69,1.07-1.05l1.15-1,2.38-2.09c.8-.73,1.7-1.37,2.57-2.07s1.77-1.42,2.72-2.09c1.92-1.31,3.85-2.75,6-4,1.08-.63,2.12-1.34,3.26-1.91s2.28-1.19,3.45-1.8A80.49,80.49,0,0,1,147,316.17a70.15,70.15,0,0,1,17.61-1.87,67.25,67.25,0,0,1,17.47,2.78c2.78.71,5.38,1.78,8,2.71l3.73,1.67c1.24.52,2.41,1.15,3.56,1.77A81.43,81.43,0,0,1,219.39,340c1.33,1.46,2.64,2.81,3.7,4.24s2.2,2.68,3,4,1.71,2.5,2.41,3.65l1.79,3.21c.26.48.52.93.74,1.37l.55,1.25c.32.78.6,1.44.83,2C232.89,360.73,233.07,361.31,233,361.35Z" style="fill:#263238"></path><path d="M369.73,327.18c.14,0-2.81,12.3-6.57,27.38s-6.94,27.29-7.08,27.26,2.8-12.29,6.57-27.39S369.59,327.15,369.73,327.18Z" style="fill:#263238"></path><path d="M342.35,327.14c.14,0,3.36,12.69,7.2,28.42s6.85,28.51,6.71,28.54-3.37-12.68-7.21-28.42S342.21,327.17,342.35,327.14Z" style="fill:#263238"></path><path d="M394,342.12c.1.1-8.21,9.62-18.57,21.27s-18.86,21-19,20.94,8.2-9.62,18.57-21.28S393.87,342,394,342.12Z" style="fill:#263238"></path><path d="M356.62,391.19c.11-.1,9.09,9.78,20.06,22.05s19.79,22.31,19.68,22.41-9.09-9.78-20.06-22.06S356.51,391.28,356.62,391.19Z" style="fill:#263238"></path><path d="M411.68,361.37a2,2,0,0,1-.55.28l-1.63.72c-1.49.62-3.53,1.49-6,2.55-5.08,2.16-12.08,5.18-19.75,8.66s-14.57,6.74-19.54,9.14l-5.89,2.84-1.61.76a2.5,2.5,0,0,1-.57.23,2.32,2.32,0,0,1,.53-.33l1.56-.84c1.36-.73,3.35-1.75,5.82-3,4.93-2.48,11.8-5.81,19.48-9.29s14.71-6.45,19.83-8.52c2.56-1,4.64-1.86,6.08-2.4l1.67-.62A3.69,3.69,0,0,1,411.68,361.37Z" style="fill:#263238"></path><path d="M418.35,398.68a2.14,2.14,0,0,1-.6,0l-1.68-.14c-1.46-.13-3.58-.36-6.19-.65-5.22-.6-12.41-1.53-20.33-2.77s-15.06-2.54-20.22-3.56c-2.57-.51-4.65-.95-6.09-1.27l-1.64-.38a3.08,3.08,0,0,1-.57-.16,2.2,2.2,0,0,1,.59.06l1.66.28,6.12,1.1c5.17.94,12.31,2.18,20.23,3.42s15.09,2.22,20.3,2.91l6.16.82,1.68.24A4.1,4.1,0,0,1,418.35,398.68Z" style="fill:#263238"></path><path d="M418.65,378.17c0,.14-13,2.27-29.2,4.76s-29.26,4.39-29.29,4.25,13.06-2.27,29.21-4.76S418.63,378,418.65,378.17Z" style="fill:#263238"></path><path d="M409.8,421.9a2.94,2.94,0,0,1-.52-.27l-1.44-.85-5.23-3.21L385.32,407l-17.38-10.38-5.28-3.14-1.42-.87a2.84,2.84,0,0,1-.48-.33,1.87,1.87,0,0,1,.53.24l1.48.78c1.27.7,3.1,1.72,5.35,3,4.51,2.56,10.7,6.17,17.47,10.26s12.85,7.87,17.22,10.67c2.18,1.39,3.94,2.54,5.14,3.34.56.39,1,.7,1.39.94A2.21,2.21,0,0,1,409.8,421.9Z" style="fill:#263238"></path><path d="M352.61,390c.09.11-10.16,8.66-22.9,19.09s-23.14,18.8-23.24,18.69,10.17-8.66,22.91-19.1S352.52,389.85,352.61,390Z" style="fill:#263238"></path><path d="M380,446.26a2.08,2.08,0,0,1-.26-.56c-.16-.43-.38-1-.64-1.66-.56-1.51-1.34-3.59-2.29-6.12-1.94-5.17-4.65-12.3-7.79-20.11s-6.12-14.84-8.3-19.92l-2.58-6-.69-1.64a2.35,2.35,0,0,1-.2-.59,3.11,3.11,0,0,1,.3.54l.78,1.6c.66,1.4,1.6,3.43,2.73,5.95,2.27,5,5.29,12,8.44,19.86s5.81,15,7.66,20.18c.92,2.6,1.65,4.71,2.13,6.18.23.69.41,1.25.55,1.69A2.79,2.79,0,0,1,380,446.26Z" style="fill:#263238"></path><path d="M342.46,451.31a2,2,0,0,1,0-.59q.08-.66.21-1.68c.19-1.46.51-3.56.92-6.15.82-5.19,2.06-12.34,3.64-20.2s3.19-14.94,4.43-20c.63-2.55,1.15-4.61,1.53-6l.45-1.63a2.67,2.67,0,0,1,.19-.56,2.18,2.18,0,0,1-.09.59l-.35,1.65c-.34,1.5-.8,3.55-1.37,6.06-1.15,5.13-2.7,12.21-4.28,20.06s-2.88,15-3.79,20.16c-.45,2.53-.81,4.61-1.08,6.12-.13.68-.23,1.23-.31,1.66A4.3,4.3,0,0,1,342.46,451.31Z" style="fill:#263238"></path><path d="M362.94,452.5c-.14,0-1.71-13.14-3.5-29.38s-3.12-29.43-3-29.44,1.71,13.14,3.5,29.38S363.08,452.48,362.94,452.5Z" style="fill:#263238"></path><path d="M319.63,441.76a3.27,3.27,0,0,1,.29-.5l.92-1.4,3.43-5.09L335.54,418,346.67,401,350,395.9l.93-1.38a2.14,2.14,0,0,1,.36-.47,2.94,2.94,0,0,1-.27.52L350.2,396c-.74,1.24-1.84,3-3.22,5.23-2.75,4.39-6.63,10.41-11,17s-8.43,12.5-11.41,16.74c-1.49,2.12-2.71,3.83-3.57,5l-1,1.34C319.77,441.62,319.65,441.78,319.63,441.76Z" style="fill:#263238"></path><path d="M353.94,381.91c-.12.08-7.92-10.76-17.41-24.21s-17.11-24.42-17-24.5S327.45,344,337,357.4,354.05,381.83,353.94,381.91Z" style="fill:#263238"></path><path d="M295.83,405.23a3.67,3.67,0,0,1,.56-.2l1.64-.49,6.07-1.72,20-5.47,20.1-5.33,6.1-1.55,1.67-.4a2.59,2.59,0,0,1,.59-.1,3.67,3.67,0,0,1-.56.2l-1.64.49-6.07,1.72-20,5.47-20.1,5.33-6.1,1.55-1.67.4A2,2,0,0,1,295.83,405.23Z" style="fill:#263238"></path><path d="M293.47,367.41a2.32,2.32,0,0,1,.59.08l1.66.33c1.44.3,3.51.76,6.07,1.36,5.12,1.18,12.16,2.94,19.89,5.07s14.67,4.24,19.67,5.85c2.5.8,4.52,1.47,5.9,1.95l1.6.57a2,2,0,0,1,.54.23,3.46,3.46,0,0,1-.57-.13l-1.63-.47-5.95-1.8c-5-1.51-12-3.57-19.7-5.7s-14.75-3.94-19.84-5.22l-6-1.51-1.63-.43A2.4,2.4,0,0,1,293.47,367.41Z" style="fill:#263238"></path><path d="M290.83,387.76a2.43,2.43,0,0,1,.62-.09c.41-.05,1-.06,1.79-.09,1.56-.05,3.81-.08,6.59-.1,5.57,0,13.26,0,21.75.06s16.18.18,21.74.29l6.59.16,1.79.07a2.64,2.64,0,0,1,.63.06,3.91,3.91,0,0,1-.63,0l-1.79,0h-6.59l-21.75-.14Z" style="fill:#263238"></path><path d="M304.62,345.32a2.6,2.6,0,0,1,.48.33l1.33,1,4.83,3.78,16,12.45,16.09,12.3,4.88,3.72,1.31,1a3,3,0,0,1,.44.38,2.28,2.28,0,0,1-.5-.3l-1.37-.95c-1.19-.83-2.89-2.05-5-3.58-4.19-3.06-9.92-7.36-16.18-12.19S315.05,354,311,350.73c-2-1.63-3.62-3-4.73-3.91L305,345.73A2.83,2.83,0,0,1,304.62,345.32Z" style="fill:#263238"></path><path d="M353.67,453.23a65.68,65.68,0,1,1,65.68-65.67A65.75,65.75,0,0,1,353.67,453.23Zm0-125.4a59.73,59.73,0,1,0,59.73,59.73A59.79,59.79,0,0,0,353.67,327.83Z" style="fill:#455a64"></path><path d="M420.36,361.37c-.08,0-.39-.46-.9-1.44-.25-.49-.55-1.1-.91-1.8L418,357c-.21-.41-.47-.82-.72-1.27l-1.71-3c-.66-1.07-1.46-2.18-2.26-3.4s-1.81-2.43-2.81-3.75-2.21-2.6-3.44-4l-.93-1c-.33-.34-.68-.66-1-1l-2.13-2c-.7-.72-1.53-1.33-2.32-2s-1.61-1.36-2.46-2l-2.68-1.92c-.45-.32-.9-.66-1.37-1l-1.46-.89c-1-.6-2-1.23-3-1.82l-3.18-1.67a70.68,70.68,0,0,0-30.29-7.58,73.18,73.18,0,0,0-16.18,1.6,67.61,67.61,0,0,0-14.28,5l-3.2,1.63-3,1.79c-.48.3-1,.57-1.45.89l-1.39,1c-.91.65-1.83,1.25-2.69,1.9-1.68,1.37-3.39,2.58-4.85,4l-2.2,2c-.71.65-1.36,1.34-2,2a122.57,122.57,0,0,0-11.41,13.29c-2.45,3.35-3.8,5.23-4,5.12s.92-2.14,3.14-5.69a96.71,96.71,0,0,1,10.92-14c.65-.68,1.29-1.4,2-2.09l2.2-2.07c1.46-1.46,3.18-2.74,4.87-4.18.87-.69,1.81-1.33,2.74-2l1.4-1c.48-.34,1-.63,1.49-.95,1-.62,2-1.27,3.07-1.9l3.29-1.74a68.21,68.21,0,0,1,14.78-5.35,73.22,73.22,0,0,1,16.78-1.71,71.09,71.09,0,0,1,31.34,8.05l3.26,1.76c1,.63,2,1.3,3.05,1.93l1.48.95c.48.34.94.69,1.4,1l2.72,2c.87.69,1.67,1.43,2.49,2.13s1.63,1.36,2.34,2.12l2.13,2.15c.34.36.7.69,1,1.05l.93,1.1a50.9,50.9,0,0,1,3.38,4.19c1,1.39,2,2.64,2.71,3.95s1.52,2.47,2.12,3.59,1.08,2.2,1.54,3.15c.22.48.45.92.63,1.35l.46,1.22.69,1.93C420.3,360.78,420.45,361.34,420.36,361.37Z" style="fill:#263238"></path><polygon points="316.06 297.52 331.32 294.99 333.31 300.59 316.06 302.88 316.06 297.52" style="fill:#263238"></polygon><path d="M334.74,290.14l-5.13-7.31c-.69-1-1.41-2.15-1-3.28a2.61,2.61,0,0,1,2.65-1.5,7.56,7.56,0,0,1,3,1.11c-1-1.68-2-3.9-.84-5.46.89-1.15,2.56-1.28,4-1.11,6.44.75,12,5.48,18.45,5.86,3.18.19,6.33-.69,9.51-.74s6.75,1,8.2,3.84.35,6.07-.73,9" style="fill:#455a64"></path><polygon points="378.37 285.56 372.44 313.57 337.91 313.57 328.18 286.11 378.37 285.56" style="fill:#263238"></polygon><path d="M374.49,293.82c0,.14-9.61.34-21.47.45s-21.47.06-21.48-.08,9.61-.34,21.48-.45S374.49,293.68,374.49,293.82Z" style="fill:#455a64"></path><path d="M373.12,307c0,.15-8.43.34-18.83.42s-18.84.05-18.84-.09,8.43-.34,18.83-.43S373.12,306.87,373.12,307Z" style="fill:#455a64"></path><path d="M373.86,299.91c0,.14-9.25.34-20.65.44s-20.66.06-20.66-.09,9.24-.34,20.65-.43S373.86,299.77,373.86,299.91Z" style="fill:#455a64"></path><path d="M343.69,313.29c-.14,0-1.63-5.86-3.33-13.17s-3-13.25-2.83-13.28,1.63,5.86,3.33,13.17S343.83,313.25,343.69,313.29Z" style="fill:#455a64"></path><path d="M349.54,312.88c-.15,0-.67-5.87-1.16-13.13s-.79-13.16-.64-13.17.66,5.87,1.16,13.13S349.68,312.87,349.54,312.88Z" style="fill:#455a64"></path><path d="M358.15,312.88c-.14,0,.13-5.88.62-13.12s1-13.1,1.14-13.09-.14,5.89-.62,13.12S358.29,312.89,358.15,312.88Z" style="fill:#455a64"></path><path d="M365.62,313.61a4.5,4.5,0,0,1,.05-1.09c.06-.69.17-1.7.33-2.94.31-2.49.83-5.91,1.54-9.66s1.46-7.13,2.06-9.56c.3-1.21.56-2.19.76-2.87a4.54,4.54,0,0,1,.35-1,4.1,4.1,0,0,1-.15,1.08c-.17.8-.37,1.77-.6,2.9-.51,2.45-1.21,5.83-1.91,9.58s-1.28,7.15-1.69,9.61c-.19,1.14-.36,2.12-.49,2.92A4.17,4.17,0,0,1,365.62,313.61Z" style="fill:#455a64"></path><path d="M350.8,269.41a7.15,7.15,0,0,0,7.73,6.8l.5.1A9.22,9.22,0,0,0,350.8,269.41Z" style="fill:#455a64"></path><path d="M371.63,276.71a1.57,1.57,0,0,0-2-.3,6.36,6.36,0,0,0,.52-1.69,2.22,2.22,0,0,0-.41-1.68,1.74,1.74,0,0,0-2.55,0,1.49,1.49,0,0,0-.71-2,2.43,2.43,0,0,0-2.3.24,5.2,5.2,0,0,0-1.11,1l.08-.1a7.92,7.92,0,0,0-2.37,4.63,5.25,5.25,0,0,0,1.69,4.52,6.39,6.39,0,0,0,6.07.81,5,5,0,0,0,3.54-3.24A2.38,2.38,0,0,0,371.63,276.71Z" style="fill:#DE002F"></path><g style="opacity:0.4"><path d="M363.13,281.52c-.17-.06.88-1.93.7-4.44s-1.37-4.26-1.21-4.34.41.35.82,1.11a7.75,7.75,0,0,1,.91,3.2,7.45,7.45,0,0,1-.52,3.29C363.51,281.13,363.18,281.55,363.13,281.52Z"></path></g><g style="opacity:0.4"><path d="M370.93,280.54a10,10,0,0,0-3.34-1.12c-1.95-.2-3.41.71-3.48.55s.28-.34.9-.63a5.09,5.09,0,0,1,2.63-.44,5.26,5.26,0,0,1,2.51.86C370.72,280.15,371,280.5,370.93,280.54Z"></path></g><g style="opacity:0.4"><path d="M367.2,278.71a26.25,26.25,0,0,1,.1-2.85,23.88,23.88,0,0,1-.14-2.85,5.11,5.11,0,0,1,.67,2.85A4.9,4.9,0,0,1,367.2,278.71Z"></path></g><g style="opacity:0.4"><path d="M370.1,274.85c0,.15-.51.23-1,.55s-1.05.6-1.14.47.26-.55.88-.93S370.13,274.71,370.1,274.85Z"></path></g><path d="M362.22,263.26a.92.92,0,0,0-1,.75,3.52,3.52,0,0,0-.52-.9,1.34,1.34,0,0,0-.88-.51,1,1,0,0,0-1.05,1.09.88.88,0,0,0-1.15-.52,1.46,1.46,0,0,0-.83,1.09,3.17,3.17,0,0,0,0,.87v-.07a4.72,4.72,0,0,0,1,2.89,3.11,3.11,0,0,0,2.63,1.1,3.78,3.78,0,0,0,2.8-2.28,3,3,0,0,0,0-2.83A1.42,1.42,0,0,0,362.22,263.26Z" style="fill:#DE002F"></path><g style="opacity:0.4"><path d="M360.88,268.79c-.14.06-.57-1.1-1.71-2s-2.34-1.12-2.3-1.28a3.35,3.35,0,0,1,2.63.87,4.2,4.2,0,0,1,1.23,1.58C360.92,268.45,361,268.77,360.88,268.79Z"></path></g><g style="opacity:0.4"><path d="M363.67,265.11c0,.14-.91.29-1.76,1a4.83,4.83,0,0,0-1,1c-.19.3-.29.52-.37.5s-.09-.27,0-.66a3,3,0,0,1,1-1.24C362.59,264.88,363.7,265,363.67,265.11Z"></path></g><g style="opacity:0.4"><path d="M361,266.13c0,.14-.94-.1-1.63-.94s-.87-1.69-.75-1.73.53.66,1.14,1.39S361.05,266,361,266.13Z"></path></g><g style="opacity:0.4"><path d="M361.22,264.08c.1.1-.05.41-.21.77s-.32.68-.46.67-.23-.43,0-.89S361.13,264,361.22,264.08Z"></path></g><path d="M340.72,275.13a.91.91,0,0,0-.15,1.2,3.92,3.92,0,0,0-1-.28,1.34,1.34,0,0,0-1,.27,1,1,0,0,0,0,1.5.9.9,0,0,0-1.19.45,1.45,1.45,0,0,0,.18,1.36,3,3,0,0,0,.6.64l-.06,0a4.73,4.73,0,0,0,2.76,1.33,3.15,3.15,0,0,0,2.64-1.07,3.77,3.77,0,0,0,.38-3.6,2.94,2.94,0,0,0-2-2A1.41,1.41,0,0,0,340.72,275.13Z" style="fill:#DE002F"></path><g style="opacity:0.4"><path d="M343.66,280a14.41,14.41,0,0,0-2.61-.2c-1.42.17-2.45.85-2.53.71a3.36,3.36,0,0,1,2.47-1.23,4.1,4.1,0,0,1,2,.26C343.45,279.72,343.69,279.94,343.66,280Z"></path></g><g style="opacity:0.4"><path d="M343.05,275.41c.11.1-.44.86-.56,1.94a4.81,4.81,0,0,0,0,1.39c.08.34.16.57.1.61s-.26-.12-.44-.49a2.87,2.87,0,0,1-.19-1.57C342.12,276,343,275.3,343.05,275.41Z"></path></g><g style="opacity:0.4"><path d="M341.86,278c.07.12-.73.59-1.82.48s-1.8-.58-1.74-.7.83.1,1.79.18S341.81,277.89,341.86,278Z"></path></g><g style="opacity:0.4"><path d="M340.58,276.41c.15,0,.26.33.4.7s.25.7.14.79-.46-.14-.63-.61S340.44,276.4,340.58,276.41Z"></path></g><path d="M349.18,278.57a.52.52,0,0,0-.61.29,2.14,2.14,0,0,0-.17-.56.75.75,0,0,0-.43-.39.57.57,0,0,0-.7.46.52.52,0,0,0-.57-.43.84.84,0,0,0-.6.5,1.91,1.91,0,0,0-.12.47v0a2.68,2.68,0,0,0,.2,1.72,1.74,1.74,0,0,0,1.31.93,2.1,2.1,0,0,0,1.82-.9,1.66,1.66,0,0,0,.38-1.54A.79.79,0,0,0,349.18,278.57Z" style="fill:#f5f5f5"></path><path d="M169.52,379.23a9.4,9.4,0,0,1-2.42.37c-1.58.19-3.94.35-6.87.93a8.72,8.72,0,0,0-2.16.67,9,9,0,0,0-2.07,1.36,7.44,7.44,0,0,0-2.54,4.74,7,7,0,0,0,2.06,5.63c1.59,1.54,4,2.57,6.41,3.63a169.51,169.51,0,0,0,16.65,5.8l19.61,5.44c6.91,1.9,14.18,3.72,21.79,5.36,3.8.79,7.71,1.68,11.6,2.32a35,35,0,0,0,5.85.48,33.08,33.08,0,0,0,5.89-.65,11.69,11.69,0,0,0,9.06-5.84,17.28,17.28,0,0,0,2.11-5.15,15.83,15.83,0,0,0,.4-2.71,21.48,21.48,0,0,0,0-2.78,14.66,14.66,0,0,0-3.95-9.6A16.77,16.77,0,0,0,249,387.5c-.74-.5-1.44-1-2.21-1.47a24.93,24.93,0,0,0-4.69-2.25,39.66,39.66,0,0,0-9.93-2.11c-3.33-.33-6.61-.43-9.8-.55-6.38-.21-12.33-.49-17.75-.73-10.83-.52-19.59-.79-25.66-.87s-9.42-.1-9.43-.29a9.05,9.05,0,0,1,2.43-.34c1.6-.13,4-.27,7-.38,6.08-.23,14.88-.25,25.74,0l17.74.42c3.19.06,6.51.12,10,.42a41.3,41.3,0,0,1,10.54,2.13,27.82,27.82,0,0,1,5.13,2.41c.84.47,1.62,1.05,2.42,1.59a19.19,19.19,0,0,1,2.26,2,16.08,16.08,0,0,1,3.36,5.12,19.05,19.05,0,0,1,1.35,6,24.5,24.5,0,0,1,0,3.09,19.43,19.43,0,0,1-.45,3.15,20.18,20.18,0,0,1-2.41,5.93,15.45,15.45,0,0,1-4.53,4.8,16.67,16.67,0,0,1-1.48.85,14.82,14.82,0,0,1-1.6.64,29.9,29.9,0,0,1-3.17.74,35.47,35.47,0,0,1-6.35.7,37,37,0,0,1-6.28-.52c-4.06-.68-7.91-1.57-11.74-2.39-7.65-1.68-15-3.57-21.89-5.54l-10.08-2.9c-3.27-1-6.43-1.82-9.52-2.78a162.63,162.63,0,0,1-16.75-6.18c-2.47-1.14-4.95-2.23-6.86-4.16a8.49,8.49,0,0,1-2.33-7,8.72,8.72,0,0,1,3.19-5.51,10.19,10.19,0,0,1,2.4-1.44,9.37,9.37,0,0,1,2.45-.64,49.48,49.48,0,0,1,7-.45A8.13,8.13,0,0,1,169.52,379.23Z" style="fill:#263238"></path><polygon points="256.39 397.23 350.46 387.16 351.59 395.06 256.39 404.53 256.39 397.23" style="fill:#DE002F"></polygon><polygon points="348.77 383.92 316.98 311.37 252.99 390.85 247.28 385.15 313.47 305.55 311.86 302.3 216.71 322.38 214.68 315.04 309.65 296.7 307.61 290.58 314.13 288.55 353.67 380.25 348.77 383.92" style="fill:#DE002F"></polygon><polygon points="165.28 390.85 224.5 400.38 224.82 394 167.09 385.23 165.28 390.85" style="fill:#DE002F"></polygon><polygon points="162.24 383.11 206.52 323.6 214.68 327.27 167.77 387.18 162.24 383.11" style="fill:#DE002F"></polygon><polygon points="214.68 315.04 210.27 299.88 201.53 299.88 206.52 323.6 214.68 327.27 216.71 322.38 214.68 315.04" style="fill:#DE002F"></polygon><polygon points="293.94 329.04 294.47 339.33 301.13 331.06 301.13 320.39 293.94 329.04" style="fill:#fff;opacity:0.4"></polygon><polygon points="251.23 307.98 258.44 313.57 274.62 310.16 265.01 305.32 251.23 307.98" style="fill:#ebebeb"></polygon><path d="M189.33,299.62c.69,2.1,3.73,11,8.2,11.31s35.35-4.48,40-5.66c3-.74,4.65-5.65-2.37-5.65C225.07,299.62,187.8,294.91,189.33,299.62Z" style="fill:#DE002F"></path><path d="M189.33,299.62c.69,2.1,3.73,11,8.2,11.31s35.35-4.48,40-5.66c3-.74,4.65-5.65-2.37-5.65C225.07,299.62,187.8,294.91,189.33,299.62Z" style="opacity:0.5"></path><circle cx="162.24" cy="387.81" r="7.9" transform="translate(-222.85 219.21) rotate(-43.65)" style="fill:#DE002F"></circle><circle cx="162.24" cy="387.81" r="7.9" transform="translate(-222.85 219.21) rotate(-43.65)" style="opacity:0.5"></circle><circle cx="353.63" cy="387.81" r="7.9" transform="translate(-104.85 643.24) rotate(-76.76)" style="fill:#DE002F"></circle><circle cx="353.63" cy="387.81" r="7.9" transform="translate(-104.85 643.24) rotate(-76.76)" style="opacity:0.5"></circle><circle cx="239.98" cy="400.56" r="18.06" transform="translate(-204.74 542.9) rotate(-76.82)" style="fill:#DE002F"></circle><circle cx="239.98" cy="400.56" r="18.06" transform="translate(-204.74 542.9) rotate(-76.82)" style="opacity:0.5"></circle><rect x="231.53" y="429.65" width="21.69" height="4.34" transform="translate(71.73 -33.04) rotate(9.15)" style="fill:#263238"></rect><rect x="247.17" y="395.2" width="21.69" height="4.34" transform="translate(66.45 -35.96) rotate(9.15)" style="fill:#263238"></rect><path d="M259.23,399.76c.07.72-4.13,1.73-9.38,2.26s-9.56.38-9.63-.34,4.12-1.72,9.37-2.25S259.16,399.05,259.23,399.76Z" style="fill:#263238"></path><path d="M239.62,418c.72,0,1.14,3.52.95,7.79s-.93,7.71-1.65,7.68-1.15-3.52-.95-7.8S238.9,418,239.62,418Z" style="fill:#263238"></path><path d="M264,390.83l1.62-10.17-19-3.15-2.53,14.85,1.17.27c5.2,1.16,26.53,5.54,30.22,5.05C279.55,397.15,264,390.83,264,390.83Z" style="fill:#DE002F"></path><g style="opacity:0.4"><path d="M271.54,394.2s5.4,2.57,4.54,3.39-22.59-2.8-32-5.23l.1-.42,25.3,4.43S270.43,394.06,271.54,394.2Z" style="fill:#fff"></path></g><path d="M243.86,391.88a1.88,1.88,0,0,0,.32.09l.93.21,3.43.72c2.9.59,6.92,1.36,11.38,2.1s8.51,1.33,11.45,1.72l3.48.43.95.1.33,0a1.51,1.51,0,0,0-.32-.07l-.94-.14-3.48-.51c-2.93-.42-7-1-11.43-1.78s-8.48-1.48-11.39-2l-3.45-.65-.93-.17A1.19,1.19,0,0,0,243.86,391.88Z" style="fill:#263238"></path><path d="M269.4,396.66a8.08,8.08,0,0,1,.92-1.54,8.27,8.27,0,0,1,1.4-1.13,2.56,2.56,0,0,0-1.58,1A2.6,2.6,0,0,0,269.4,396.66Z" style="fill:#263238"></path><path d="M264.26,392.88c.05,0,.37-.24.72-.63s.6-.74.55-.79-.37.24-.72.63S264.21,392.84,264.26,392.88Z" style="fill:#263238"></path><path d="M262.85,391.81c0,.05.37-.1.75-.34s.65-.47.62-.53-.37.1-.75.34S262.82,391.76,262.85,391.81Z" style="fill:#263238"></path><path d="M262.18,389.85c0,.07.42.2,1,.29s1,.13,1,.06a2.37,2.37,0,0,0-1-.29A2.45,2.45,0,0,0,262.18,389.85Z" style="fill:#263238"></path><path d="M262.05,388.53a2,2,0,0,0,1.06.51,1.91,1.91,0,0,0,1.17,0,7.37,7.37,0,0,0-1.12-.26A5.58,5.58,0,0,0,262.05,388.53Z" style="fill:#263238"></path><path d="M265.18,391.33a3.63,3.63,0,0,0,1.22.19,6.46,6.46,0,0,0,1.35-.07,3.05,3.05,0,0,0,.8-.18.64.64,0,0,0,.36-.33.47.47,0,0,0-.1-.52,2.26,2.26,0,0,0-2.88.2,2.22,2.22,0,0,0-.54.75c-.08.2-.1.32-.08.32a3.33,3.33,0,0,1,.73-.95,2.14,2.14,0,0,1,1.16-.5,1.91,1.91,0,0,1,1.44.34c.17.17.05.39-.18.48a3.8,3.8,0,0,1-.74.18,9.78,9.78,0,0,1-1.31.12C265.65,391.37,265.19,391.29,265.18,391.33Z" style="fill:#263238"></path><path d="M265.49,391.44a1.25,1.25,0,0,0,.28-.82,2,2,0,0,0-.19-.95,1.24,1.24,0,0,0-.91-.8.5.5,0,0,0-.47.51,1.37,1.37,0,0,0,.12.58,3.77,3.77,0,0,0,.45.83c.32.44.6.64.62.61s-.21-.26-.48-.7a3.92,3.92,0,0,1-.39-.82c-.13-.28-.16-.77.15-.77s.57.38.72.65a1.93,1.93,0,0,1,.21.85A5,5,0,0,1,265.49,391.44Z" style="fill:#263238"></path><path d="M245.11,386.74a13.68,13.68,0,0,1,1.4.28,6,6,0,0,1,4.32,4.8c.15.86.09,1.42.13,1.42a.94.94,0,0,0,.07-.39,5.09,5.09,0,0,0,0-1.06,5.85,5.85,0,0,0-4.44-4.93,5.11,5.11,0,0,0-1.05-.15C245.25,386.71,245.11,386.72,245.11,386.74Z" style="fill:#263238"></path><path d="M248.4,379.15a32.07,32.07,0,0,0-.82,3.88A32.94,32.94,0,0,0,247,387a33.94,33.94,0,0,0,.81-3.88A34.73,34.73,0,0,0,248.4,379.15Z" style="fill:#263238"></path><path d="M253.68,391.89a15.76,15.76,0,0,0,5.55,1c0-.07-1.25-.2-2.78-.47S253.7,391.83,253.68,391.89Z" style="fill:#263238"></path><path d="M250,391.27s.06.28.14.59.1.57.17.57.15-.28.05-.63S250,391.23,250,391.27Z" style="fill:#263238"></path><path d="M248.83,389.29c-.05,0,0,.25.21.48s.33.4.39.36,0-.26-.2-.49S248.89,389.25,248.83,389.29Z" style="fill:#263238"></path><path d="M247,388.15c0,.07.25.11.52.25s.44.33.49.3-.06-.33-.38-.5S247,388.09,247,388.15Z" style="fill:#263238"></path><path d="M245.59,387.54s.06.17.21.26.29.11.32.06-.06-.18-.2-.26S245.62,387.48,245.59,387.54Z" style="fill:#263238"></path><g style="opacity:0.30000000000000004"><polygon points="245.08 386.28 264.28 389.07 264.63 386.78 245.52 383.74 245.08 386.28"></polygon></g><path d="M194.29,259.69s-12.64,12.09-4.31,30.39c3.47,7.63,24.69,12.8,24.69,12.8l44.41,14.28-16.71,67.16,23.39,2.34s27.06-77.85,23.39-83.87-76.63-37.26-76.63-37.26Z" style="fill:#263238"></path><path d="M265.76,386.66l-.41,0-1.22-.09-4.67-.41-17.11-1.63-.22,0,.06-.22c2.91-11.8,6.81-27.55,11.08-44.82,2-7.87,3.85-15.43,5.57-22.35l.16.29L227.11,307l-9.17-3-2.43-.83-.63-.22-.21-.09a.76.76,0,0,1,.23.05l.63.18,2.46.75,9.22,2.89,31.94,10.18.22.07-.05.22c-1.72,6.92-3.59,14.48-5.55,22.36l-11.21,44.78-.17-.24,17.1,1.8,4.65.52,1.21.15A1.72,1.72,0,0,1,265.76,386.66Z" style="fill:#455a64"></path><path d="M168.05,452.74H46.59s-26.78-20.23-21.52-29.26,37.84-1.8,53.83,15.15c0,0,9-13.18,20.64-7.92s24,11.67,24,11.67-.66-10.7,6.84-7.84,11.34,12.95,20.42,12.69S168.05,452.74,168.05,452.74Z" style="fill:#ebebeb"></path><path d="M73.11,394.37c0,.14-8.36.26-18.67.26s-18.68-.12-18.68-.26,8.36-.27,18.68-.27S73.11,394.22,73.11,394.37Z" style="fill:#263238"></path><path d="M66.92,392.11c0,.14-8.36.26-18.68.26s-18.67-.12-18.67-.26,8.36-.26,18.67-.26S66.92,392,66.92,392.11Z" style="fill:#263238"></path></g><g id="freepik--Plant--inject-67"><path d="M453.63,395.65a10.81,10.81,0,0,1,5.6,6.34,19,19,0,0,1,.74,8.59c-.63,5.57-3.79,11.19-7.2,15.65-4.7-4.1-5.78-11.24-6.1-14.9-.5-5.78,2.1-16.54,7-15.68" style="fill:#DE002F"></path><path d="M458.22,435.42a9.22,9.22,0,0,1,3-8.76,12.21,12.21,0,0,1,9-2.81,5.16,5.16,0,0,1,4,1.77,4,4,0,0,1,.06,4,8.07,8.07,0,0,1-2.95,2.91c-4.07,2.55-8.47,4.27-13.07,2.89" style="fill:#DE002F"></path><path d="M452.2,452.51a6.74,6.74,0,0,1,.17-1.15c.15-.8.34-1.84.57-3.09a32.36,32.36,0,0,1,3.19-9.89,19.77,19.77,0,0,1,7.1-7.53,12.57,12.57,0,0,1,2.89-1.28c.35-.12.64-.17.83-.22a1,1,0,0,1,.3,0,20.82,20.82,0,0,0-3.88,1.78,20.52,20.52,0,0,0-6.88,7.49,34.89,34.89,0,0,0-3.27,9.75c-.28,1.29-.52,2.35-.69,3.07A5.66,5.66,0,0,1,452.2,452.51Z" style="fill:#263238"></path><path d="M452.38,404a3.3,3.3,0,0,1,.06.5c0,.37.05.84.08,1.43.07,1.25.14,3.06.21,5.29.15,4.46.26,10.64.23,17.45s-.19,13-.38,17.46c-.09,2.23-.18,4-.25,5.28,0,.59-.08,1.06-.1,1.43a3.3,3.3,0,0,1-.06.5,1.91,1.91,0,0,1,0-.5c0-.37,0-.85,0-1.44,0-1.3.07-3.09.13-5.28.11-4.47.23-10.64.26-17.45s0-13-.11-17.44c0-2.2-.07-4-.09-5.29v-1.44A2.73,2.73,0,0,1,452.38,404Z" style="fill:#263238"></path><path d="M450.1,438.81A21.55,21.55,0,0,0,438.33,423c-1.56-.75-3.61-1.24-4.9-.08s-1,3.27-.37,4.89A18.41,18.41,0,0,0,450,439.27" style="fill:#DE002F"></path><path d="M439.1,428.31a6,6,0,0,1,1,.44,10,10,0,0,1,1.13.6,16.1,16.1,0,0,1,1.43.9,18.91,18.91,0,0,1,1.64,1.23,20.57,20.57,0,0,1,1.74,1.58,24,24,0,0,1,3.31,4.26,23.76,23.76,0,0,1,2.19,4.94,20.4,20.4,0,0,1,.55,2.29,16.38,16.38,0,0,1,.28,2,14.82,14.82,0,0,1,.08,1.69,9.94,9.94,0,0,1,0,1.28,5.43,5.43,0,0,1-.12,1.08c-.09,0,.07-1.55-.21-4a18.7,18.7,0,0,0-.32-2,22.51,22.51,0,0,0-.58-2.24,22.57,22.57,0,0,0-5.41-9,20.54,20.54,0,0,0-1.69-1.59,19.81,19.81,0,0,0-1.59-1.26C440.47,429,439.05,428.39,439.1,428.31Z" style="fill:#263238"></path></g></svg>