<svg xmlns="http://www.w3.org/2000/svg" viewBox="0 0 500 500"><g id="freepik--background-simple--inject-87"><path d="M339,93.48c-17,9.66-35.51,21.61-56.15,22.69-21.34,1.12-41.39-10.14-62.07-13.8C131.81,86.61,30.84,154.75,13.37,243.85c-8.93,45.55,4.46,89.31,28.06,128.41C91.05,454.51,164.19,483.86,217,469.17c33.1-9.2,52-44.16,72.29-68.94,26.27-32,55.33-47.09,96.29-52.68,34.65-4.72,66.73-11.45,85.91-43.47,16.52-27.59,21.74-62.29,20.38-94C489.32,150.2,436.41,65.13,366.54,81.68,356.78,84,347.77,88.47,339,93.48Z" style="fill:#DE002F"></path><path d="M339,93.48c-17,9.66-35.51,21.61-56.15,22.69-21.34,1.12-41.39-10.14-62.07-13.8C131.81,86.61,30.84,154.75,13.37,243.85c-8.93,45.55,4.46,89.31,28.06,128.41C91.05,454.51,164.19,483.86,217,469.17c33.1-9.2,52-44.16,72.29-68.94,26.27-32,55.33-47.09,96.29-52.68,34.65-4.72,66.73-11.45,85.91-43.47,16.52-27.59,21.74-62.29,20.38-94C489.32,150.2,436.41,65.13,366.54,81.68,356.78,84,347.77,88.47,339,93.48Z" style="fill:#fff;opacity:0.8"></path></g><g id="freepik--Floor--inject-87"><path d="M374.76,449.07c14.41,2,24.9,3,26.07,3" style="fill:none;stroke:#263238;stroke-miterlimit:10"></path><path d="M57.43,359.11c14.24,1.05,35.83,4,64.66,11.65,45.71,12.15,142.85,52.58,177.56,63.49,18.7,5.87,45.73,10.6,67.17,13.71" style="fill:none;stroke:#263238;stroke-miterlimit:10"></path><path d="M36.79,358.86a91.67,91.67,0,0,1,10.87-.23" style="fill:none;stroke:#263238;stroke-miterlimit:10"></path><path d="M468.54,402.18q3.49,0,6.69.33" style="fill:none;stroke:#263238;stroke-miterlimit:10"></path><path d="M238.29,411.53s71.28,13.79,125.84,4.86C409.2,409,440.05,403,462.28,402.25" style="fill:none;stroke:#263238;stroke-miterlimit:10"></path><path d="M199.66,430.55c-.4,1.24-3.3,1.4-6.48.37s-5.43-2.88-5-4.12,3.31-1.4,6.49-.36S200.07,429.31,199.66,430.55Z" style="fill:none;stroke:#263238;stroke-miterlimit:10"></path><path d="M268.49,437c-.21.62-1.66.7-3.25.18s-2.71-1.43-2.51-2.05,1.65-.7,3.24-.18S268.69,436.38,268.49,437Z" style="fill:none;stroke:#263238;stroke-miterlimit:10"></path><path d="M230.39,439.32c-.29.86-2.26,1-4.41.29s-3.67-2-3.39-2.83,2.26-1,4.41-.29S230.67,438.46,230.39,439.32Z" style="fill:none;stroke:#263238;stroke-miterlimit:10"></path><path d="M192.43,407.42c-.29.86-2.26,1-4.41.29s-3.67-2-3.39-2.83,2.26-1,4.41-.29S192.71,406.55,192.43,407.42Z" style="fill:none;stroke:#263238;stroke-miterlimit:10"></path><path d="M81.61,396.06c-.28.87-2.25,1-4.41.3s-3.66-2-3.38-2.83,2.25-1,4.4-.3S81.89,395.2,81.61,396.06Z" style="fill:none;stroke:#263238;stroke-miterlimit:10"></path><path d="M359.54,424.34c0,.91-1.82,1.66-4.08,1.69s-4.11-.7-4.12-1.61,1.82-1.66,4.08-1.68S359.53,423.43,359.54,424.34Z" style="fill:none;stroke:#263238;stroke-miterlimit:10"></path><path d="M331,429.2c0,.46-.91.84-2,.85s-2.05-.35-2.06-.8.91-.84,2-.85S331,428.75,331,429.2Z" style="fill:none;stroke:#263238;stroke-miterlimit:10"></path><path d="M381.55,428.17c0,.45-.91.83-2,.84s-2.05-.34-2.06-.8.91-.83,2-.84S381.54,427.72,381.55,428.17Z" style="fill:none;stroke:#263238;stroke-miterlimit:10"></path></g><g id="freepik--Clouds--inject-87"><path d="M280.44,131c-8.31-4.53-12.08-.75-15.1-4.53s8.3-13.59-14.35-23.4c0,0-1.51-21.14-32.46-21.9s-22.65,21.14-31,26.43-10.56-3-18.87,2.26-4.53,15.86-11.32,17.37-15.86-6.8-24.16-1.51-8.31,9.81-12.08,9.81-11.33-3-15.86,0-9.81,6.8-9.81,6.8h191S288.74,135.49,280.44,131Z" style="fill:none;stroke:#263238;stroke-linecap:round;stroke-linejoin:round"></path><path d="M167.44,127.86a24.63,24.63,0,0,1-3.37,1.59" style="fill:none;stroke:#263238;stroke-linecap:round;stroke-linejoin:round"></path><path d="M208.31,92.59a12.93,12.93,0,0,0-7.38,9.22c-1.38,6.91-4.6,11.52-8.29,12s-17.51-.92-19.81,4.15a19.83,19.83,0,0,0-1.29,4.62" style="fill:none;stroke:#263238;stroke-linecap:round;stroke-linejoin:round"></path><path d="M90.87,139.27c-2.44-1.33-3.55-.22-4.43-1.33s2.43-4-4.21-6.87c0,0-.44-6.2-9.53-6.42s-6.65,6.2-9.08,7.75-3.1-.89-5.54.66-1.33,4.66-3.32,5.1-4.66-2-7.09-.44-2.44,2.88-3.55,2.88-3.32-.89-4.65,0-2.88,2-2.88,2H92.64S93.31,140.6,90.87,139.27Z" style="fill:none;stroke:#263238;stroke-linecap:round;stroke-linejoin:round"></path><path d="M57.71,138.36a9.46,9.46,0,0,1-1,.47" style="fill:none;stroke:#263238;stroke-linecap:round;stroke-linejoin:round"></path><path d="M69.7,128a3.75,3.75,0,0,0-2.16,2.7c-.41,2-1.35,3.38-2.44,3.52S60,134,59.29,135.45a6,6,0,0,0-.38,1.35" style="fill:none;stroke:#263238;stroke-linecap:round;stroke-linejoin:round"></path><path d="M441.71,71.56c-6.23-3.4-9.07-.56-11.34-3.4S436.61,58,419.6,50.58c0,0-1.14-15.88-24.38-16.44S378.2,50,372,54s-7.94-2.26-14.18,1.71-3.4,11.9-8.51,13-11.9-5.1-18.14-1.14S324.9,75,322.06,75s-8.5-2.27-11.9,0-7.38,5.1-7.38,5.1H446.25S448,75,441.71,71.56Z" style="fill:none;stroke:#263238;stroke-linecap:round;stroke-linejoin:round"></path><path d="M356.85,69.23a19.89,19.89,0,0,1-2.54,1.2" style="fill:none;stroke:#263238;stroke-linecap:round;stroke-linejoin:round"></path><path d="M387.54,42.74A9.71,9.71,0,0,0,382,49.67c-1,5.19-3.46,8.65-6.23,9s-13.15-.69-14.88,3.12a15,15,0,0,0-1,3.47" style="fill:none;stroke:#263238;stroke-linecap:round;stroke-linejoin:round"></path><path d="M460,104.49c-2.44-1.33-3.55-.22-4.43-1.33s2.43-4-4.21-6.87c0,0-.45-6.2-9.53-6.42s-6.65,6.2-9.08,7.75-3.1-.88-5.54.67-1.33,4.65-3.33,5.1-4.65-2-7.08-.45-2.44,2.88-3.55,2.88-3.32-.88-4.65,0-2.88,2-2.88,2h56.05S462.4,105.82,460,104.49Z" style="fill:none;stroke:#263238;stroke-linecap:round;stroke-linejoin:round"></path><path d="M426.8,103.58a7.8,7.8,0,0,1-1,.47" style="fill:none;stroke:#263238;stroke-linecap:round;stroke-linejoin:round"></path><path d="M438.79,93.23a3.78,3.78,0,0,0-2.16,2.71c-.41,2-1.35,3.38-2.44,3.51s-5.13-.27-5.81,1.22A5.91,5.91,0,0,0,428,102" style="fill:none;stroke:#263238;stroke-linecap:round;stroke-linejoin:round"></path><path d="M283.47,334.66c-2.44-1.33-3.54-.22-4.43-1.33s2.44-4-4.21-6.87c0,0-.44-6.2-9.53-6.42s-6.64,6.2-9.08,7.75-3.1-.88-5.54.67-1.33,4.65-3.32,5.09-4.65-2-7.09-.44-2.44,2.88-3.55,2.88-3.32-.89-4.65,0-2.88,2-2.88,2h56.05S285.91,336,283.47,334.66Z" style="fill:none;stroke:#263238;stroke-linecap:round;stroke-linejoin:round"></path><path d="M250.31,333.75a7.18,7.18,0,0,1-1,.47" style="fill:none;stroke:#263238;stroke-linecap:round;stroke-linejoin:round"></path><path d="M262.3,323.4a3.8,3.8,0,0,0-2.16,2.71c-.4,2-1.35,3.38-2.43,3.51s-5.14-.27-5.82,1.22a6.46,6.46,0,0,0-.38,1.36" style="fill:none;stroke:#263238;stroke-linecap:round;stroke-linejoin:round"></path></g><g id="freepik--Character--inject-87"><path d="M293.11,169.05s6.52.5,11,1,6.27,2.76,6.27,5.26a10,10,0,0,1-3.51,6.78,6.74,6.74,0,0,1-5.77.5c-1.5-.76-2.76-3.51-3.26-4.27s-7-1.25-7-1.25l1-7.77Z" style="fill:#757575;stroke:#263238;stroke-miterlimit:10"></path><path d="M243.46,125.67s9,28.08,9.53,30.34a19.64,19.64,0,0,0,2.25,5s23.07,5.52,27.34,6,10.53,2,10.53,2l-1,10.78s-17.31,3-26.33,3.76-14.3-2.26-19.31-6-24.16-31-24.16-31" style="fill:#DE002F;stroke:#263238;stroke-miterlimit:10"></path><path d="M280.84,166.76a9,9,0,0,1-5.24,1.71c-3.19,0-5-1.06-7.81-1.42s-7.45,2.49-7.45,2.49,5-2.13,7.81.35,3.9,3.9,6.38,3.9h5.68s-3.19,3.2-7.1,3.55-7.45-3.19-10.28-2.13a28.35,28.35,0,0,0-6,3.55s7.45-.71,8.86,1.07a11.46,11.46,0,0,0,4.82,3.27c9.28-1.12,21.63-3.27,21.63-3.27l1-10.78s-6.27-1.51-10.53-2C282.16,167,281.57,166.89,280.84,166.76Z" style="fill:#263238;stroke:#263238;stroke-miterlimit:10"></path><path d="M227.42,141.56l-5.11,5.05s9.3,13.21,16.63,22.49L272.55,165c-7.91-1.75-17.31-4-17.31-4a19.64,19.64,0,0,1-2.25-5c-.19-.83-1.52-5.14-3.13-10.26-3.52-.84-5.94-1.53-6.44-1.95C241.81,142.46,233.12,141.83,227.42,141.56Z" style="fill:#263238;stroke:#263238;stroke-miterlimit:10"></path><polygon points="301.54 252.4 308.48 254.51 322.07 232.17 335.65 228.54 327.2 205.29 313.01 211.03 301.54 252.4" style="fill:#263238;stroke:#263238;stroke-miterlimit:10"></polygon><path d="M188.48,237.47l9.49.43,11.47,11.48L204,280.78s0,1.21,4.83,2.71a17,17,0,0,0,8.45.61l2.42,1.21-2.11,1.51s-4.83.6-3.63,3.32,3.93,3.32,5.74.6,2.42-3.62,2.42-3.62l4.52-.91,9.06-.3L246,291.35l21.44-.31,13-8.75,21.13-32.91-.9-5.44-37.44-25.66-16.31,22.94-38-24.45" style="fill:#263238;stroke:#263238;stroke-miterlimit:10"></path><polyline points="260.84 235.93 266.13 243.14 263.73 251.79" style="fill:none;stroke:#8f8f8f;stroke-miterlimit:10"></polyline><polyline points="288.24 245.06 282.95 249.39 280.55 259" style="fill:none;stroke:#8f8f8f;stroke-miterlimit:10"></polyline><path d="M149.06,233.07a47.41,47.41,0,1,0,47.4,47.41A47.41,47.41,0,0,0,149.06,233.07Zm0,81.83a34.43,34.43,0,1,1,34.42-34.42A34.42,34.42,0,0,1,149.06,314.9Z" style="fill:#263238;stroke:#263238;stroke-miterlimit:10"></path><path d="M150.27,278.22l-13.77,7.62c2.93,13.77,17.87,14.06,17.87,14.06l14.35-.58L210,279.1l.58-5.86ZM162.86,294h-3.51l1.17-3.22,4.69-2.34Zm6.74-2.34,1.76-6.45,14.94-1.46.29,1.76Z" style="fill:#263238"></path><line x1="148.22" y1="266.8" x2="205.05" y2="265.92" style="fill:none;stroke:#263238;stroke-linecap:round;stroke-miterlimit:10;stroke-width:2px"></line><circle cx="149.06" cy="280.48" r="14.49" style="fill:#fff;stroke:#263238;stroke-miterlimit:10"></circle><circle cx="148.59" cy="272" r="3.3" style="fill:#fff;stroke:#263238;stroke-miterlimit:10"></circle><path d="M143.13,273.79a3.3,3.3,0,1,0,1.21,4.5A3.29,3.29,0,0,0,143.13,273.79Z" style="fill:#fff;stroke:#263238;stroke-miterlimit:10"></path><path d="M140.3,282.27a3.3,3.3,0,1,0,4.51,1.2A3.3,3.3,0,0,0,140.3,282.27Z" style="fill:#fff;stroke:#263238;stroke-miterlimit:10"></path><circle cx="149.53" cy="288.95" r="3.3" style="fill:#fff;stroke:#263238;stroke-miterlimit:10"></circle><path d="M155,287.16a3.3,3.3,0,1,0-1.21-4.5A3.29,3.29,0,0,0,155,287.16Z" style="fill:#fff;stroke:#263238;stroke-miterlimit:10"></path><path d="M157.81,278.68a3.29,3.29,0,1,0-4.5-1.2A3.29,3.29,0,0,0,157.81,278.68Z" style="fill:#fff;stroke:#263238;stroke-miterlimit:10"></path><path d="M371.89,258.13a49.52,49.52,0,1,0,49.51,49.52A49.52,49.52,0,0,0,371.89,258.13Zm0,85.47a36,36,0,1,1,35.95-36A36,36,0,0,1,371.89,343.6Z" style="fill:#263238;stroke:#263238;stroke-miterlimit:10"></path><circle cx="371.89" cy="307.65" r="21.74" style="fill:#fff;stroke:#263238;stroke-miterlimit:10"></circle><path d="M383.47,322.33h-.24a2.6,2.6,0,0,1-2.35-2.82,37,37,0,0,0-1.64-13.31,2.6,2.6,0,0,1,4.92-1.69,41.89,41.89,0,0,1,1.9,15.47A2.6,2.6,0,0,1,383.47,322.33Zm4.84-23.79a41.7,41.7,0,0,0-15.19-3.5,2.6,2.6,0,0,0-.09,5.2,37,37,0,0,1,13.07,3,2.6,2.6,0,0,0,3.46-1.25l.09-.22A2.61,2.61,0,0,0,388.31,298.54ZM369,289.1a41.64,41.64,0,0,0-8.49,13.08,2.6,2.6,0,0,0,4.86,1.86,36.69,36.69,0,0,1,7.29-11.25,2.6,2.6,0,0,0,0-3.68l-.17-.16A2.61,2.61,0,0,0,369,289.1Zm-15.5,15a41.6,41.6,0,0,0,9.38,12.44,2.6,2.6,0,1,0,3.41-3.92,37,37,0,0,1-8.07-10.7,2.59,2.59,0,0,0-3.45-1.27l-.21.11A2.6,2.6,0,0,0,353.45,304.07Zm8.77,19.68a41.54,41.54,0,0,0,14.9-4.56,2.6,2.6,0,0,0-2.52-4.55,36.84,36.84,0,0,1-12.82,3.92,2.61,2.61,0,0,0-2.37,2.81,1,1,0,0,0,0,.24A2.61,2.61,0,0,0,362.22,323.75Z" style="fill:#fff;stroke:#263238;stroke-miterlimit:10"></path><circle cx="371.89" cy="307.65" r="6.64" style="fill:#263238;stroke:#263238;stroke-miterlimit:10"></circle><path d="M209.75,263.57l-62.15,12a4.2,4.2,0,0,0-3.39,4.44h0a4.2,4.2,0,0,0,4.44,3.86L188,281.38l12.68.3,16-4.53-1.21-14.49Z" style="fill:#ababab;stroke:#263238;stroke-miterlimit:10"></path><polygon points="246.04 295.07 225.21 284.49 227.5 280.09 247.13 290.04 268.34 288.91 282.14 278.49 315.71 222.14 319.97 224.68 285.9 281.86 270.12 293.78 246.04 295.07" style="fill:#ababab;stroke:#263238;stroke-miterlimit:10"></polygon><path d="M293.24,269.69c.22,1.66.18,3-.24,3.56,0,0-.12.17-.64.12-2.46-.24-3.47-2.3-4.84-5.68-.94-2.32-1.82-4.51-3.76-5.56-2.88-1.57-26.25-11.42-31.74-11.42-5.28,0-16.31,11.35-19.57,14.82a2,2,0,1,0,2.9,2.71c6.11-6.52,14.22-13.56,16.67-13.56,4.28,0,26.38,9,29.84,10.93.69.38,1.38,2.07,2,3.57,1.31,3.23,3.11,7.66,8.15,8.14a5.43,5.43,0,0,0,.57,0,4.37,4.37,0,0,0,3.6-1.68c2-2.58,1.06-7.54.08-11Z" style="fill:#878787;stroke:#263238;stroke-miterlimit:10"></path><circle cx="252.17" cy="270.66" r="13.74" style="fill:#d4d4d4;stroke:#263238;stroke-miterlimit:10"></circle><circle cx="252.17" cy="270.66" r="4.45" style="fill:#d4d4d4;stroke:#263238;stroke-miterlimit:10"></circle><polygon points="320.86 180.53 341.69 212.24 333.24 215.56 320.86 180.53" style="fill:#ababab;stroke:#263238;stroke-miterlimit:10"></polygon><path d="M332,212.24s23.25-3.93,42,.6,31.1,23.85,31.1,23.85-21.44-15.39-31.1-16-21.44-2.41-38.35,1.81Z" style="fill:#ababab;stroke:#263238;stroke-miterlimit:10"></path><polygon points="318.14 188.99 298.51 201.07 316.93 217.67 328.71 211.03 318.14 188.99" style="fill:#ababab;stroke:#263238;stroke-miterlimit:10"></polygon><rect x="162.82" y="187.05" width="16.86" height="54.9" transform="translate(-102.96 226.72) rotate(-53.95)" style="fill:#757575;stroke:#263238;stroke-miterlimit:10"></rect><polygon points="154.02 191.53 144.53 190.8 140.3 197.14 144.09 205.17 154.02 191.53" style="fill:#263238;stroke:#263238;stroke-miterlimit:10"></polygon><path d="M300,199.86s-7.85-4.83-14.79-4.53-17.21,2.72-19.32,3-15.4.6-24.76.3-94.21-12.08-100.85-13.59-22.34-2.71-22-1.81,12.68,5.74,15.4,6,10.87,1.51,10.87,1.51S153.9,193,165,196.3l1.3,6.28,25.66,31.1,15.43-9.1a116.87,116.87,0,0,1,8.12,10c4.83,6.95,9.72,17.2,10.9,17.66s14.47,1.67,16.58,1.67c1.61,0,14.86-16.57,21-24.39a5,5,0,0,1,7.1-.81c8.17,6.57,26.2,21,27.13,21,1.21,0,4.83-.3,6-2.12s6-18.41,10.57-20.53a120.61,120.61,0,0,1,12.68-4.53Z" style="fill:#ababab;stroke:#263238;stroke-miterlimit:10"></path><path d="M185,201a18.71,18.71,0,0,1-4-2.58l1-1.14c2.85,2.39,4.45,2.49,5.89,2.2l2,1.73-11.1,12.48-2.84-2.48Z" style="fill:#263238"></path><path d="M191.26,207.83c1.7-1.91,4.74-1.43,8.68,2s4.83,6.4,3.13,8.31l-5.73,6.43c-1.69,1.91-4.75,1.45-8.72-2s-4.78-6.39-3.08-8.3Zm-3,9c-1,1.12-.61,2.66,1.45,4.47s3.66,2,4.66.86l5.86-6.59c1-1.14.66-2.65-1.43-4.49s-3.66-2-4.67-.85Z" style="fill:#263238"></path><path d="M248.39,209.82c11.78-4.83,33.22-10.57,35.33-13.28.35-.45.64-.83.88-1.17-6.92.41-16.64,2.69-18.69,3s-15.4.6-24.76.3c-6.29-.2-46.62-5.58-74.44-9.55,7,2.8,47.48,18.87,56,21.63C232.09,213.75,236.62,214.65,248.39,209.82Z" style="fill:#263238;stroke:#263238;stroke-miterlimit:10"></path><path d="M309.58,207.73c-8.77-.71-30.48-2.06-32.4,1.77-1.69,3.38,19.67,17,32.5,24.75,1.61-3.44,3.4-6.4,5.14-7.22a120.61,120.61,0,0,1,12.68-4.53Z" style="fill:#263238;stroke:#263238;stroke-miterlimit:10"></path><path d="M311.5,167.55l-3.62,4.53S304,173.29,304,175.7s.91,2.42,1.81,2.72a6.06,6.06,0,0,0,2.42,0s1.81,2.72,3.62,2.72,4.53-2.72,4.53-2.72Z" style="fill:#263238;stroke:#263238;stroke-miterlimit:10"></path><polygon points="307.27 161.81 313.61 177.82 318.75 176.31 314.22 162.72 307.88 158.49 307.27 161.81" style="fill:#263238;stroke:#263238;stroke-miterlimit:10"></polygon><path d="M365.85,306.79a4,4,0,0,1-3.69-2.51L313.25,181.09a4,4,0,1,1,7.37-2.93l48.92,123.19a4,4,0,0,1-2.23,5.16A3.94,3.94,0,0,1,365.85,306.79Z" style="fill:#fff;stroke:#263238;stroke-miterlimit:10"></path><path d="M228.77,280.78a3.93,3.93,0,1,0-3.93,3.92A3.93,3.93,0,0,0,228.77,280.78Z" style="fill:#ababab;stroke:#263238;stroke-miterlimit:10"></path><path d="M220.92,276.1a3.48,3.48,0,1,0-3.47,3.47A3.47,3.47,0,0,0,220.92,276.1Z" style="fill:#ababab;stroke:#263238;stroke-miterlimit:10"></path><path d="M193.33,130.81l0,.06Z" style="fill:#263238;stroke:#263238;stroke-miterlimit:10"></path><path d="M367.31,306.51a4,4,0,0,0,2.23-5.16L343,234.48l-1.09,18.75,20.27,51a4,4,0,0,0,5.15,2.23Z" style="fill:#263238;stroke:#263238;stroke-miterlimit:10"></path><path d="M268.53,132.94a5.61,5.61,0,0,1-2.5.25c-1-.25-5-3.76-5-3.76l-7.27,1.75s-2.26-14.29-3.51-15.54a47.12,47.12,0,0,1-3.26-4l1.76-3a17.52,17.52,0,0,1-3.52-6.51c-1-3.77-1-3-.25-4s7.53-1.25,10.79,2.26S271,122.91,268.53,132.94Z" style="fill:#263238;stroke:#263238;stroke-miterlimit:10"></path><path d="M246.72,109.62s8,6.77,9.28,15,2.76,13,1.5,14-5.26-3.25-5.26-3.25-4,12-12.79,18.3-25.08,8.27-27.33,10-5.52,3.51-14.3,9.78-20.31,7.27-26.33,2.51-9.52-16.8-1.75-26.33,10-12,20.31-20.81,26.83-16.3,39.87-19.06S246.72,109.62,246.72,109.62Z" style="fill:#DE002F;stroke:#263238;stroke-miterlimit:10"></path><path d="M246.72,109.62s-3.76-2.51-16.8.25a102.74,102.74,0,0,0-27.64,10.72,34.64,34.64,0,0,0-3.31,3.18c-2.64,3-5.28,6.55-5.64,7a8.34,8.34,0,0,1,5.28-2.78c3.91-.71,3.55-3.55,6.39-5s7.09.71,7.09.71a5,5,0,0,0-4.61,2.48c-1.77,2.84-1.42,7.45-5,8.87s-7.81,1.07-8.87,3.91-1.78,5-1.78,5,5-2.13,6.39-2.13,3.19,1.07,5.67,1.07,2.84-1.42,5.33-3.19,12.41,0,12.41,0-7.45.71-7.45,3.54,2.13,4.62-1.06,6.74-7.81,1.07-9.58,3.55a12.44,12.44,0,0,0-2.13,4.61s5.32-3.54,8.87-3.19,2.48,1.78,6,1.07a15.44,15.44,0,0,0,6.39-2.84c1.06-.71,4.25,0,4.25,0s-5,1.77-5.67,3.9-.71,2.48-4.26,3.19-6.74-.35-7.09,1.78a21.6,21.6,0,0,0-.36,3.19s.54-.32,1.47-.74c.37-.26.71-.51,1-.76,2.25-1.76,18.55-3.76,27.33-10s12.79-18.3,12.79-18.3,4,4.26,5.26,3.25-.25-5.76-1.5-14S246.72,109.62,246.72,109.62Z" style="fill:#263238;stroke:#263238;stroke-miterlimit:10"></path><path d="M193.56,150.49s.25,2.51.25,3.76v3s39.87,19.06,47.39,22.57,14,11,11.79,19.81-10.78,24.07-10.78,24.07L240,227.22l-22.32-7a95.09,95.09,0,0,1,2.51-9.28c1-2.51,3.51-8,3.51-8l-2.76-4.27a214.53,214.53,0,0,1-26.58-4c-13.54-3-26.58-9.78-29.59-13.29s-5.26-11.78-2-21.56a29,29,0,0,1,11-14.55" style="fill:#DE002F;stroke:#263238;stroke-miterlimit:10"></path><path d="M253.26,194c-1-6.3-6.2-11.48-12.06-14.21l-6.53-3.09.48,1.31a17.18,17.18,0,0,0-2.08-2.06l-8.59-4.09c-2.55-.3-4.41.38-7.77.12-4.62-.35-7.45-.71-11-4.26a32.38,32.38,0,0,0-8.16-5.67s2.48,1.06,3.19,6.38,2.48,8.52,7.1,8.52,8.16-2.13,9.58,1.06a24.94,24.94,0,0,1,1.77,5.32s-5-2.84-8.87-1.77S202.87,185.5,200,183s-3.55-7.45-6.38-7.81a59.17,59.17,0,0,0-8.16,0s5.67,1.07,6.74,5.32,3.19,8.52,6,9.58,8.87,1.07,9.58,2.49l.71,1.42s-8.52-.36-11.36-.36-5.67-3.9-7.45-6-3.54-2.13-7.09-2.13-7.81-2.13-7.81-2.13a33,33,0,0,0,7.1,5.32c3.55,1.78,5,1.42,6,3.2.19.32.47.77.8,1.29,1.82.54,3.68,1,5.54,1.44a214.53,214.53,0,0,0,26.58,4l2.76,4.27s-.2.45-.52,1.14c7.18.4,13,1.94,18.06-1.51C245.18,199.78,250.39,196.34,253.26,194Z" style="fill:#263238;stroke:#263238;stroke-miterlimit:10"></path><path d="M241.2,179.83l-3.12-1.47-32.31,18.42c8.6,1.35,15.12,1.85,15.12,1.85l2.76,4.27s-2.51,5.51-3.51,8a75.61,75.61,0,0,0-2.23,8.07l23.46,6,.84-1.3s8.52-15.3,10.78-24.07S248.73,183.34,241.2,179.83Z" style="fill:#263238;stroke:#263238;stroke-miterlimit:10"></path><path d="M220.89,198.63s10.78-8.27,19.31-11.28,12.54-1.75,13.79,4.51-.25,10.29-1.75,10.29-28.59.75-28.59.75Z" style="fill:#fff;stroke:#263238;stroke-miterlimit:10"></path><path d="M218.38,215.94s-2-.51-4.51,6.52c-.53,1.49-10.28,34.6-11,38.36s-2.76,9.53-.5,11.54,10.28,2,12,1.75,2.76-2,4-1.25,1.76,1.75,7.28,1.75,16.29-.25,18.8-1.75,3-6.27,1-7-9.53-3-11-4.27-4.76-6-4.76-7.52,5.51-9,9-15.55S243,228,243,225.47,225.41,215.18,218.38,215.94Z" style="fill:#fff;stroke:#263238;stroke-miterlimit:10"></path><path d="M225.41,253l-.2,0c-3.6-.72-13.45-.24-13.55-.23a1,1,0,0,1-.1-2c.42,0,10.2-.5,14,.27a1,1,0,0,1-.19,2Z" style="fill:#263238"></path><ellipse cx="211.24" cy="251.79" rx="3.64" ry="2.26" style="fill:none;stroke:#263238;stroke-miterlimit:10"></ellipse><path d="M228.1,243a.64.64,0,0,1-.18-.06c-3.32-1.59-13-3.55-13.08-3.57a1,1,0,0,1,.4-1.94c.4.08,10,2,13.53,3.72a1,1,0,0,1-.67,1.85Z" style="fill:#263238"></path><path d="M218.2,239.23c-.31,1.21-2.13,1.79-4.08,1.29s-3.28-1.87-3-3.08,2.14-1.78,4.08-1.29S218.51,238,218.2,239.23Z" style="fill:none;stroke:#263238;stroke-miterlimit:10"></path><path d="M232.45,231.57a1.51,1.51,0,0,1-.18-.09c-3.13-1.93-12.52-4.91-12.62-4.94a1,1,0,0,1-.65-1.24,1,1,0,0,1,1.25-.65c.39.13,9.73,3.09,13.06,5.14a1,1,0,0,1-.86,1.78Z" style="fill:#263238"></path><path d="M223,226.73c-.44,1.17-2.32,1.55-4.2.85s-3.06-2.21-2.62-3.38,2.31-1.55,4.19-.85S223.44,225.56,223,226.73Z" style="fill:none;stroke:#263238;stroke-miterlimit:10"></path><path d="M216.63,270.35c-7.31-1.87-12.54-2.82-15.15-3.23-.33,2.21-.29,4.21.86,5.24,2.25,2,10.28,2,12,1.75s2.76-2,4-1.25,1.76,1.75,7.28,1.75,16.29-.25,18.8-1.75a4.82,4.82,0,0,0,1.95-2.68C240.71,271.86,226.33,272.83,216.63,270.35Z" style="fill:#fff;stroke:#263238;stroke-miterlimit:10"></path><path d="M290.6,114.13s7,5,10,5.52,6-.5,5.27-2.51-9.53-8.27-13.29-16.55-8-12.79-15.3-17.55-15.8-4.52-21.06,1-12,14.29-12,14.29,15.55,19.06,17.55,21.82S270,140,270,140s6,1.25,7.52.75,5.52-7.52,5-10.28-7.77-10.35-9-14.36-1-8.71,3.5-9S290.6,114.13,290.6,114.13Z" style="fill:#fff;stroke:#263238;stroke-miterlimit:10"></path><polygon points="273.55 109.37 254.49 86.3 257.75 82.54 277.06 107.11 273.55 109.37" style="fill:#263238;stroke:#263238;stroke-miterlimit:10"></polygon><path d="M277.06,107.11l-3.66,2.8-.71,3.11a4.39,4.39,0,0,0,.82,3.7l6.83,8.81,10.42-10.66-7.15-6.06a7,7,0,0,0-4.33-1.65Z" style="fill:#DE002F;stroke:#263238;stroke-linecap:round;stroke-miterlimit:10;stroke-width:2px"></path><path d="M291.35,152.75s13.54-1,14.55-1,2.5,1,3.26,3,3,5.77,2.25,6.77-4.26,5.27-6,5.27-5-3.76-5-3.76a2.58,2.58,0,0,1-3.26,0,5.16,5.16,0,0,1-2.26-3.51l-4,.25Z" style="fill:#757575;stroke:#263238;stroke-miterlimit:10"></path><circle cx="300.25" cy="157.64" r="3.13" style="fill:#263238;stroke:#263238;stroke-miterlimit:10"></circle><path d="M221.89,131.68s15,25.51,22.25,28.16c2.84,1,48.47,2.94,48.47,2.94V152.5l-36.61-13s-5.27-16.05-7-20.82-7.53-7-12.54-7C236.44,111.62,218.92,111.57,221.89,131.68Z" style="fill:#DE002F;stroke:#263238;stroke-miterlimit:10"></path><path d="M269.57,147.19c-5-.71-5.68-2.49-9.23-2.49s-6.74,3.55-6.74,3.55,4.26-2.13,8.16,0,3.55,3.55,6,4.26,6.39,1.42,6.39,1.42-2.13.71-4.61,1.77-5.68,0-8.87-.71-5.77-1.72-6.74-.35a10.31,10.31,0,0,1-3.55,2.48s5.32-1.06,7.09.35,4.62,2.84,6.39,2.84,7.1.71,7.1.71l-1.54.68c11.76.6,23.16,1.08,23.16,1.08V152.5L275,146.21C274.43,146.79,273,147.68,269.57,147.19Z" style="fill:#263238;stroke:#263238;stroke-miterlimit:10"></path><path d="M329,336.14a2.35,2.35,0,1,1-2.35-2.36A2.35,2.35,0,0,1,329,336.14Z" style="fill:#263238"></path><path d="M310.82,340.84a1.69,1.69,0,1,1-1.68-1.68A1.69,1.69,0,0,1,310.82,340.84Z" style="fill:#263238"></path><path d="M333.68,356a1.35,1.35,0,1,1-1.34-1.35A1.34,1.34,0,0,1,333.68,356Z" style="fill:#263238"></path><path d="M318.21,355.3a.67.67,0,1,1-1.34,0,.67.67,0,0,1,1.34,0Z" style="fill:#263238"></path><circle cx="353.52" cy="362.36" r="2.35" style="fill:#263238"></circle><path d="M106.39,322.35a2,2,0,1,1-2-2A2,2,0,0,1,106.39,322.35Z" style="fill:#263238"></path><path d="M89.58,315a4,4,0,1,1-4-4A4,4,0,0,1,89.58,315Z" style="fill:#263238"></path><path d="M113.79,337.15a2,2,0,1,1-2-2A2,2,0,0,1,113.79,337.15Z" style="fill:#263238"></path><path d="M93.61,338.15a1.68,1.68,0,1,1-1.68-1.68A1.69,1.69,0,0,1,93.61,338.15Z" style="fill:#263238"></path><path d="M144.72,336.47a2,2,0,1,1-2-2A2,2,0,0,1,144.72,336.47Z" style="fill:#263238"></path><path d="M54.61,336.47a2,2,0,1,1-2-2A2,2,0,0,1,54.61,336.47Z" style="fill:#263238"></path><path d="M129.25,334.12a1.68,1.68,0,1,1-1.68-1.68A1.68,1.68,0,0,1,129.25,334.12Z" style="fill:#263238"></path><path d="M82.85,331.09a2.69,2.69,0,1,1-2.69-2.69A2.68,2.68,0,0,1,82.85,331.09Z" style="fill:#263238"></path><path d="M103.7,254.43a2,2,0,1,1-2-2A2,2,0,0,1,103.7,254.43Z" style="fill:#263238"></path><circle cx="61.67" cy="281.67" r="2.35" style="fill:#263238"></circle></g></svg>